<svg id="svg" version="1.1" xmlns="http://www.w3.org/2000/svg" xmlns:xlink="http://www.w3.org/1999/xlink" width="400" height="400" viewBox="0, 0, 400,400"><g id="svgg"><path id="path0" d="M161.796 58.710 C 161.574 58.870,160.976 60.080,160.466 61.400 C 158.765 65.806,157.935 67.788,157.164 69.279 C 156.744 70.093,156.400 70.981,156.400 71.253 C 156.400 71.525,156.069 72.479,155.664 73.374 C 155.260 74.268,154.555 75.900,154.098 77.000 C 153.641 78.100,152.552 80.710,151.678 82.800 C 150.804 84.890,149.601 87.860,149.004 89.400 C 148.407 90.940,147.757 92.371,147.559 92.580 C 147.362 92.789,147.200 93.216,147.200 93.530 C 147.200 94.049,145.974 97.172,144.581 100.200 C 144.107 101.230,139.973 111.305,137.563 117.300 C 137.144 118.345,136.456 120.055,136.037 121.100 C 132.637 129.560,129.451 137.274,128.792 138.644 C 128.356 139.548,128.000 140.494,128.000 140.745 C 128.000 140.997,127.640 141.875,127.200 142.696 C 126.760 143.516,126.400 144.470,126.400 144.814 C 126.400 145.158,126.238 145.611,126.041 145.820 C 125.843 146.029,125.193 147.460,124.595 149.000 C 123.998 150.540,123.191 152.520,122.802 153.400 C 122.414 154.280,121.735 155.900,121.295 157.000 C 119.537 161.387,118.670 163.473,117.952 165.044 C 117.538 165.948,117.200 166.910,117.200 167.182 C 117.200 167.454,116.932 168.154,116.604 168.738 C 116.010 169.797,113.618 175.567,112.517 178.597 C 112.198 179.475,111.808 180.375,111.650 180.597 C 111.493 180.819,110.958 182.080,110.462 183.400 C 109.967 184.720,109.236 186.520,108.839 187.400 C 108.442 188.280,107.708 190.080,107.207 191.400 C 106.295 193.803,105.651 195.338,104.054 198.911 C 103.584 199.962,103.200 201.022,103.200 201.267 C 103.200 201.512,102.856 202.452,102.434 203.356 C 101.298 205.797,98.734 211.967,96.600 217.400 C 95.563 220.040,94.554 222.371,94.357 222.580 C 94.161 222.789,93.999 223.239,93.998 223.580 C 93.996 223.921,93.722 224.724,93.387 225.365 C 93.053 226.006,91.957 228.616,90.951 231.165 C 89.944 233.714,88.779 236.481,88.361 237.312 C 87.942 238.144,87.600 239.017,87.600 239.252 C 87.600 239.487,87.346 240.246,87.035 240.940 C 86.724 241.633,85.986 243.370,85.394 244.800 C 84.803 246.230,83.997 248.120,83.604 249.000 C 83.210 249.880,82.037 252.760,80.996 255.400 C 79.956 258.040,78.995 260.380,78.861 260.600 C 78.728 260.820,78.323 261.810,77.962 262.800 C 77.164 264.991,73.410 274.138,72.627 275.800 C 72.317 276.460,71.588 278.260,71.008 279.800 C 70.428 281.340,69.712 283.140,69.418 283.800 C 69.123 284.460,68.485 285.990,68.000 287.200 C 67.515 288.410,66.846 289.970,66.514 290.666 C 65.455 292.888,64.178 292.800,97.424 292.800 C 132.155 292.800,129.419 293.039,130.341 289.926 C 130.557 289.197,131.578 286.620,132.609 284.200 C 134.523 279.713,135.672 276.898,136.609 274.400 C 136.898 273.630,137.418 272.460,137.765 271.800 C 138.112 271.140,138.396 270.296,138.398 269.924 C 138.399 269.552,138.567 269.144,138.771 269.018 C 138.975 268.892,139.348 268.116,139.601 267.294 C 139.854 266.472,140.309 265.260,140.613 264.600 C 141.958 261.680,144.400 255.765,144.400 255.426 C 144.400 255.220,144.730 254.321,145.133 253.426 C 146.616 250.133,147.133 248.902,148.173 246.181 C 148.757 244.652,149.484 242.860,149.788 242.200 C 150.614 240.402,152.207 236.546,153.412 233.428 C 154.001 231.904,154.643 230.374,154.838 230.028 C 155.034 229.683,155.445 228.680,155.751 227.800 C 156.619 225.309,160.351 216.321,161.009 215.138 C 161.334 214.554,161.600 213.846,161.600 213.565 C 161.600 213.283,161.931 212.321,162.336 211.426 C 163.040 209.870,163.364 209.098,165.791 203.200 C 166.379 201.770,167.099 200.060,167.389 199.400 C 167.680 198.740,168.278 197.300,168.719 196.200 C 170.648 191.389,171.667 188.953,172.020 188.305 C 172.229 187.923,172.401 187.383,172.402 187.105 C 172.404 186.827,172.687 186.060,173.032 185.400 C 173.376 184.740,174.653 181.680,175.868 178.600 C 177.083 175.520,178.240 172.829,178.438 172.620 C 178.637 172.411,178.806 171.961,178.813 171.620 C 178.819 171.279,179.268 170.100,179.809 169.000 C 180.350 167.900,180.794 166.790,180.796 166.532 C 180.798 166.275,181.057 165.555,181.371 164.932 C 181.686 164.310,182.421 162.630,183.006 161.200 C 183.591 159.770,184.324 158.033,184.635 157.340 C 184.946 156.646,185.200 155.961,185.200 155.818 C 185.200 155.674,185.540 154.801,185.955 153.878 C 186.370 152.955,187.104 151.210,187.585 150.000 C 188.067 148.790,188.710 147.260,189.016 146.600 C 189.321 145.940,190.390 143.330,191.392 140.800 C 192.394 138.270,193.480 135.722,193.807 135.138 C 194.133 134.554,194.400 133.827,194.400 133.523 C 194.400 133.218,194.720 132.341,195.112 131.572 C 195.504 130.804,196.157 129.281,196.563 128.188 C 197.358 126.048,199.306 121.350,200.206 119.400 C 200.511 118.740,201.330 116.760,202.026 115.000 C 202.722 113.240,203.650 110.900,204.088 109.800 C 204.526 108.700,205.120 107.170,205.409 106.400 C 205.698 105.630,206.218 104.460,206.565 103.800 C 206.912 103.140,207.196 102.413,207.198 102.185 C 207.199 101.956,207.560 101.063,208.000 100.200 C 208.440 99.337,208.800 98.382,208.800 98.077 C 208.800 97.773,209.056 97.046,209.369 96.462 C 210.317 94.692,211.600 91.771,211.602 91.374 C 211.604 91.168,211.888 90.460,212.235 89.800 C 212.582 89.140,213.097 87.970,213.382 87.200 C 214.414 84.401,218.054 75.359,218.776 73.800 C 219.184 72.920,219.878 71.300,220.319 70.200 C 222.096 65.768,223.292 62.939,223.871 61.794 C 224.206 61.131,224.417 60.141,224.340 59.594 L 224.200 58.600 193.200 58.510 C 176.150 58.461,162.018 58.551,161.796 58.710 M239.358 68.300 C 239.239 68.685,238.905 69.548,238.616 70.219 C 238.327 70.889,237.615 72.689,237.033 74.219 C 236.452 75.748,235.621 77.666,235.188 78.479 C 234.755 79.293,234.400 80.173,234.400 80.435 C 234.400 80.698,234.062 81.652,233.648 82.556 C 233.234 83.460,232.535 85.100,232.095 86.200 C 230.488 90.211,229.489 92.634,228.796 94.200 C 228.407 95.080,227.239 97.960,226.201 100.600 C 225.163 103.240,224.154 105.571,223.957 105.780 C 223.761 105.989,223.599 106.439,223.598 106.780 C 223.596 107.121,223.312 107.940,222.965 108.600 C 222.618 109.260,222.103 110.430,221.819 111.200 C 221.090 113.176,218.479 119.557,217.783 121.060 C 217.462 121.754,217.199 122.474,217.198 122.660 C 217.196 122.847,216.912 123.540,216.565 124.200 C 216.218 124.860,215.703 126.030,215.419 126.800 C 214.557 129.139,212.360 134.501,211.557 136.226 C 211.141 137.121,210.800 138.120,210.800 138.446 C 210.800 138.773,210.638 139.211,210.441 139.420 C 210.243 139.629,209.607 140.998,209.028 142.463 L 207.975 145.126 208.741 146.663 C 209.162 147.508,210.169 149.910,210.977 152.000 C 211.785 154.090,212.701 156.340,213.011 157.000 C 213.529 158.102,215.310 162.431,217.288 167.400 C 218.685 170.908,219.044 171.777,219.520 172.800 C 220.085 174.012,222.702 180.457,223.419 182.400 C 223.702 183.170,224.329 184.700,224.812 185.800 C 225.294 186.900,226.663 190.230,227.852 193.200 C 229.042 196.170,230.179 198.960,230.380 199.400 C 230.742 200.196,232.221 203.772,233.606 207.200 C 234.006 208.190,235.068 210.731,235.966 212.848 C 236.865 214.964,237.600 216.827,237.600 216.987 C 237.600 217.148,237.860 217.846,238.178 218.540 C 238.842 219.987,242.301 228.372,244.061 232.800 C 244.717 234.450,245.602 236.540,246.027 237.444 C 246.452 238.348,246.800 239.236,246.800 239.418 C 246.800 239.599,247.131 240.479,247.536 241.374 C 248.298 243.058,249.391 245.680,250.841 249.300 C 251.304 250.455,251.928 251.940,252.229 252.600 C 252.686 253.605,258.314 267.412,260.788 273.600 C 263.473 280.313,264.464 282.746,264.944 283.800 C 265.245 284.460,265.894 285.990,266.388 287.200 C 266.881 288.410,267.624 290.165,268.037 291.100 L 268.790 292.800 302.395 292.800 C 332.777 292.800,336.000 292.739,336.000 292.167 C 336.000 291.494,334.350 287.475,331.643 281.556 C 331.179 280.542,330.800 279.572,330.800 279.400 C 330.800 279.228,330.421 278.258,329.957 277.244 C 329.493 276.230,328.879 274.860,328.592 274.200 C 328.304 273.540,327.627 272.010,327.087 270.800 C 326.546 269.590,325.612 267.353,325.011 265.828 C 324.409 264.304,323.760 262.774,323.569 262.428 C 323.377 262.083,322.756 260.630,322.190 259.200 C 321.623 257.770,320.905 256.060,320.594 255.400 C 320.284 254.740,319.202 252.220,318.191 249.800 C 317.180 247.380,316.109 244.860,315.810 244.200 C 315.512 243.540,314.790 241.830,314.206 240.400 C 312.808 236.977,312.615 236.521,311.669 234.400 C 311.228 233.410,310.032 230.620,309.011 228.200 C 305.171 219.094,304.391 217.253,301.975 211.600 C 299.056 204.772,295.373 196.126,293.114 190.800 C 292.227 188.710,291.258 186.460,290.961 185.800 C 290.663 185.140,289.588 182.620,288.572 180.200 C 286.080 174.268,285.267 172.407,284.580 171.068 C 284.261 170.445,284.000 169.744,284.000 169.511 C 284.000 169.278,283.650 168.348,283.222 167.444 C 282.794 166.540,281.613 163.820,280.598 161.400 C 279.584 158.980,278.506 156.460,278.204 155.800 C 277.902 155.140,276.909 152.800,275.997 150.600 C 275.085 148.400,274.087 146.060,273.780 145.400 C 273.472 144.740,272.393 142.220,271.382 139.800 C 270.371 137.380,269.301 134.860,269.005 134.200 C 268.709 133.540,267.988 131.830,267.403 130.400 C 266.818 128.970,266.083 127.215,265.770 126.500 C 265.456 125.785,264.944 124.615,264.631 123.900 C 263.714 121.806,260.396 113.974,259.504 111.800 C 259.053 110.700,258.324 108.990,257.884 108.000 C 257.444 107.010,256.858 105.660,256.581 105.000 C 256.304 104.340,255.700 102.978,255.239 101.974 C 254.777 100.969,254.400 99.999,254.400 99.818 C 254.400 99.636,254.050 98.748,253.622 97.844 C 253.194 96.940,252.013 94.220,250.998 91.800 C 249.984 89.380,248.901 86.860,248.594 86.200 C 248.286 85.540,247.320 83.290,246.448 81.200 C 245.576 79.110,244.065 75.510,243.089 73.200 C 242.114 70.890,241.205 68.685,241.070 68.300 C 240.936 67.915,240.544 67.600,240.200 67.600 C 239.856 67.600,239.477 67.915,239.358 68.300 " stroke="none" fill="#f9d280" fill-rule="evenodd"></path><path id="path1" d="M0.000 200.000 L 0.000 400.000 200.000 400.000 L 400.000 400.000 400.000 200.000 L 400.000 0.000 200.000 0.000 L 0.000 0.000 0.000 200.000 M225.873 58.645 C 226.093 59.218,224.868 62.709,222.801 67.400 C 222.135 68.910,221.406 70.687,219.639 75.100 C 218.451 78.069,216.786 82.076,216.165 83.460 C 215.854 84.154,215.600 84.904,215.600 85.128 C 215.600 85.352,215.335 86.045,215.012 86.668 C 214.688 87.290,213.990 88.880,213.461 90.200 C 212.931 91.520,211.829 94.220,211.011 96.200 C 210.193 98.180,209.160 100.700,208.714 101.800 C 208.269 102.900,207.566 104.540,207.152 105.444 C 206.738 106.348,206.400 107.221,206.400 107.383 C 206.400 107.546,206.147 108.246,205.839 108.940 C 203.672 113.805,203.200 114.944,203.200 115.305 C 203.200 115.529,202.840 116.497,202.400 117.456 C 201.960 118.415,201.240 119.985,200.800 120.944 C 200.360 121.903,199.994 122.848,199.986 123.044 C 199.979 123.240,199.625 124.120,199.200 125.000 C 198.775 125.880,198.421 126.879,198.414 127.220 C 198.406 127.561,198.235 128.011,198.034 128.220 C 197.833 128.429,197.008 130.310,196.200 132.400 C 195.392 134.490,194.567 136.371,194.366 136.580 C 194.165 136.789,194.000 137.219,194.000 137.536 C 194.000 137.853,193.662 138.852,193.248 139.756 C 192.834 140.660,192.093 142.390,191.600 143.600 C 191.107 144.810,190.366 146.540,189.952 147.444 C 189.538 148.348,189.200 149.236,189.200 149.418 C 189.200 149.599,188.858 150.479,188.441 151.374 C 188.023 152.268,187.225 154.170,186.666 155.600 C 185.748 157.946,184.961 159.834,183.414 163.400 C 183.127 164.060,181.704 167.590,180.251 171.245 C 178.798 174.900,177.338 178.410,177.007 179.045 C 176.676 179.680,176.404 180.504,176.402 180.876 C 176.401 181.248,176.227 181.660,176.015 181.791 C 175.803 181.922,175.457 182.607,175.246 183.314 C 174.915 184.424,172.279 191.016,171.214 193.400 C 170.841 194.235,169.299 197.971,167.913 201.400 C 167.468 202.500,166.766 204.140,166.352 205.044 C 165.938 205.948,165.600 206.848,165.601 207.044 C 165.602 207.240,165.248 208.120,164.815 209.000 C 164.381 209.880,163.582 211.773,163.038 213.207 C 162.494 214.641,161.769 216.351,161.427 217.007 C 161.085 217.663,160.804 218.426,160.802 218.701 C 160.801 218.977,160.440 219.875,160.000 220.696 C 159.560 221.516,159.200 222.470,159.200 222.814 C 159.200 223.158,159.035 223.611,158.834 223.820 C 158.633 224.029,157.834 225.820,157.059 227.800 C 156.284 229.780,154.814 233.380,153.793 235.800 C 152.772 238.220,151.793 240.662,151.617 241.227 C 151.441 241.792,151.097 242.602,150.852 243.027 C 150.606 243.452,150.155 244.520,149.849 245.400 C 149.169 247.351,145.413 256.540,144.616 258.200 C 144.300 258.860,143.514 260.750,142.872 262.400 C 140.320 268.949,139.136 271.870,138.415 273.400 C 138.000 274.280,137.533 275.450,137.377 276.000 C 137.220 276.550,136.846 277.355,136.546 277.789 C 136.246 278.223,136.000 278.833,136.000 279.145 C 136.000 279.457,135.662 280.452,135.248 281.356 C 134.834 282.260,134.094 283.990,133.602 285.200 C 133.111 286.410,132.545 287.719,132.345 288.109 C 132.146 288.499,131.619 289.788,131.176 290.973 C 129.787 294.685,132.625 294.400,97.028 294.400 C 66.393 294.400,65.618 294.381,65.214 293.626 C 64.583 292.446,64.706 291.510,65.832 288.948 C 66.399 287.657,67.015 286.240,67.200 285.800 C 67.385 285.360,68.001 283.943,68.568 282.652 C 69.136 281.360,69.600 280.120,69.600 279.895 C 69.600 279.671,69.960 278.703,70.400 277.744 C 70.840 276.785,71.560 275.215,72.000 274.256 C 72.440 273.297,72.800 272.312,72.800 272.067 C 72.800 271.679,73.852 269.124,74.824 267.150 C 75.001 266.792,75.731 264.992,76.447 263.150 C 77.163 261.307,77.986 259.445,78.275 259.011 C 78.564 258.577,78.800 257.944,78.800 257.605 C 78.800 257.266,79.160 256.316,79.600 255.496 C 80.040 254.675,80.400 253.811,80.400 253.577 C 80.400 253.342,80.868 252.127,81.439 250.875 C 83.285 246.834,83.600 246.085,83.600 245.740 C 83.600 245.554,84.330 243.691,85.223 241.601 C 86.116 239.510,87.217 236.900,87.671 235.800 C 88.125 234.700,88.834 233.060,89.248 232.156 C 89.662 231.252,90.000 230.387,90.000 230.234 C 90.000 230.081,90.337 229.201,90.750 228.278 C 91.162 227.355,92.351 224.440,93.392 221.800 C 94.434 219.160,95.446 216.829,95.643 216.620 C 95.839 216.411,96.000 215.981,96.000 215.664 C 96.000 215.347,96.338 214.348,96.752 213.444 C 97.598 211.596,98.435 209.600,100.800 203.800 C 101.697 201.600,102.784 198.945,103.215 197.900 C 103.647 196.855,104.382 195.055,104.848 193.900 C 105.314 192.745,106.034 191.060,106.448 190.156 C 106.862 189.252,107.200 188.228,107.200 187.880 C 107.200 187.532,107.367 187.144,107.571 187.018 C 107.775 186.892,108.156 186.116,108.418 185.294 C 108.680 184.472,109.167 183.170,109.500 182.400 C 111.165 178.553,111.566 177.575,112.616 174.800 C 113.240 173.150,113.877 171.620,114.030 171.400 C 114.184 171.180,114.791 169.740,115.380 168.200 C 115.968 166.660,116.799 164.660,117.225 163.756 C 117.651 162.852,118.000 161.987,118.000 161.834 C 118.000 161.681,118.337 160.801,118.748 159.878 C 119.160 158.955,119.988 156.953,120.590 155.428 C 121.191 153.904,121.843 152.374,122.038 152.028 C 122.234 151.683,122.645 150.680,122.951 149.800 C 123.819 147.309,127.551 138.321,128.209 137.138 C 128.534 136.554,128.800 135.856,128.800 135.586 C 128.800 135.316,129.535 133.364,130.434 131.248 C 131.332 129.131,132.441 126.500,132.898 125.400 C 133.355 124.300,134.031 122.680,134.400 121.800 C 135.497 119.185,136.750 116.125,137.553 114.100 C 139.043 110.341,140.109 107.771,140.848 106.156 C 141.262 105.252,141.600 104.253,141.600 103.936 C 141.600 103.619,141.761 103.189,141.957 102.980 C 142.154 102.771,143.166 100.440,144.208 97.800 C 145.249 95.160,146.528 92.083,147.050 90.961 C 147.573 89.840,148.000 88.661,148.000 88.341 C 148.000 88.022,148.161 87.589,148.357 87.380 C 148.554 87.171,149.565 84.840,150.604 82.200 C 151.644 79.560,152.727 76.860,153.012 76.200 C 153.700 74.606,155.484 70.287,156.481 67.800 C 156.922 66.700,157.523 65.260,157.817 64.600 C 158.453 63.174,159.831 59.688,160.149 58.700 C 160.484 57.661,225.474 57.607,225.873 58.645 M241.519 66.502 C 241.748 66.778,242.065 67.543,242.222 68.202 C 242.380 68.861,242.742 69.850,243.027 70.400 C 243.965 72.208,245.600 75.944,245.599 76.275 C 245.598 76.454,245.984 77.410,246.457 78.400 C 247.432 80.444,247.644 80.933,250.189 87.000 C 251.204 89.420,252.386 92.140,252.817 93.044 C 253.248 93.948,253.600 94.878,253.600 95.111 C 253.600 95.344,253.861 96.045,254.180 96.668 C 254.500 97.290,255.103 98.610,255.522 99.600 C 258.521 106.695,259.765 109.607,260.394 111.000 C 260.792 111.880,261.520 113.590,262.013 114.800 C 262.506 116.010,263.150 117.540,263.445 118.200 C 263.739 118.860,264.803 121.380,265.808 123.800 C 266.814 126.220,267.789 128.483,267.977 128.828 C 268.164 129.174,268.806 130.704,269.404 132.228 C 270.430 134.846,271.118 136.454,272.810 140.200 C 273.207 141.080,274.011 142.970,274.597 144.400 C 275.182 145.830,275.917 147.585,276.230 148.300 C 276.544 149.015,277.056 150.185,277.370 150.900 C 277.683 151.615,278.418 153.370,279.003 154.800 C 280.099 157.478,280.423 158.217,282.174 162.039 C 282.738 163.270,283.200 164.470,283.200 164.706 C 283.200 164.942,283.461 165.645,283.780 166.268 C 284.509 167.688,285.632 170.246,287.000 173.600 C 287.583 175.030,288.424 177.010,288.869 178.000 C 290.261 181.102,290.702 182.125,291.797 184.800 C 292.803 187.257,293.209 188.209,294.574 191.300 C 294.890 192.015,295.710 193.950,296.398 195.600 C 297.990 199.423,298.126 199.739,299.368 202.475 C 299.935 203.727,300.400 204.885,300.400 205.049 C 300.400 205.213,300.777 206.169,301.239 207.174 C 301.700 208.178,302.354 209.630,302.693 210.400 C 303.031 211.170,303.629 212.520,304.020 213.400 C 304.412 214.280,305.211 216.170,305.797 217.600 C 306.382 219.030,307.099 220.740,307.389 221.400 C 307.680 222.060,308.315 223.590,308.800 224.800 C 309.629 226.866,310.215 228.231,311.715 231.600 C 312.058 232.370,312.821 234.170,313.410 235.600 C 313.999 237.030,314.823 238.940,315.240 239.844 C 315.658 240.748,316.000 241.648,315.999 241.844 C 315.998 242.040,316.391 243.010,316.871 244.000 C 317.351 244.990,317.970 246.340,318.247 247.000 C 318.524 247.660,319.108 249.010,319.545 250.000 C 319.982 250.990,320.807 252.970,321.380 254.400 C 321.952 255.830,322.577 257.283,322.769 257.628 C 322.960 257.974,323.608 259.504,324.207 261.028 C 324.807 262.553,325.883 265.060,326.598 266.600 C 327.313 268.140,328.032 269.832,328.195 270.361 C 328.359 270.889,329.192 272.842,330.046 274.701 C 330.901 276.559,331.600 278.235,331.600 278.425 C 331.600 278.614,332.230 280.097,333.000 281.719 C 333.770 283.341,334.401 284.833,334.402 285.034 C 334.403 285.235,335.133 286.840,336.025 288.600 C 337.306 291.126,337.596 292.074,337.406 293.100 L 337.164 294.400 303.017 294.400 L 268.871 294.400 267.863 293.202 C 267.309 292.543,266.737 291.598,266.591 291.102 C 266.165 289.646,264.501 285.485,263.827 284.193 C 263.485 283.537,263.204 282.774,263.202 282.499 C 263.201 282.223,262.840 281.325,262.400 280.504 C 261.960 279.684,261.600 278.767,261.600 278.468 C 261.600 278.168,261.336 277.446,261.013 276.862 C 260.689 276.278,259.960 274.630,259.392 273.200 C 258.824 271.770,258.120 270.060,257.827 269.400 C 257.534 268.740,256.913 267.340,256.447 266.289 C 255.981 265.238,255.600 264.178,255.600 263.933 C 255.600 263.688,255.221 262.658,254.757 261.644 C 253.013 257.831,252.813 257.361,252.259 255.800 C 251.546 253.789,247.786 244.605,247.019 243.000 C 246.703 242.340,245.701 239.910,244.792 237.600 C 242.328 231.344,241.242 228.727,240.588 227.468 C 240.265 226.845,239.999 226.035,239.997 225.668 C 239.996 225.300,239.637 224.460,239.200 223.800 C 238.763 223.140,238.404 222.350,238.403 222.044 C 238.401 221.738,238.056 220.748,237.634 219.844 C 236.344 217.073,233.600 210.522,233.600 210.213 C 233.600 210.052,233.346 209.354,233.035 208.660 C 232.724 207.967,231.991 206.230,231.406 204.800 C 230.821 203.370,230.086 201.690,229.771 201.068 C 229.457 200.445,229.194 199.725,229.187 199.468 C 229.181 199.210,228.732 198.100,228.191 197.000 C 227.650 195.900,227.206 194.721,227.204 194.380 C 227.202 194.039,227.037 193.589,226.837 193.380 C 226.638 193.171,225.884 191.470,225.163 189.600 C 224.441 187.730,223.614 185.845,223.325 185.411 C 223.036 184.977,222.799 184.347,222.798 184.011 C 222.796 183.675,222.515 182.863,222.173 182.207 C 221.831 181.551,221.097 179.841,220.541 178.407 C 219.986 176.973,218.847 174.180,218.010 172.200 C 217.173 170.220,216.030 167.427,215.469 165.993 C 214.908 164.559,214.169 162.849,213.827 162.193 C 213.485 161.537,213.204 160.780,213.202 160.511 C 213.200 160.082,212.149 157.515,211.163 155.529 C 210.979 155.160,210.177 153.180,209.380 151.129 C 208.584 149.078,207.767 147.229,207.566 147.020 C 206.930 146.360,207.169 143.655,208.000 142.104 C 208.440 141.284,208.806 140.339,208.813 140.006 C 208.820 139.673,209.090 139.051,209.413 138.624 C 209.736 138.196,210.006 137.566,210.013 137.224 C 210.019 136.881,210.468 135.700,211.009 134.600 C 211.550 133.500,211.994 132.321,211.996 131.980 C 211.998 131.639,212.163 131.189,212.363 130.980 C 212.562 130.771,213.316 129.070,214.037 127.200 C 214.759 125.330,215.586 123.445,215.875 123.011 C 216.164 122.577,216.400 121.967,216.400 121.655 C 216.400 121.343,216.738 120.348,217.152 119.444 C 217.566 118.540,218.307 116.810,218.800 115.600 C 219.293 114.390,220.034 112.660,220.448 111.756 C 220.862 110.852,221.200 109.853,221.200 109.536 C 221.200 109.219,221.365 108.789,221.566 108.580 C 221.767 108.371,222.562 106.580,223.334 104.600 C 224.105 102.620,225.019 100.460,225.365 99.800 C 225.712 99.140,225.996 98.358,225.998 98.062 C 225.999 97.766,226.267 97.046,226.593 96.462 C 226.920 95.878,228.003 93.330,229.000 90.800 C 229.997 88.270,231.080 85.722,231.407 85.138 C 231.733 84.554,232.000 83.862,232.000 83.599 C 232.000 83.336,232.254 82.554,232.565 81.860 C 233.151 80.554,234.686 76.866,236.087 73.400 C 236.532 72.300,237.213 70.680,237.601 69.800 C 237.989 68.920,238.421 67.705,238.561 67.100 C 238.841 65.890,240.699 65.514,241.519 66.502 " stroke="none" fill="#040404" fill-rule="evenodd"></path><path id="path2" d="M160.149 58.700 C 159.831 59.688,158.453 63.174,157.817 64.600 C 157.523 65.260,156.922 66.700,156.481 67.800 C 155.484 70.287,153.700 74.606,153.012 76.200 C 152.727 76.860,151.644 79.560,150.604 82.200 C 149.565 84.840,148.554 87.171,148.357 87.380 C 148.161 87.589,148.000 88.022,148.000 88.341 C 148.000 88.661,147.573 89.840,147.050 90.961 C 146.528 92.083,145.249 95.160,144.208 97.800 C 143.166 100.440,142.154 102.771,141.957 102.980 C 141.761 103.189,141.600 103.619,141.600 103.936 C 141.600 104.253,141.262 105.252,140.848 106.156 C 140.109 107.771,139.043 110.341,137.553 114.100 C 136.750 116.125,135.497 119.185,134.400 121.800 C 134.031 122.680,133.355 124.300,132.898 125.400 C 132.441 126.500,131.332 129.131,130.434 131.248 C 129.535 133.364,128.800 135.316,128.800 135.586 C 128.800 135.856,128.534 136.554,128.209 137.138 C 127.551 138.321,123.819 147.309,122.951 149.800 C 122.645 150.680,122.234 151.683,122.038 152.028 C 121.843 152.374,121.191 153.904,120.590 155.428 C 119.988 156.953,119.160 158.955,118.748 159.878 C 118.337 160.801,118.000 161.681,118.000 161.834 C 118.000 161.987,117.651 162.852,117.225 163.756 C 116.799 164.660,115.968 166.660,115.380 168.200 C 114.791 169.740,114.184 171.180,114.030 171.400 C 113.877 171.620,113.240 173.150,112.616 174.800 C 111.566 177.575,111.165 178.553,109.500 182.400 C 109.167 183.170,108.680 184.472,108.418 185.294 C 108.156 186.116,107.775 186.892,107.571 187.018 C 107.367 187.144,107.200 187.532,107.200 187.880 C 107.200 188.228,106.862 189.252,106.448 190.156 C 106.034 191.060,105.314 192.745,104.848 193.900 C 104.382 195.055,103.647 196.855,103.215 197.900 C 102.784 198.945,101.697 201.600,100.800 203.800 C 98.435 209.600,97.598 211.596,96.752 213.444 C 96.338 214.348,96.000 215.347,96.000 215.664 C 96.000 215.981,95.839 216.411,95.643 216.620 C 95.446 216.829,94.434 219.160,93.392 221.800 C 92.351 224.440,91.162 227.355,90.750 228.278 C 90.337 229.201,90.000 230.081,90.000 230.234 C 90.000 230.387,89.662 231.252,89.248 232.156 C 88.834 233.060,88.125 234.700,87.671 235.800 C 87.217 236.900,86.116 239.510,85.223 241.601 C 84.330 243.691,83.600 245.554,83.600 245.740 C 83.600 246.085,83.285 246.834,81.439 250.875 C 80.868 252.127,80.400 253.342,80.400 253.577 C 80.400 253.811,80.040 254.675,79.600 255.496 C 79.160 256.316,78.800 257.266,78.800 257.605 C 78.800 257.944,78.564 258.577,78.275 259.011 C 77.986 259.445,77.163 261.307,76.447 263.150 C 75.731 264.992,75.001 266.792,74.824 267.150 C 73.852 269.124,72.800 271.679,72.800 272.067 C 72.800 272.312,72.440 273.297,72.000 274.256 C 71.560 275.215,70.840 276.785,70.400 277.744 C 69.960 278.703,69.600 279.671,69.600 279.895 C 69.600 280.120,69.136 281.360,68.568 282.652 C 68.001 283.943,67.385 285.360,67.200 285.800 C 67.015 286.240,66.399 287.657,65.832 288.948 C 64.706 291.510,64.583 292.446,65.214 293.626 C 65.618 294.381,66.393 294.400,97.028 294.400 C 132.625 294.400,129.787 294.685,131.176 290.973 C 131.619 289.788,132.146 288.499,132.345 288.109 C 132.545 287.719,133.111 286.410,133.602 285.200 C 134.094 283.990,134.834 282.260,135.248 281.356 C 135.662 280.452,136.000 279.457,136.000 279.145 C 136.000 278.833,136.246 278.223,136.546 277.789 C 136.846 277.355,137.220 276.550,137.377 276.000 C 137.533 275.450,138.000 274.280,138.415 273.400 C 139.136 271.870,140.320 268.949,142.872 262.400 C 143.514 260.750,144.300 258.860,144.616 258.200 C 145.413 256.540,149.169 247.351,149.849 245.400 C 150.155 244.520,150.606 243.452,150.852 243.027 C 151.097 242.602,151.441 241.792,151.617 241.227 C 151.793 240.662,152.772 238.220,153.793 235.800 C 154.814 233.380,156.284 229.780,157.059 227.800 C 157.834 225.820,158.633 224.029,158.834 223.820 C 159.035 223.611,159.200 223.158,159.200 222.814 C 159.200 222.470,159.560 221.516,160.000 220.696 C 160.440 219.875,160.801 218.977,160.802 218.701 C 160.804 218.426,161.085 217.663,161.427 217.007 C 161.769 216.351,162.494 214.641,163.038 213.207 C 163.582 211.773,164.381 209.880,164.815 209.000 C 165.248 208.120,165.602 207.240,165.601 207.044 C 165.600 206.848,165.938 205.948,166.352 205.044 C 166.766 204.140,167.468 202.500,167.913 201.400 C 169.299 197.971,170.841 194.235,171.214 193.400 C 172.279 191.016,174.915 184.424,175.246 183.314 C 175.457 182.607,175.803 181.922,176.015 181.791 C 176.227 181.660,176.401 181.248,176.402 180.876 C 176.404 180.504,176.676 179.680,177.007 179.045 C 177.338 178.410,178.798 174.900,180.251 171.245 C 181.704 167.590,183.127 164.060,183.414 163.400 C 184.961 159.834,185.748 157.946,186.666 155.600 C 187.225 154.170,188.023 152.268,188.441 151.374 C 188.858 150.479,189.200 149.599,189.200 149.418 C 189.200 149.236,189.538 148.348,189.952 147.444 C 190.366 146.540,191.107 144.810,191.600 143.600 C 192.093 142.390,192.834 140.660,193.248 139.756 C 193.662 138.852,194.000 137.853,194.000 137.536 C 194.000 137.219,194.165 136.789,194.366 136.580 C 194.567 136.371,195.392 134.490,196.200 132.400 C 197.008 130.310,197.833 128.429,198.034 128.220 C 198.235 128.011,198.406 127.561,198.414 127.220 C 198.421 126.879,198.775 125.880,199.200 125.000 C 199.625 124.120,199.979 123.240,199.986 123.044 C 199.994 122.848,200.360 121.903,200.800 120.944 C 201.240 119.985,201.960 118.415,202.400 117.456 C 202.840 116.497,203.200 115.529,203.200 115.305 C 203.200 114.944,203.672 113.805,205.839 108.940 C 206.147 108.246,206.400 107.546,206.400 107.383 C 206.400 107.221,206.738 106.348,207.152 105.444 C 207.566 104.540,208.269 102.900,208.714 101.800 C 209.160 100.700,210.193 98.180,211.011 96.200 C 211.829 94.220,212.931 91.520,213.461 90.200 C 213.990 88.880,214.688 87.290,215.012 86.668 C 215.335 86.045,215.600 85.352,215.600 85.128 C 215.600 84.904,215.854 84.154,216.165 83.460 C 216.786 82.076,218.451 78.069,219.639 75.100 C 221.406 70.687,222.135 68.910,222.801 67.400 C 224.868 62.709,226.093 59.218,225.873 58.645 C 225.474 57.607,160.484 57.661,160.149 58.700 M224.724 59.300 C 224.798 59.684,224.419 60.944,223.881 62.100 C 223.344 63.255,222.412 65.460,221.811 67.000 C 221.210 68.540,220.557 69.971,220.359 70.180 C 220.162 70.389,219.998 70.839,219.996 71.180 C 219.994 71.521,219.550 72.700,219.009 73.800 C 218.468 74.900,218.019 76.079,218.013 76.420 C 218.006 76.761,217.838 77.211,217.640 77.420 C 217.442 77.629,216.203 80.500,214.887 83.800 C 211.152 93.169,210.091 95.734,209.424 97.012 C 209.084 97.666,208.804 98.420,208.802 98.689 C 208.801 98.958,208.419 100.038,207.952 101.089 C 207.486 102.140,206.788 103.720,206.400 104.600 C 206.012 105.480,205.314 107.060,204.848 108.111 C 204.381 109.162,204.000 110.208,204.000 110.435 C 204.000 110.663,203.532 111.873,202.961 113.125 C 201.048 117.313,200.800 117.918,200.800 118.399 C 200.800 118.662,200.533 119.354,200.207 119.938 C 199.880 120.522,198.797 123.070,197.800 125.600 C 196.803 128.130,195.720 130.678,195.393 131.262 C 195.067 131.846,194.800 132.546,194.800 132.818 C 194.800 133.090,194.462 134.052,194.048 134.956 C 193.346 136.489,192.972 137.392,190.754 142.900 C 190.289 144.055,189.756 145.302,189.569 145.671 C 189.382 146.040,188.577 148.020,187.780 150.071 C 186.984 152.122,186.167 153.971,185.966 154.180 C 185.765 154.389,185.600 154.842,185.600 155.186 C 185.600 155.530,185.240 156.484,184.800 157.304 C 184.360 158.125,184.000 158.989,184.000 159.223 C 184.000 159.667,182.369 163.416,181.373 165.262 C 181.058 165.846,180.799 166.656,180.799 167.062 C 180.798 167.468,180.438 168.389,179.999 169.110 C 179.559 169.830,179.200 170.643,179.200 170.916 C 179.200 171.189,178.840 172.084,178.400 172.904 C 177.960 173.725,177.600 174.603,177.600 174.855 C 177.600 175.106,177.262 176.052,176.848 176.956 C 176.434 177.860,175.696 179.590,175.207 180.800 C 174.718 182.010,174.074 183.540,173.776 184.200 C 172.608 186.786,169.918 193.468,169.554 194.686 C 169.343 195.393,168.997 196.078,168.785 196.209 C 168.573 196.340,168.400 196.759,168.400 197.139 C 168.400 197.520,168.085 198.454,167.699 199.215 C 167.314 199.977,166.485 201.950,165.858 203.600 C 165.231 205.250,164.563 206.902,164.373 207.271 C 164.184 207.640,163.386 209.588,162.600 211.600 C 161.814 213.612,161.018 215.560,160.831 215.929 C 160.644 216.298,160.121 217.500,159.669 218.600 C 159.216 219.700,158.116 222.310,157.223 224.401 C 156.330 226.491,155.600 228.435,155.600 228.721 C 155.600 229.007,155.256 229.907,154.836 230.721 C 154.415 231.534,153.674 233.190,153.188 234.400 C 152.702 235.610,151.966 237.340,151.552 238.244 C 151.138 239.148,150.800 240.147,150.800 240.464 C 150.800 240.781,150.638 241.211,150.441 241.420 C 150.243 241.629,149.607 243.060,149.027 244.600 C 148.448 246.140,147.633 248.120,147.217 249.000 C 146.801 249.880,146.333 251.050,146.177 251.600 C 146.020 252.150,145.646 252.955,145.346 253.389 C 145.046 253.823,144.800 254.432,144.800 254.741 C 144.800 255.273,142.438 261.105,140.807 264.600 C 140.397 265.480,139.933 266.650,139.777 267.200 C 139.620 267.750,139.246 268.555,138.946 268.989 C 138.646 269.423,138.400 270.033,138.400 270.345 C 138.400 270.657,138.062 271.652,137.648 272.556 C 137.234 273.460,136.533 275.100,136.089 276.200 C 135.645 277.300,134.633 279.700,133.841 281.534 C 133.048 283.367,132.394 285.077,132.387 285.334 C 132.381 285.590,131.932 286.700,131.391 287.800 C 130.850 288.900,130.406 290.001,130.404 290.246 C 130.402 290.491,130.027 291.166,129.571 291.746 L 128.742 292.800 97.358 292.800 C 63.070 292.800,64.516 292.905,66.362 290.558 C 66.823 289.972,67.200 289.306,67.200 289.077 C 67.200 288.567,68.926 284.218,69.773 282.593 C 70.115 281.937,70.396 281.198,70.398 280.951 C 70.400 280.540,71.226 278.452,72.595 275.400 C 73.277 273.878,74.824 270.100,76.034 267.000 C 76.549 265.680,77.202 264.245,77.485 263.811 C 77.768 263.377,78.000 262.767,78.000 262.455 C 78.000 262.143,78.338 261.148,78.752 260.244 C 79.166 259.340,79.868 257.700,80.313 256.600 C 81.398 253.914,83.151 249.676,83.786 248.200 C 84.070 247.540,84.793 245.740,85.392 244.200 C 85.991 242.660,86.643 241.229,86.841 241.020 C 87.038 240.811,87.206 240.361,87.213 240.020 C 87.219 239.679,87.668 238.500,88.209 237.400 C 88.750 236.300,89.194 235.190,89.196 234.932 C 89.198 234.675,89.457 233.955,89.771 233.332 C 90.086 232.710,90.816 231.030,91.394 229.600 C 91.972 228.170,92.705 226.522,93.023 225.938 C 93.340 225.354,93.600 224.654,93.600 224.382 C 93.600 224.110,93.938 223.148,94.352 222.244 C 95.061 220.694,95.640 219.295,97.641 214.300 C 98.104 213.145,98.725 211.660,99.021 211.000 C 99.317 210.340,100.032 208.630,100.610 207.200 C 101.188 205.770,102.007 203.868,102.430 202.974 C 102.854 202.079,103.200 201.134,103.200 200.872 C 103.200 200.611,103.560 199.725,104.000 198.904 C 104.440 198.084,104.800 197.222,104.800 196.991 C 104.800 196.759,105.160 195.863,105.600 195.000 C 106.040 194.137,106.400 193.237,106.400 193.000 C 106.400 192.763,106.760 191.863,107.200 191.000 C 107.640 190.137,108.000 189.145,108.000 188.795 C 108.000 188.446,108.169 187.989,108.375 187.780 C 108.581 187.571,109.312 185.960,109.999 184.200 C 110.686 182.440,111.488 180.460,111.783 179.800 C 112.077 179.140,112.689 177.700,113.143 176.600 C 113.598 175.500,114.696 172.854,115.585 170.720 C 116.473 168.587,117.200 166.642,117.200 166.400 C 117.200 166.157,117.544 165.293,117.964 164.479 C 118.385 163.666,119.121 162.010,119.601 160.800 C 120.080 159.590,120.726 158.090,121.036 157.468 C 121.346 156.845,121.606 156.125,121.613 155.868 C 121.619 155.610,122.068 154.500,122.609 153.400 C 123.150 152.300,123.594 151.190,123.596 150.932 C 123.598 150.675,123.861 149.955,124.180 149.332 C 124.889 147.950,125.966 145.395,127.186 142.200 C 128.108 139.788,128.918 137.887,130.400 134.656 C 130.840 133.697,131.200 132.657,131.200 132.345 C 131.200 132.033,131.446 131.423,131.746 130.989 C 132.046 130.555,132.427 129.750,132.591 129.200 C 132.755 128.650,133.123 127.660,133.410 127.000 C 134.019 125.595,135.735 121.450,136.887 118.600 C 137.332 117.500,138.015 115.880,138.404 115.000 C 138.793 114.120,139.961 111.240,140.999 108.600 C 142.037 105.960,143.046 103.629,143.243 103.420 C 143.439 103.211,143.600 102.788,143.600 102.480 C 143.600 102.173,143.853 101.354,144.161 100.660 C 146.342 95.763,146.800 94.651,146.802 94.252 C 146.804 94.003,147.085 93.263,147.427 92.607 C 147.769 91.951,148.496 90.241,149.042 88.807 C 149.589 87.373,150.291 85.660,150.603 85.000 C 150.915 84.340,151.998 81.730,153.010 79.200 C 154.022 76.670,155.198 73.868,155.625 72.974 C 156.051 72.079,156.400 71.084,156.400 70.763 C 156.400 70.441,156.637 69.823,156.926 69.389 C 157.215 68.955,158.340 66.308,159.426 63.506 L 161.400 58.412 192.995 58.506 C 222.716 58.594,224.597 58.641,224.724 59.300 M238.561 67.100 C 238.421 67.705,237.989 68.920,237.601 69.800 C 237.213 70.680,236.532 72.300,236.087 73.400 C 234.686 76.866,233.151 80.554,232.565 81.860 C 232.254 82.554,232.000 83.336,232.000 83.599 C 232.000 83.862,231.733 84.554,231.407 85.138 C 231.080 85.722,229.997 88.270,229.000 90.800 C 228.003 93.330,226.920 95.878,226.593 96.462 C 226.267 97.046,225.999 97.766,225.998 98.062 C 225.996 98.358,225.712 99.140,225.365 99.800 C 225.019 100.460,224.105 102.620,223.334 104.600 C 222.562 106.580,221.767 108.371,221.566 108.580 C 221.365 108.789,221.200 109.219,221.200 109.536 C 221.200 109.853,220.862 110.852,220.448 111.756 C 220.034 112.660,219.293 114.390,218.800 115.600 C 218.307 116.810,217.566 118.540,217.152 119.444 C 216.738 120.348,216.400 121.343,216.400 121.655 C 216.400 121.967,216.164 122.577,215.875 123.011 C 215.586 123.445,214.759 125.330,214.037 127.200 C 213.316 129.070,212.562 130.771,212.363 130.980 C 212.163 131.189,211.998 131.639,211.996 131.980 C 211.994 132.321,211.550 133.500,211.009 134.600 C 210.468 135.700,210.019 136.881,210.013 137.224 C 210.006 137.566,209.736 138.196,209.413 138.624 C 209.090 139.051,208.820 139.673,208.813 140.006 C 208.806 140.339,208.440 141.284,208.000 142.104 C 207.169 143.655,206.930 146.360,207.566 147.020 C 207.767 147.229,208.584 149.078,209.380 151.129 C 210.177 153.180,210.979 155.160,211.163 155.529 C 212.149 157.515,213.200 160.082,213.202 160.511 C 213.204 160.780,213.485 161.537,213.827 162.193 C 214.169 162.849,214.908 164.559,215.469 165.993 C 216.030 167.427,217.173 170.220,218.010 172.200 C 218.847 174.180,219.986 176.973,220.541 178.407 C 221.097 179.841,221.831 181.551,222.173 182.207 C 222.515 182.863,222.796 183.675,222.798 184.011 C 222.799 184.347,223.036 184.977,223.325 185.411 C 223.614 185.845,224.441 187.730,225.163 189.600 C 225.884 191.470,226.638 193.171,226.837 193.380 C 227.037 193.589,227.202 194.039,227.204 194.380 C 227.206 194.721,227.650 195.900,228.191 197.000 C 228.732 198.100,229.181 199.210,229.187 199.468 C 229.194 199.725,229.457 200.445,229.771 201.068 C 230.086 201.690,230.821 203.370,231.406 204.800 C 231.991 206.230,232.724 207.967,233.035 208.660 C 233.346 209.354,233.600 210.052,233.600 210.213 C 233.600 210.522,236.344 217.073,237.634 219.844 C 238.056 220.748,238.401 221.738,238.403 222.044 C 238.404 222.350,238.783 223.140,239.245 223.800 C 239.707 224.460,239.952 224.640,239.791 224.200 C 238.740 221.333,237.888 219.348,237.570 219.020 C 237.366 218.811,237.200 218.373,237.200 218.046 C 237.200 217.720,236.850 216.721,236.422 215.826 C 235.995 214.932,234.442 211.230,232.972 207.600 C 231.502 203.970,229.854 199.920,229.309 198.600 C 228.155 195.802,226.909 192.702,226.255 191.000 C 226.001 190.340,225.678 189.620,225.537 189.400 C 225.396 189.180,224.638 187.351,223.851 185.336 C 223.065 183.321,222.157 181.071,221.835 180.336 C 221.512 179.601,220.713 177.650,220.060 176.000 C 219.407 174.350,217.851 170.570,216.603 167.600 C 215.355 164.630,214.076 161.480,213.762 160.600 C 213.447 159.720,212.941 158.460,212.636 157.800 C 212.332 157.140,211.704 155.655,211.241 154.500 C 209.132 149.235,208.669 148.132,208.152 147.138 C 207.210 145.327,208.383 140.881,211.218 135.521 C 211.648 134.707,212.000 133.829,212.000 133.568 C 212.000 133.308,212.735 131.364,213.634 129.248 C 214.532 127.131,215.631 124.500,216.075 123.400 C 216.519 122.300,217.128 120.860,217.429 120.200 C 217.730 119.540,219.152 116.030,220.590 112.400 C 222.027 108.770,223.383 105.487,223.602 105.105 C 223.821 104.723,224.247 103.733,224.549 102.905 C 225.272 100.921,227.879 94.536,228.617 92.940 C 228.938 92.246,229.200 91.554,229.200 91.400 C 229.200 91.246,229.454 90.554,229.765 89.860 C 230.447 88.339,231.998 84.602,233.192 81.600 C 233.674 80.390,234.412 78.668,234.834 77.774 C 235.255 76.879,235.600 75.880,235.600 75.554 C 235.600 75.227,235.763 74.789,235.963 74.580 C 236.162 74.371,236.912 72.670,237.629 70.800 C 239.424 66.118,240.962 65.122,241.799 68.100 C 242.038 68.949,243.413 72.345,244.595 75.000 C 244.888 75.660,245.881 78.000,246.800 80.200 C 248.624 84.564,249.018 85.472,250.565 88.875 C 251.134 90.127,251.600 91.297,251.599 91.475 C 251.598 91.654,251.948 92.520,252.376 93.400 C 252.804 94.280,253.902 96.800,254.817 99.000 C 257.820 106.220,259.582 110.052,259.600 109.400 C 259.607 109.180,258.863 107.290,257.947 105.200 C 257.032 103.110,255.940 100.590,255.522 99.600 C 255.103 98.610,254.500 97.290,254.180 96.668 C 253.861 96.045,253.600 95.344,253.600 95.111 C 253.600 94.878,253.248 93.948,252.817 93.044 C 252.386 92.140,251.204 89.420,250.189 87.000 C 247.644 80.933,247.432 80.444,246.457 78.400 C 245.984 77.410,245.598 76.454,245.599 76.275 C 245.600 75.944,243.965 72.208,243.027 70.400 C 242.742 69.850,242.380 68.861,242.222 68.202 C 241.628 65.720,239.059 64.947,238.561 67.100 M259.603 110.086 C 259.601 110.244,259.862 110.964,260.182 111.686 C 260.502 112.409,261.872 115.610,263.227 118.800 C 266.511 126.531,266.564 126.655,267.761 129.275 C 268.332 130.527,268.800 131.759,268.800 132.014 C 268.800 132.268,269.056 132.954,269.369 133.538 C 269.957 134.635,270.701 136.321,272.574 140.800 C 273.172 142.230,273.910 143.940,274.214 144.600 C 274.517 145.260,275.506 147.600,276.411 149.800 C 277.316 152.000,278.387 154.520,278.792 155.400 C 279.197 156.280,280.280 158.800,281.200 161.000 C 282.119 163.200,283.112 165.540,283.405 166.200 C 283.699 166.860,284.418 168.570,285.003 170.000 C 286.098 172.675,286.539 173.698,287.931 176.800 C 288.376 177.790,289.207 179.770,289.780 181.200 C 290.352 182.630,290.977 184.083,291.169 184.428 C 291.360 184.774,292.006 186.304,292.604 187.828 C 293.202 189.353,294.018 191.320,294.418 192.200 C 294.819 193.080,296.257 196.410,297.614 199.600 C 298.972 202.790,301.043 207.650,302.217 210.400 C 303.391 213.150,305.185 217.380,306.204 219.800 C 307.223 222.220,308.299 224.740,308.595 225.400 C 308.891 226.060,309.616 227.770,310.207 229.200 C 310.797 230.630,311.640 232.610,312.079 233.600 C 313.420 236.624,313.882 237.712,314.800 240.000 C 315.285 241.210,315.920 242.740,316.210 243.400 C 316.501 244.060,317.577 246.580,318.601 249.000 C 319.626 251.420,320.706 253.940,321.001 254.600 C 321.297 255.260,322.020 256.970,322.608 258.400 C 324.104 262.038,325.188 264.280,325.194 263.751 C 325.200 263.309,324.113 260.553,323.005 258.200 C 322.695 257.540,321.968 255.830,321.390 254.400 C 320.812 252.970,319.982 250.990,319.545 250.000 C 319.108 249.010,318.524 247.660,318.247 247.000 C 317.970 246.340,317.351 244.990,316.871 244.000 C 316.391 243.010,315.998 242.040,315.999 241.844 C 316.000 241.648,315.658 240.748,315.240 239.844 C 314.823 238.940,313.999 237.030,313.410 235.600 C 312.821 234.170,312.058 232.370,311.715 231.600 C 310.215 228.231,309.629 226.866,308.800 224.800 C 308.315 223.590,307.680 222.060,307.389 221.400 C 307.099 220.740,306.382 219.030,305.797 217.600 C 305.211 216.170,304.412 214.280,304.020 213.400 C 303.629 212.520,303.031 211.170,302.693 210.400 C 302.354 209.630,301.700 208.178,301.239 207.174 C 300.777 206.169,300.400 205.213,300.400 205.049 C 300.400 204.885,299.935 203.727,299.368 202.475 C 298.126 199.739,297.990 199.423,296.398 195.600 C 295.710 193.950,294.890 192.015,294.574 191.300 C 293.209 188.209,292.803 187.257,291.797 184.800 C 290.702 182.125,290.261 181.102,288.869 178.000 C 288.424 177.010,287.583 175.030,287.000 173.600 C 285.632 170.246,284.509 167.688,283.780 166.268 C 283.461 165.645,283.200 164.942,283.200 164.706 C 283.200 164.470,282.738 163.270,282.174 162.039 C 280.423 158.217,280.099 157.478,279.003 154.800 C 278.418 153.370,277.683 151.615,277.370 150.900 C 277.056 150.185,276.544 149.015,276.230 148.300 C 275.917 147.585,275.182 145.830,274.597 144.400 C 274.011 142.970,273.207 141.080,272.810 140.200 C 271.118 136.454,270.430 134.846,269.404 132.228 C 268.806 130.704,268.164 129.174,267.977 128.828 C 267.789 128.483,266.814 126.220,265.808 123.800 C 263.924 119.265,263.530 118.348,262.061 115.089 C 261.587 114.038,261.199 112.958,261.197 112.689 C 261.196 112.420,260.837 111.660,260.400 111.000 C 259.963 110.340,259.604 109.929,259.603 110.086 M240.016 225.668 C 240.007 226.035,240.268 226.845,240.595 227.468 C 240.922 228.090,241.577 229.550,242.049 230.712 C 242.522 231.874,243.012 232.722,243.137 232.596 C 243.262 232.471,243.067 231.791,242.703 231.084 C 242.339 230.378,241.589 228.720,241.037 227.400 C 240.485 226.080,240.025 225.300,240.016 225.668 M243.209 233.373 C 243.199 233.769,246.052 240.978,247.019 243.000 C 247.786 244.605,251.546 253.789,252.259 255.800 C 252.813 257.361,253.013 257.831,254.757 261.644 C 255.221 262.658,255.600 263.688,255.600 263.933 C 255.600 264.178,255.981 265.238,256.447 266.289 C 256.913 267.340,257.534 268.740,257.827 269.400 C 258.120 270.060,258.824 271.770,259.392 273.200 C 259.960 274.630,260.689 276.278,261.013 276.862 C 261.336 277.446,261.600 278.168,261.600 278.468 C 261.600 278.767,261.960 279.684,262.400 280.504 C 262.840 281.325,263.201 282.223,263.202 282.499 C 263.204 282.774,263.485 283.537,263.827 284.193 C 264.501 285.485,266.165 289.646,266.591 291.102 C 266.737 291.598,267.309 292.543,267.863 293.202 L 268.871 294.400 303.017 294.400 L 337.164 294.400 337.406 293.100 C 337.596 292.074,337.306 291.126,336.025 288.600 C 335.133 286.840,334.403 285.235,334.402 285.034 C 334.401 284.833,333.770 283.341,333.000 281.719 C 332.230 280.097,331.600 278.614,331.600 278.425 C 331.600 278.235,330.901 276.559,330.046 274.701 C 329.192 272.842,328.358 270.899,328.195 270.383 C 327.574 268.426,325.572 264.295,325.352 264.515 C 325.225 264.641,325.404 265.252,325.749 265.872 C 326.093 266.493,326.840 268.170,327.408 269.600 C 328.613 272.634,329.406 274.429,330.448 276.479 C 330.862 277.293,331.200 278.173,331.200 278.435 C 331.200 278.698,331.579 279.742,332.043 280.756 C 332.507 281.770,333.121 283.140,333.408 283.800 C 333.696 284.460,334.396 286.024,334.965 287.275 C 335.534 288.527,336.000 289.720,336.000 289.926 C 336.000 290.133,336.270 290.526,336.600 290.800 C 337.379 291.447,337.373 293.048,336.590 293.349 C 336.254 293.478,320.929 293.595,302.534 293.609 L 269.089 293.635 268.145 292.748 C 267.625 292.260,267.197 291.667,267.193 291.430 C 267.189 291.194,266.541 289.470,265.753 287.600 C 264.389 284.363,263.761 282.821,262.046 278.500 C 261.631 277.455,260.658 275.070,259.883 273.200 C 255.054 261.544,253.455 257.620,252.956 256.200 C 252.647 255.320,252.238 254.324,252.048 253.986 C 251.857 253.649,250.848 251.219,249.807 248.586 C 248.765 245.954,247.590 243.080,247.196 242.200 C 246.803 241.320,245.998 239.430,245.407 238.000 C 243.936 234.437,243.220 232.930,243.209 233.373 " stroke="none" fill="#5b4b2a" fill-rule="evenodd"></path><path id="path3" d="M239.327 67.300 C 239.151 67.575,238.799 68.340,238.545 69.000 C 238.292 69.660,237.705 71.145,237.242 72.300 C 236.323 74.592,235.560 76.513,233.626 81.400 C 232.930 83.160,232.107 85.140,231.797 85.800 C 230.925 87.660,227.174 96.811,226.551 98.600 C 226.245 99.480,225.834 100.483,225.638 100.828 C 225.443 101.174,224.794 102.704,224.197 104.228 C 223.600 105.753,222.427 108.620,221.590 110.600 C 220.753 112.580,219.610 115.370,219.050 116.800 C 218.490 118.230,217.204 121.380,216.191 123.800 C 215.179 126.220,213.716 129.820,212.941 131.800 C 212.166 133.780,211.367 135.571,211.166 135.780 C 210.965 135.989,210.800 136.446,210.800 136.795 C 210.800 137.145,210.440 138.137,210.000 139.000 C 209.560 139.863,209.200 140.759,209.200 140.991 C 209.200 141.222,208.840 142.084,208.400 142.904 C 207.466 144.648,207.401 145.523,208.125 146.611 C 208.414 147.045,209.244 148.930,209.968 150.800 C 210.693 152.670,211.401 154.380,211.540 154.600 C 211.679 154.820,211.998 155.540,212.248 156.200 C 213.109 158.473,217.907 170.293,218.923 172.645 C 219.483 173.940,220.393 176.173,220.946 177.607 C 221.499 179.041,222.231 180.751,222.573 181.407 C 222.915 182.063,223.196 182.819,223.198 183.088 C 223.199 183.356,223.542 184.256,223.961 185.088 C 224.379 185.919,225.570 188.760,226.608 191.400 C 227.645 194.040,228.627 196.380,228.789 196.600 C 228.951 196.820,229.277 197.540,229.513 198.200 C 230.315 200.443,233.994 209.660,234.782 211.400 C 234.981 211.840,235.623 213.370,236.209 214.800 C 236.795 216.230,237.507 217.948,237.792 218.619 C 238.077 219.289,238.788 221.089,239.373 222.619 C 239.957 224.148,240.690 225.940,241.001 226.600 C 241.825 228.350,245.596 237.530,246.259 239.400 C 246.571 240.280,247.089 241.540,247.409 242.200 C 248.098 243.618,251.346 251.522,254.354 259.100 C 255.767 262.661,258.033 268.197,258.568 269.400 C 258.862 270.060,259.564 271.773,260.127 273.207 C 260.690 274.641,261.431 276.351,261.773 277.007 C 262.115 277.663,262.396 278.481,262.398 278.824 C 262.399 279.166,262.664 279.796,262.987 280.224 C 263.310 280.651,263.581 281.270,263.590 281.600 C 263.598 281.930,263.888 282.740,264.235 283.400 C 264.581 284.060,265.494 286.220,266.263 288.200 C 267.032 290.180,267.972 292.119,268.351 292.509 C 269.042 293.220,334.767 293.648,336.578 292.953 C 337.219 292.707,337.458 291.600,336.871 291.600 C 336.690 291.600,335.673 289.575,334.611 287.100 C 333.549 284.625,332.362 281.880,331.974 281.000 C 330.563 277.801,325.151 265.026,321.592 256.496 C 320.698 254.353,319.721 252.060,319.422 251.400 C 318.798 250.026,317.741 247.577,316.400 244.400 C 312.348 234.800,310.699 230.936,309.998 229.400 C 309.596 228.520,308.790 226.630,308.206 225.200 C 307.622 223.770,306.989 222.240,306.800 221.800 C 306.611 221.360,305.620 219.020,304.597 216.600 C 302.536 211.725,302.064 210.643,300.839 207.974 C 300.377 206.969,300.000 205.999,300.000 205.818 C 300.000 205.636,299.650 204.748,299.222 203.844 C 298.794 202.940,297.609 200.220,296.588 197.800 C 295.568 195.380,294.372 192.590,293.931 191.600 C 292.985 189.479,292.792 189.023,291.394 185.600 C 290.810 184.170,290.088 182.460,289.790 181.800 C 289.491 181.140,288.418 178.620,287.405 176.200 C 286.392 173.780,285.411 171.517,285.223 171.172 C 285.036 170.826,284.391 169.296,283.789 167.772 C 282.818 165.310,282.172 163.791,280.226 159.400 C 279.934 158.740,279.209 157.030,278.617 155.600 C 278.024 154.170,277.299 152.460,277.005 151.800 C 276.465 150.586,275.240 147.707,270.794 137.200 C 266.899 127.996,263.618 120.302,263.033 119.000 C 262.737 118.340,262.010 116.630,261.419 115.200 C 260.828 113.770,260.188 112.240,259.998 111.800 C 259.807 111.360,258.728 108.840,257.600 106.200 C 256.472 103.560,255.395 101.040,255.207 100.600 C 255.019 100.160,254.400 98.776,253.832 97.525 C 253.265 96.273,252.800 95.041,252.800 94.786 C 252.800 94.532,252.537 93.846,252.216 93.262 C 251.894 92.678,250.801 90.220,249.787 87.800 C 248.773 85.380,247.693 82.860,247.387 82.200 C 247.080 81.540,246.002 79.020,244.991 76.600 C 243.980 74.180,242.914 71.660,242.621 71.000 C 242.328 70.340,241.802 69.125,241.451 68.300 C 240.809 66.791,239.921 66.373,239.327 67.300 M241.070 68.300 C 241.205 68.685,242.114 70.890,243.089 73.200 C 244.065 75.510,245.576 79.110,246.448 81.200 C 247.320 83.290,248.286 85.540,248.594 86.200 C 248.901 86.860,249.984 89.380,250.998 91.800 C 252.013 94.220,253.194 96.940,253.622 97.844 C 254.050 98.748,254.400 99.636,254.400 99.818 C 254.400 99.999,254.777 100.969,255.239 101.974 C 255.700 102.978,256.304 104.340,256.581 105.000 C 256.858 105.660,257.444 107.010,257.884 108.000 C 258.324 108.990,259.053 110.700,259.504 111.800 C 260.396 113.974,263.714 121.806,264.631 123.900 C 264.944 124.615,265.456 125.785,265.770 126.500 C 266.083 127.215,266.818 128.970,267.403 130.400 C 267.988 131.830,268.709 133.540,269.005 134.200 C 269.301 134.860,270.371 137.380,271.382 139.800 C 272.393 142.220,273.472 144.740,273.780 145.400 C 274.087 146.060,275.085 148.400,275.997 150.600 C 276.909 152.800,277.902 155.140,278.204 155.800 C 278.506 156.460,279.584 158.980,280.598 161.400 C 281.613 163.820,282.794 166.540,283.222 167.444 C 283.650 168.348,284.000 169.278,284.000 169.511 C 284.000 169.744,284.261 170.445,284.580 171.068 C 285.267 172.407,286.080 174.268,288.572 180.200 C 289.588 182.620,290.663 185.140,290.961 185.800 C 291.258 186.460,292.227 188.710,293.114 190.800 C 295.373 196.126,299.056 204.772,301.975 211.600 C 304.391 217.253,305.171 219.094,309.011 228.200 C 310.032 230.620,311.228 233.410,311.669 234.400 C 312.615 236.521,312.808 236.977,314.206 240.400 C 314.790 241.830,315.512 243.540,315.810 244.200 C 316.109 244.860,317.180 247.380,318.191 249.800 C 319.202 252.220,320.284 254.740,320.594 255.400 C 320.905 256.060,321.623 257.770,322.190 259.200 C 322.756 260.630,323.377 262.083,323.569 262.428 C 323.760 262.774,324.409 264.304,325.011 265.828 C 325.612 267.353,326.546 269.590,327.087 270.800 C 327.627 272.010,328.304 273.540,328.592 274.200 C 328.879 274.860,329.493 276.230,329.957 277.244 C 330.421 278.258,330.800 279.228,330.800 279.400 C 330.800 279.572,331.179 280.542,331.643 281.556 C 334.350 287.475,336.000 291.494,336.000 292.167 C 336.000 292.739,332.777 292.800,302.395 292.800 L 268.790 292.800 268.037 291.100 C 267.624 290.165,266.881 288.410,266.388 287.200 C 265.894 285.990,265.245 284.460,264.944 283.800 C 264.464 282.746,263.473 280.313,260.788 273.600 C 258.314 267.412,252.686 253.605,252.229 252.600 C 251.928 251.940,251.304 250.455,250.841 249.300 C 249.391 245.680,248.298 243.058,247.536 241.374 C 247.131 240.479,246.800 239.599,246.800 239.418 C 246.800 239.236,246.452 238.348,246.027 237.444 C 245.602 236.540,244.717 234.450,244.061 232.800 C 242.301 228.372,238.842 219.987,238.178 218.540 C 237.860 217.846,237.600 217.148,237.600 216.987 C 237.600 216.827,236.865 214.964,235.966 212.848 C 235.068 210.731,234.006 208.190,233.606 207.200 C 232.221 203.772,230.742 200.196,230.380 199.400 C 230.179 198.960,229.042 196.170,227.852 193.200 C 226.663 190.230,225.294 186.900,224.812 185.800 C 224.329 184.700,223.702 183.170,223.419 182.400 C 222.702 180.457,220.085 174.012,219.520 172.800 C 219.044 171.777,218.685 170.908,217.288 167.400 C 215.310 162.431,213.529 158.102,213.011 157.000 C 212.701 156.340,211.785 154.090,210.977 152.000 C 210.169 149.910,209.162 147.508,208.741 146.663 L 207.975 145.126 209.028 142.463 C 209.607 140.998,210.243 139.629,210.441 139.420 C 210.638 139.211,210.800 138.773,210.800 138.446 C 210.800 138.120,211.141 137.121,211.557 136.226 C 212.360 134.501,214.557 129.139,215.419 126.800 C 215.703 126.030,216.218 124.860,216.565 124.200 C 216.912 123.540,217.196 122.847,217.198 122.660 C 217.199 122.474,217.462 121.754,217.783 121.060 C 218.479 119.557,221.090 113.176,221.819 111.200 C 222.103 110.430,222.618 109.260,222.965 108.600 C 223.312 107.940,223.596 107.121,223.598 106.780 C 223.599 106.439,223.761 105.989,223.957 105.780 C 224.154 105.571,225.163 103.240,226.201 100.600 C 227.239 97.960,228.407 95.080,228.796 94.200 C 229.489 92.634,230.488 90.211,232.095 86.200 C 232.535 85.100,233.234 83.460,233.648 82.556 C 234.062 81.652,234.400 80.698,234.400 80.435 C 234.400 80.173,234.755 79.293,235.188 78.479 C 235.621 77.666,236.452 75.748,237.033 74.219 C 237.615 72.689,238.327 70.889,238.616 70.219 C 238.905 69.548,239.239 68.685,239.358 68.300 C 239.477 67.915,239.856 67.600,240.200 67.600 C 240.544 67.600,240.936 67.915,241.070 68.300 " stroke="none" fill="#7c7c7c" fill-rule="evenodd"></path><path id="path4" d="M232.865 82.217 C 232.195 83.688,232.323 84.002,233.047 82.665 C 233.386 82.040,233.588 81.454,233.496 81.363 C 233.405 81.271,233.121 81.656,232.865 82.217 M222.065 108.617 C 221.395 110.088,221.523 110.402,222.247 109.065 C 222.586 108.440,222.788 107.854,222.696 107.763 C 222.605 107.671,222.321 108.056,222.065 108.617 M264.028 121.400 C 264.028 121.620,264.286 122.250,264.600 122.800 C 264.914 123.350,265.172 123.620,265.172 123.400 C 265.172 123.180,264.914 122.550,264.600 122.000 C 264.286 121.450,264.028 121.180,264.028 121.400 M215.665 124.217 C 214.995 125.688,215.123 126.002,215.847 124.665 C 216.186 124.040,216.388 123.454,216.296 123.363 C 216.205 123.271,215.921 123.656,215.665 124.217 M212.865 131.017 C 212.195 132.488,212.323 132.802,213.047 131.465 C 213.386 130.840,213.588 130.254,213.496 130.163 C 213.405 130.071,213.121 130.456,212.865 131.017 M214.028 161.400 C 214.028 161.620,214.286 162.250,214.600 162.800 C 214.914 163.350,215.172 163.620,215.172 163.400 C 215.172 163.180,214.914 162.550,214.600 162.000 C 214.286 161.450,214.028 161.180,214.028 161.400 M229.628 199.400 C 229.628 199.620,229.886 200.250,230.200 200.800 C 230.514 201.350,230.772 201.620,230.772 201.400 C 230.772 201.180,230.514 200.550,230.200 200.000 C 229.886 199.450,229.628 199.180,229.628 199.400 M302.834 212.600 C 302.834 212.820,303.178 213.630,303.600 214.400 C 304.022 215.170,304.366 215.620,304.366 215.400 C 304.366 215.180,304.022 214.370,303.600 213.600 C 303.178 212.830,302.834 212.380,302.834 212.600 M244.834 236.600 C 244.834 236.820,245.178 237.630,245.600 238.400 C 246.022 239.170,246.366 239.620,246.366 239.400 C 246.366 239.180,246.022 238.370,245.600 237.600 C 245.178 236.830,244.834 236.380,244.834 236.600 M252.834 256.200 C 252.834 256.420,253.178 257.230,253.600 258.000 C 254.022 258.770,254.366 259.220,254.366 259.000 C 254.366 258.780,254.022 257.970,253.600 257.200 C 253.178 256.430,252.834 255.980,252.834 256.200 M326.828 269.000 C 326.828 269.220,327.086 269.850,327.400 270.400 C 327.714 270.950,327.972 271.220,327.972 271.000 C 327.972 270.780,327.714 270.150,327.400 269.600 C 327.086 269.050,326.828 268.780,326.828 269.000 M267.200 291.508 C 267.200 291.702,267.625 292.260,268.145 292.748 L 269.089 293.635 302.595 293.609 C 325.358 293.591,336.310 293.448,336.751 293.161 C 337.322 292.790,337.313 292.767,336.678 292.966 C 336.282 293.090,320.892 293.199,302.478 293.209 L 269.000 293.227 268.100 292.191 C 267.605 291.621,267.200 291.314,267.200 291.508 " stroke="none" fill="#747474" fill-rule="evenodd"></path></g></svg>