<?xml version="1.0" standalone="no"?>
<!DOCTYPE svg PUBLIC "-//W3C//DTD SVG 20010904//EN"
 "http://www.w3.org/TR/2001/REC-SVG-20010904/DTD/svg10.dtd">
<svg version="1.0" xmlns="http://www.w3.org/2000/svg"
 width="264.000000pt" height="86.000000pt" viewBox="0 0 264.000000 86.000000"
 preserveAspectRatio="xMidYMid meet">

<g transform="translate(0.000000,86.000000) scale(0.100000,-0.100000)"
fill="#000000" stroke="none">
<path d="M0 460 l0 -400 435 0 435 0 0 400 0 400 -435 0 -435 0 0 -400z m126
360 c24 -10 26 -14 21 -50 -3 -28 -1 -40 9 -44 8 -3 14 -19 14 -35 0 -38 -23
-51 -89 -51 l-51 0 0 95 0 95 34 0 c19 0 47 -5 62 -10z m231 -25 c32 -36 31
-93 -1 -128 -66 -72 -178 -28 -178 69 0 31 7 44 32 67 29 26 38 29 79 24 33
-4 52 -12 68 -32z m159 10 c20 -27 17 -62 -6 -78 -20 -14 -20 -14 1 -41 12
-15 25 -24 29 -19 4 4 20 41 35 81 43 116 70 111 120 -21 l33 -87 -29 0 c-19
0 -29 5 -29 15 0 11 -11 15 -40 15 -29 0 -40 -4 -40 -15 0 -11 -13 -15 -53
-15 -49 0 -54 2 -72 33 l-20 32 -3 -32 c-3 -27 -7 -33 -28 -33 -24 0 -24 1
-24 96 l0 96 56 -4 c40 -3 61 -10 70 -23z m264 -50 l0 -75 30 0 c23 0 30 -4
30 -20 0 -17 -7 -20 -50 -20 l-50 0 0 95 c0 88 1 95 20 95 18 0 20 -7 20 -75z
m60 -270 l0 -125 -405 0 -405 0 0 125 0 125 405 0 405 0 0 -125z"/>
<path d="M80 770 c0 -13 5 -20 13 -17 6 2 12 10 12 17 0 7 -6 15 -12 18 -8 2
-13 -5 -13 -18z"/>
<path d="M80 700 c0 -13 7 -20 20 -20 24 0 27 25 4 34 -23 9 -24 8 -24 -14z"/>
<path d="M241 766 c-16 -19 -10 -66 10 -79 26 -16 68 0 75 30 4 14 2 33 -3 42
-13 21 -66 26 -82 7z"/>
<path d="M440 765 c0 -16 6 -25 15 -25 21 0 31 30 14 41 -23 14 -29 11 -29
-16z"/>
<path d="M617 730 c-4 -15 0 -20 13 -20 13 0 17 5 13 20 -3 11 -9 20 -13 20
-4 0 -10 -9 -13 -20z"/>
<path d="M935 840 c-17 -8 -17 -9 7 -7 15 1 24 5 22 9 -3 4 -6 8 -7 7 -1 0
-11 -4 -22 -9z"/>
<path d="M897 833 c-13 -12 -7 -40 11 -54 15 -13 16 -12 3 3 -7 10 -11 27 -8
38 5 21 4 24 -6 13z"/>
<path d="M928 813 c7 -3 16 -2 19 1 4 3 -2 6 -13 5 -11 0 -14 -3 -6 -6z"/>
<path d="M946 789 c2 -4 -2 -10 -8 -12 -8 -4 -9 -6 -2 -6 6 -1 17 5 23 12 8
10 7 14 -4 14 -8 0 -12 -4 -9 -8z"/>
<path d="M1078 574 c-5 -4 -8 -54 -8 -111 l0 -103 63 0 c74 0 100 15 117 66
28 84 -15 145 -108 152 -31 2 -60 0 -64 -4z m115 -47 c10 -6 20 -29 23 -49 5
-30 2 -41 -19 -62 -17 -17 -37 -26 -57 -26 l-30 0 0 75 0 75 33 0 c18 0 41 -6
50 -13z"/>
<path d="M1540 471 c0 -104 1 -111 20 -111 17 0 19 8 22 73 l3 72 25 -73 c32
-94 52 -95 85 -4 13 35 26 66 29 69 3 4 6 -26 6 -65 0 -66 2 -72 20 -72 20 0
21 5 18 108 l-3 107 -26 3 c-25 3 -29 -2 -54 -78 -15 -45 -29 -80 -31 -78 -1
2 -16 37 -31 78 -25 66 -32 75 -56 78 l-27 3 0 -110z"/>
<path d="M2190 561 c0 -15 6 -21 21 -21 25 0 22 33 -4 38 -12 2 -17 -3 -17
-17z"/>
<path d="M2100 540 c0 -16 -7 -20 -33 -20 -18 0 -38 -5 -45 -12 -9 -9 -12 -9
-12 0 0 7 -7 12 -15 12 -12 0 -15 -16 -15 -80 0 -61 3 -80 14 -80 9 0 15 17
18 51 6 57 11 64 55 74 l32 6 3 -63 3 -63 33 -3 c36 -4 43 12 12 28 -15 8 -20
21 -20 55 0 38 3 45 20 45 11 0 20 5 20 11 0 6 -9 13 -20 16 -11 3 -20 14 -20
24 0 11 -7 19 -15 19 -8 0 -15 -9 -15 -20z"/>
<path d="M1301 494 c-26 -33 -27 -84 -2 -115 26 -33 86 -32 113 1 23 28 9 39
-27 20 -29 -15 -59 -10 -63 13 -3 14 5 17 52 17 48 0 56 3 56 19 0 34 -38 71
-75 71 -24 0 -39 -7 -54 -26z m77 -16 c20 -20 14 -28 -23 -28 -24 0 -35 5 -35
14 0 24 39 33 58 14z"/>
<path d="M1818 498 c-21 -21 -21 -23 -4 -26 10 -2 23 1 29 7 6 6 21 11 34 11
33 0 29 -28 -4 -36 -56 -11 -73 -23 -73 -49 0 -36 41 -60 79 -47 18 6 32 7 38
1 11 -11 43 -2 43 11 0 5 -4 12 -10 15 -5 3 -10 28 -10 55 0 31 -6 54 -16 64
-23 24 -80 20 -106 -6z m80 -85 c-4 -22 -58 -31 -58 -10 0 20 10 27 37 27 18
0 24 -5 21 -17z"/>
<path d="M2190 441 c0 -75 2 -81 20 -81 19 0 21 5 18 77 -3 65 -6 78 -20 81
-16 3 -18 -6 -18 -77z"/>
<path d="M2260 440 c0 -64 3 -80 15 -80 11 0 15 12 15 46 0 54 14 84 39 84 24
0 31 -19 31 -81 0 -42 3 -49 20 -49 18 0 20 7 20 58 0 69 -19 102 -59 102 -15
0 -32 -5 -39 -12 -9 -9 -12 -9 -12 0 0 7 -7 12 -15 12 -12 0 -15 -16 -15 -80z"/>
<path d="M1100 265 c-8 -9 -10 -29 -7 -49 4 -26 1 -39 -14 -52 -10 -9 -19 -30
-19 -45 0 -51 51 -80 100 -56 17 9 32 11 36 6 3 -5 17 -9 31 -9 l26 0 -22 23
c-18 20 -20 28 -12 50 9 24 8 27 -9 27 -11 0 -20 -5 -20 -12 0 -8 -6 -6 -16 4
-15 15 -15 18 4 43 20 25 20 46 -1 73 -13 17 -62 15 -77 -3z m60 -34 c0 -11
-5 -23 -11 -27 -15 -9 -33 12 -26 30 9 23 37 20 37 -3z m0 -128 c0 -8 -13 -13
-30 -13 -25 0 -30 4 -30 23 0 13 6 29 12 35 10 10 16 8 30 -10 10 -13 18 -29
18 -35z"/>
<path d="M1370 253 c-59 -53 -48 -153 20 -188 37 -19 60 -19 88 1 12 8 22 10
22 5 0 -6 7 -11 15 -11 12 0 15 13 15 60 l0 60 -45 0 c-38 0 -45 -3 -45 -20 0
-15 7 -20 25 -20 27 0 33 -18 13 -38 -13 -13 -57 -16 -74 -4 -40 26 -41 109
-1 137 30 21 44 19 74 -11 32 -32 58 -26 42 10 -24 51 -102 61 -149 19z"/>
<path d="M2360 261 c0 -15 6 -21 21 -21 25 0 22 33 -4 38 -12 2 -17 -3 -17
-17z"/>
<path d="M2600 261 c0 -15 6 -21 21 -21 14 0 19 5 17 17 -5 26 -38 29 -38 4z"/>
<path d="M1578 198 c-21 -21 -21 -23 -4 -26 10 -2 23 1 29 7 6 6 21 11 34 11
33 0 29 -28 -4 -36 -56 -11 -73 -23 -73 -49 0 -36 41 -60 79 -47 18 6 32 7 38
1 11 -11 43 -2 43 11 0 5 -4 12 -10 15 -5 3 -10 28 -10 55 0 31 -6 54 -16 64
-23 24 -80 20 -106 -6z m80 -85 c-4 -22 -58 -31 -58 -10 0 20 10 27 37 27 18
0 24 -5 21 -17z"/>
<path d="M1746 204 c-31 -30 -17 -58 39 -77 49 -17 58 -37 16 -37 -17 0 -31 5
-31 10 0 6 -9 10 -21 10 -30 0 -21 -32 14 -48 37 -18 85 -7 99 23 16 34 5 51
-43 67 -49 16 -63 38 -25 38 14 0 26 -4 26 -10 0 -5 9 -10 20 -10 11 0 20 7
20 15 0 33 -86 48 -114 19z"/>
<path d="M1900 109 c0 -100 2 -110 18 -107 11 2 18 14 20 35 3 30 5 31 28 21
20 -10 29 -8 52 9 37 27 44 101 13 132 -23 23 -70 28 -89 9 -9 -9 -12 -9 -12
0 0 7 -7 12 -15 12 -12 0 -15 -19 -15 -111z m96 73 c18 -12 26 -50 14 -72 -15
-28 -57 -27 -71 3 -21 46 19 95 57 69z"/>
<path d="M2088 198 c-21 -21 -21 -23 -4 -26 10 -2 23 1 29 7 6 6 21 11 34 11
33 0 29 -28 -4 -36 -56 -11 -73 -23 -73 -49 0 -36 41 -60 79 -47 18 6 32 7 38
1 11 -11 43 -2 43 11 0 5 -4 12 -10 15 -5 3 -10 28 -10 55 0 31 -6 54 -16 64
-23 24 -80 20 -106 -6z m80 -85 c-4 -22 -58 -31 -58 -10 0 20 10 27 37 27 18
0 24 -5 21 -17z"/>
<path d="M2250 140 c0 -64 3 -80 15 -80 10 0 15 10 15 34 0 51 16 86 40 86 13
0 20 7 20 20 0 23 -29 27 -48 8 -9 -9 -12 -9 -12 0 0 7 -7 12 -15 12 -12 0
-15 -16 -15 -80z"/>
<path d="M2360 141 c0 -75 2 -81 20 -81 19 0 21 5 18 77 -3 65 -6 78 -20 81
-16 3 -18 -6 -18 -77z"/>
<path d="M2430 140 c0 -64 3 -80 15 -80 11 0 15 12 15 46 0 54 14 84 39 84 24
0 31 -19 31 -81 0 -42 3 -49 20 -49 18 0 20 7 20 58 0 69 -19 102 -59 102 -15
0 -32 -5 -39 -12 -9 -9 -12 -9 -12 0 0 7 -7 12 -15 12 -12 0 -15 -16 -15 -80z"/>
<path d="M2600 141 c0 -75 2 -81 20 -81 19 0 21 5 18 77 -3 65 -6 78 -20 81
-16 3 -18 -6 -18 -77z"/>
</g>
</svg>
