<?xml version="1.0" standalone="no"?>
<!DOCTYPE svg PUBLIC "-//W3C//DTD SVG 20010904//EN"
 "http://www.w3.org/TR/2001/REC-SVG-20010904/DTD/svg10.dtd">
<svg version="1.0" xmlns="http://www.w3.org/2000/svg"
 width="92.000000pt" height="84.000000pt" viewBox="0 0 92.000000 84.000000"
 preserveAspectRatio="xMidYMid meet">

<g transform="translate(0.000000,84.000000) scale(0.100000,-0.100000)"
fill="#000000" stroke="none">
<path d="M0 420 l0 -420 460 0 460 0 0 420 0 420 -460 0 -460 0 0 -420z m390
220 c11 -11 27 -37 35 -57 l16 -38 15 35 c19 44 52 80 75 80 46 0 100 -122
119 -265 13 -97 13 -95 -19 -95 l-28 0 -6 83 c-8 94 -31 191 -54 227 l-17 25
-17 -41 c-10 -22 -24 -93 -30 -157 l-12 -117 -28 0 c-28 0 -29 2 -29 44 0 68
-20 197 -37 236 -14 34 -15 34 -29 15 -23 -31 -44 -111 -56 -217 -11 -92 -13
-98 -35 -98 -21 0 -23 4 -23 48 1 104 52 268 94 297 28 20 42 19 66 -5z m300
-330 c0 -5 -4 -10 -10 -10 -5 0 -10 5 -10 10 0 6 5 10 10 10 6 0 10 -4 10 -10z
m-450 -87 c0 -11 -3 -14 -8 -7 -4 6 -14 14 -22 17 -10 4 -8 6 8 6 15 1 22 -5
22 -16z m140 -4 c0 -19 1 -19 16 -5 10 11 21 13 32 7 9 -4 23 -6 30 -4 6 3 13
-4 13 -14 1 -16 2 -16 6 0 4 16 23 25 23 10 -1 -43 -40 -77 -40 -35 -1 16 -1
16 -14 0 -15 -21 -37 -23 -54 -6 -9 9 -12 9 -12 0 0 -7 -4 -12 -10 -12 -5 0
-10 18 -10 40 0 22 5 40 10 40 6 0 10 -9 10 -21z m230 6 c0 -8 -2 -15 -4 -15
-2 0 -6 7 -10 15 -3 8 -1 15 4 15 6 0 10 -7 10 -15z m81 8 c0 -5 2 -23 3 -40
3 -23 -1 -33 -10 -33 -8 0 -14 11 -15 28 -1 20 -2 22 -6 7 -9 -36 -23 -41 -23
-7 0 22 5 32 15 32 8 0 15 5 15 10 0 11 20 14 21 3z m39 -3 c0 -5 -4 -10 -10
-10 -5 0 -10 5 -10 10 0 6 5 10 10 10 6 0 10 -4 10 -10z m-510 -40 c0 -16 -4
-30 -10 -30 -5 0 -10 14 -10 30 0 17 5 30 10 30 6 0 10 -13 10 -30z m118 -2
c2 -16 -1 -28 -7 -28 -6 0 -11 9 -11 20 0 11 -4 20 -10 20 -5 0 -10 -9 -10
-20 0 -31 -20 -24 -21 8 l-2 27 -4 -27 c-6 -38 -23 -35 -23 3 0 29 1 30 43 27
38 -3 42 -6 45 -30z m252 2 c0 -16 -4 -30 -10 -30 -5 0 -10 12 -10 26 0 14 -4
23 -10 19 -5 -3 -10 -15 -10 -26 0 -12 -7 -19 -20 -19 -16 0 -20 7 -20 30 0
28 2 30 40 30 38 0 40 -2 40 -30z"/>
<path d="M406 203 c-11 -11 -6 -23 9 -23 8 0 15 4 15 9 0 13 -16 22 -24 14z"/>
</g>
</svg>
