<svg id="svg" version="1.1" xmlns="http://www.w3.org/2000/svg" xmlns:xlink="http://www.w3.org/1999/xlink" width="400" height="365.2173913043478" viewBox="0, 0, 400,365.2173913043478"><g id="svgg"><path id="path0" d="M150.327 79.660 C 149.528 79.860,148.460 80.419,147.953 80.902 C 147.446 81.386,145.674 82.460,144.015 83.290 C 141.851 84.371,140.839 85.106,140.433 85.890 C 140.123 86.491,139.114 87.461,138.191 88.046 C 137.110 88.732,136.290 89.609,135.884 90.517 C 135.537 91.291,134.470 92.807,133.512 93.886 C 132.554 94.964,131.399 96.678,130.944 97.695 C 130.489 98.712,129.534 100.103,128.820 100.786 C 128.106 101.469,127.412 102.531,127.277 103.146 C 126.839 105.139,125.663 107.491,124.409 108.878 C 123.578 109.798,123.051 110.866,122.771 112.195 C 122.073 115.505,121.296 117.482,120.341 118.379 C 119.422 119.243,118.399 122.132,117.635 126.027 C 117.418 127.132,116.837 128.694,116.345 129.498 C 114.764 132.076,114.422 133.076,113.778 136.986 C 113.104 141.080,112.079 144.321,111.237 145.019 C 110.617 145.534,109.858 149.087,109.058 155.230 C 108.676 158.161,108.134 160.560,107.533 161.988 C 106.071 165.454,105.624 167.733,105.018 174.795 C 104.389 182.131,103.694 186.508,102.642 189.772 C 101.551 193.152,100.892 201.540,100.446 217.713 L 100.038 232.503 100.998 233.329 C 101.938 234.138,102.144 234.155,110.819 234.155 C 122.157 234.155,121.279 234.753,121.279 227.038 C 121.279 215.856,122.271 201.095,123.329 196.530 C 124.072 193.322,124.823 186.395,125.289 178.447 C 125.807 169.612,126.281 166.215,127.483 162.720 C 128.606 159.454,129.098 156.738,129.696 150.502 C 130.199 145.251,130.911 142.045,132.065 139.830 C 132.588 138.825,133.206 136.616,133.547 134.533 C 134.781 126.983,135.127 125.594,136.197 123.894 C 137.473 121.866,137.904 120.527,138.433 116.955 C 138.893 113.846,139.531 112.153,140.821 110.619 C 141.328 110.017,142.184 108.052,142.722 106.253 C 143.373 104.079,144.090 102.528,144.859 101.628 C 145.496 100.883,146.534 99.249,147.166 97.997 C 148.057 96.232,148.640 95.554,149.764 94.981 C 150.561 94.574,151.788 93.667,152.490 92.966 C 154.073 91.382,154.534 91.376,156.255 92.918 C 157.009 93.594,158.158 94.419,158.809 94.752 C 160.292 95.510,160.805 96.300,162.029 99.702 C 162.566 101.196,163.237 102.650,163.520 102.933 C 164.549 103.962,165.179 105.712,166.068 110.009 C 166.628 112.719,167.389 115.183,168.060 116.465 C 169.255 118.748,169.950 121.934,170.584 128.037 C 171.006 132.088,171.572 135.035,172.059 135.708 C 173.267 137.378,174.116 142.498,174.602 151.050 C 175.046 158.856,175.530 162.886,176.459 166.504 C 178.003 172.523,178.825 185.276,179.191 208.896 C 179.411 223.146,179.524 224.334,180.703 224.850 C 181.070 225.010,186.055 225.213,191.781 225.301 L 202.192 225.460 202.962 224.602 C 203.698 223.781,203.751 223.143,204.170 209.863 C 204.650 194.665,204.959 190.523,206.021 185.023 C 206.892 180.511,207.343 175.672,207.859 165.297 C 208.392 154.580,209.107 148.512,210.230 145.167 C 211.313 141.941,212.099 137.415,212.412 132.603 C 212.756 127.326,213.251 124.994,214.626 122.174 C 215.614 120.147,216.037 118.569,216.611 114.769 C 217.333 109.992,217.893 108.282,219.211 106.836 C 219.584 106.427,220.309 104.476,220.822 102.500 C 221.891 98.388,221.789 98.564,225.262 94.850 C 228.305 91.596,228.310 91.595,232.129 93.620 C 234.522 94.888,235.167 95.424,235.782 96.656 C 236.193 97.478,237.121 98.711,237.844 99.395 C 238.819 100.318,239.413 101.407,240.143 103.611 C 240.685 105.245,241.438 106.863,241.817 107.206 C 242.883 108.170,243.611 109.994,244.393 113.652 C 244.841 115.748,245.506 117.637,246.166 118.686 C 247.511 120.824,247.866 121.984,248.723 127.032 C 249.170 129.661,249.768 131.805,250.384 132.983 C 251.654 135.412,252.274 137.994,252.968 143.744 C 253.602 148.989,253.951 150.619,254.964 153.059 C 255.967 155.474,256.712 159.890,257.158 166.054 C 257.692 173.451,258.138 176.727,259.169 180.822 C 260.828 187.414,261.351 195.013,261.842 219.622 C 262.077 231.444,262.163 232.731,262.753 233.321 C 263.602 234.171,280.711 234.310,283.427 233.489 L 285.028 233.005 284.772 229.105 C 284.631 226.960,284.204 222.411,283.824 218.995 C 282.951 211.170,282.501 205.365,281.997 195.434 C 281.556 186.745,280.850 181.005,280.027 179.413 C 279.240 177.892,278.091 171.801,277.639 166.758 C 277.096 160.705,276.612 158.264,275.613 156.543 C 274.565 154.738,273.800 151.761,273.242 147.321 C 272.733 143.278,272.015 140.416,271.303 139.598 C 270.297 138.441,269.902 137.282,268.853 132.394 C 268.028 128.553,267.554 127.133,266.693 125.928 C 265.993 124.948,265.261 123.112,264.690 120.907 C 263.520 116.383,263.243 115.697,262.152 114.605 C 261.586 114.039,260.825 112.367,260.147 110.197 C 259.300 107.487,258.760 106.407,257.746 105.393 C 257.027 104.674,256.437 103.885,256.435 103.641 C 256.427 102.674,254.536 99.204,253.173 97.656 C 252.381 96.755,251.505 95.332,251.226 94.493 C 250.894 93.492,250.291 92.680,249.470 92.130 C 248.782 91.669,247.945 90.793,247.610 90.183 C 246.779 88.670,245.853 87.694,244.665 87.080 C 244.115 86.796,243.408 86.065,243.093 85.456 C 242.676 84.649,241.806 84.020,239.890 83.141 C 238.444 82.477,236.946 81.580,236.561 81.146 C 234.324 78.625,225.021 78.620,222.608 81.138 C 222.029 81.743,220.893 82.530,220.083 82.888 C 218.460 83.606,214.661 87.110,213.265 89.176 C 212.773 89.903,211.768 91.028,211.030 91.676 C 210.246 92.365,209.509 93.455,209.255 94.303 C 209.016 95.100,208.227 96.364,207.502 97.111 C 206.685 97.953,205.871 99.369,205.363 100.833 C 204.252 104.029,203.455 105.553,202.677 105.970 C 202.069 106.295,201.593 107.609,200.031 113.269 C 199.722 114.389,199.123 115.618,198.700 116.001 C 197.601 116.995,196.989 118.671,196.328 122.496 C 195.065 129.795,194.171 130.511,190.739 126.972 C 187.759 123.898,187.280 122.947,186.265 118.088 C 185.530 114.568,185.178 113.709,183.545 111.452 C 183.051 110.768,182.481 109.535,182.278 108.712 C 181.404 105.165,181.112 104.476,179.769 102.787 C 178.990 101.807,178.082 100.204,177.750 99.226 C 176.956 96.880,176.726 96.481,175.285 94.949 C 174.613 94.235,173.588 92.758,173.006 91.666 C 172.424 90.574,171.173 88.989,170.226 88.144 C 169.279 87.299,168.308 86.134,168.068 85.555 C 167.756 84.802,167.090 84.273,165.734 83.700 C 164.690 83.260,163.178 82.417,162.374 81.829 C 159.513 79.733,158.897 79.523,155.251 79.408 C 153.342 79.347,151.127 79.461,150.327 79.660 " stroke="none" fill="#fabf25" fill-rule="evenodd"></path><path id="path1" d="M0.000 182.648 L 0.000 365.297 200.000 365.297 L 400.000 365.297 400.000 182.648 L 400.000 0.000 200.000 0.000 L 0.000 0.000 0.000 182.648 M161.080 77.839 C 162.409 78.124,163.362 78.645,164.477 79.696 C 165.330 80.499,166.804 81.554,167.754 82.041 C 168.751 82.552,169.717 83.382,170.038 84.004 C 170.345 84.596,171.270 85.623,172.094 86.285 C 172.919 86.947,173.916 88.121,174.311 88.895 C 174.706 89.668,175.653 90.983,176.415 91.817 C 177.924 93.468,178.646 94.732,179.363 96.986 C 179.618 97.790,180.448 99.127,181.206 99.957 C 182.475 101.347,183.295 103.291,183.919 106.386 C 184.030 106.935,184.588 107.921,185.160 108.578 C 186.607 110.239,187.221 111.595,187.731 114.261 C 188.433 117.930,189.021 119.123,191.357 121.609 L 193.554 123.948 194.100 121.974 C 194.400 120.888,194.756 119.178,194.890 118.174 C 195.194 115.901,196.408 113.003,197.326 112.361 C 197.764 112.054,198.347 110.646,198.913 108.531 C 199.930 104.732,200.632 103.190,201.575 102.685 C 201.947 102.486,202.685 101.021,203.282 99.295 C 204.068 97.022,204.677 95.933,205.697 94.977 C 206.447 94.274,207.329 93.041,207.657 92.237 C 207.985 91.434,208.872 90.119,209.628 89.315 C 210.384 88.511,211.703 86.919,212.560 85.776 C 214.204 83.584,215.613 82.356,217.717 81.283 C 218.420 80.924,219.602 80.088,220.343 79.424 C 223.752 76.368,237.041 76.604,239.527 79.764 C 239.906 80.245,241.156 81.083,242.305 81.627 C 243.612 82.245,244.589 82.991,244.913 83.618 C 245.198 84.169,246.097 85.060,246.910 85.598 C 247.722 86.136,248.721 87.230,249.129 88.029 C 249.537 88.829,250.345 89.728,250.925 90.028 C 251.560 90.356,252.310 91.269,252.808 92.319 C 253.264 93.279,254.325 94.812,255.167 95.726 C 256.463 97.135,258.265 100.738,258.265 101.923 C 258.265 102.112,258.685 102.542,259.199 102.878 C 260.318 103.612,261.187 105.290,262.106 108.493 C 262.558 110.072,263.172 111.252,263.938 112.016 C 265.060 113.135,265.266 113.676,266.488 118.720 C 266.862 120.262,267.423 121.477,268.090 122.190 C 269.367 123.553,269.440 123.760,270.533 129.114 C 271.094 131.862,271.678 133.756,272.108 134.228 C 273.443 135.692,273.982 137.379,274.706 142.357 C 275.275 146.274,275.678 147.859,276.515 149.471 C 277.940 152.214,278.576 154.883,279.071 160.183 C 279.559 165.415,280.149 168.194,281.395 171.142 C 282.499 173.754,282.953 176.949,283.467 185.753 C 283.937 193.808,284.423 197.810,285.307 200.913 C 286.518 205.164,288.074 226.894,287.512 231.702 C 287.013 235.969,285.997 236.294,273.059 236.323 C 259.335 236.354,260.282 237.310,259.942 223.088 C 259.583 208.060,259.100 201.012,258.086 195.982 C 256.871 189.957,256.531 187.160,256.062 179.344 C 255.535 170.569,254.737 163.860,254.068 162.564 C 253.072 160.639,252.096 156.186,251.704 151.781 C 251.079 144.748,250.622 142.478,249.276 139.712 C 248.286 137.676,247.879 136.140,247.320 132.337 C 246.421 126.209,246.053 124.885,244.728 122.999 C 244.015 121.984,243.464 120.530,243.109 118.721 C 241.888 112.507,241.776 112.154,240.551 110.688 C 239.721 109.695,238.967 108.072,238.214 105.661 C 237.287 102.691,236.894 101.935,235.843 101.105 C 235.149 100.558,234.478 99.633,234.350 99.051 C 234.000 97.455,232.716 96.485,230.384 96.054 C 227.927 95.600,227.993 95.568,226.019 98.133 C 223.120 101.902,222.930 102.246,222.685 104.181 C 222.340 106.903,221.435 109.561,220.368 110.991 C 219.313 112.403,218.615 114.917,218.270 118.539 C 217.891 122.531,217.011 126.368,216.032 128.299 C 214.854 130.625,214.568 132.281,213.703 141.781 C 213.006 149.435,212.265 154.204,211.449 156.289 C 210.564 158.548,210.032 163.302,209.684 172.055 C 209.334 180.837,209.091 185.515,208.215 200.365 C 208.013 203.781,207.598 208.877,207.292 211.689 C 206.985 214.502,206.584 218.505,206.399 220.585 C 205.798 227.353,205.921 227.300,191.262 227.147 C 179.464 227.024,178.925 226.940,177.919 225.060 C 177.705 224.660,177.391 218.137,177.176 209.626 C 176.809 195.145,176.372 188.232,175.713 186.498 C 174.816 184.137,173.809 174.151,173.133 160.913 C 172.668 151.796,171.996 146.538,171.009 144.292 C 169.973 141.937,169.235 137.914,168.783 132.162 C 168.268 125.611,167.917 123.898,166.614 121.569 C 165.571 119.705,164.384 115.121,164.384 112.958 C 164.384 111.219,163.285 108.083,162.190 106.696 C 161.556 105.893,160.720 103.909,160.024 101.553 C 159.400 99.443,158.708 97.655,158.486 97.580 C 158.264 97.505,157.245 97.006,156.223 96.472 L 154.364 95.500 152.078 96.609 C 150.189 97.525,149.719 97.939,149.367 98.995 C 148.696 101.009,146.875 104.475,146.487 104.475 C 145.811 104.475,144.980 106.253,144.273 109.213 C 143.469 112.580,143.116 113.388,141.858 114.739 C 141.221 115.423,140.814 116.548,140.404 118.758 C 139.281 124.818,138.796 126.538,137.747 128.188 C 136.427 130.266,136.054 131.712,135.530 136.804 C 135.001 141.942,134.583 143.668,133.306 145.992 C 132.102 148.182,131.674 150.517,131.140 157.808 C 130.679 164.091,130.000 168.083,128.804 171.534 C 127.736 174.614,127.216 178.775,126.934 186.484 C 126.641 194.476,125.710 209.516,125.259 213.516 C 125.056 215.324,124.722 219.023,124.518 221.735 C 124.314 224.447,124.036 228.154,123.900 229.972 C 123.439 236.138,123.014 236.348,110.971 236.345 C 100.905 236.343,99.818 236.159,97.778 234.120 L 96.362 232.703 96.606 229.685 C 96.740 228.025,97.081 224.694,97.362 222.283 C 97.965 217.123,98.808 205.324,99.353 194.422 C 99.748 186.502,100.276 182.657,101.371 179.726 C 102.364 177.064,102.954 173.715,103.556 167.321 C 104.194 160.546,104.485 159.209,105.942 156.351 C 106.935 154.402,107.308 152.672,108.146 146.119 C 108.509 143.283,109.207 141.309,110.855 138.464 C 111.141 137.971,111.645 135.998,111.975 134.080 C 112.758 129.523,113.464 127.349,114.600 126.000 C 115.228 125.253,115.804 123.724,116.390 121.245 C 117.314 117.334,117.636 116.539,118.923 114.992 C 119.785 113.955,120.541 112.082,121.309 109.084 C 121.584 108.013,122.317 106.664,123.148 105.704 C 123.945 104.783,124.808 103.221,125.187 102.012 C 125.601 100.694,126.319 99.441,127.124 98.634 C 127.828 97.929,128.954 96.191,129.627 94.773 C 130.359 93.229,131.271 91.911,131.899 91.489 C 132.475 91.102,133.376 89.995,133.902 89.030 C 134.469 87.988,135.446 86.904,136.311 86.358 C 137.110 85.853,138.104 84.865,138.518 84.163 C 139.013 83.325,139.979 82.528,141.326 81.848 C 142.455 81.277,143.707 80.447,144.109 80.003 C 146.221 77.664,155.029 76.541,161.080 77.839 M301.203 224.825 C 304.685 228.307,304.548 227.965,303.544 230.649 C 302.033 234.685,296.421 237.008,292.498 235.220 C 289.528 233.867,289.356 227.045,292.212 223.895 C 293.505 222.470,293.745 222.379,297.824 221.778 C 297.983 221.754,299.504 223.125,301.203 224.825 M94.466 257.040 C 97.590 257.598,97.939 257.598,99.334 257.040 C 103.096 255.534,104.925 256.906,108.504 263.918 C 109.960 266.771,116.379 267.701,121.073 265.739 C 123.408 264.764,125.041 265.072,127.243 266.904 C 128.983 268.351,132.436 268.149,134.429 266.484 C 136.563 264.702,139.757 264.872,142.281 266.903 C 142.885 267.389,144.381 268.588,145.605 269.567 C 148.517 271.896,148.676 272.665,148.676 284.463 C 148.676 294.344,148.548 294.995,146.387 296.137 C 144.483 297.142,139.541 297.047,138.203 295.978 C 137.634 295.524,136.579 294.758,135.858 294.276 C 134.251 293.201,133.699 290.627,133.699 284.222 C 133.699 281.087,133.589 280.183,133.208 280.183 C 132.824 280.183,132.668 281.677,132.486 287.126 C 132.171 296.540,131.684 297.321,126.403 296.879 C 121.139 296.437,120.879 295.983,120.633 286.791 C 120.520 282.590,120.256 279.107,119.993 278.356 L 119.545 277.078 119.170 278.539 C 118.963 279.342,118.695 283.205,118.574 287.123 C 118.290 296.283,117.882 296.915,112.219 296.966 C 107.160 297.011,107.044 296.697,106.989 282.777 C 106.944 271.493,106.690 268.045,106.175 271.723 C 105.821 274.255,104.811 275.298,102.420 275.601 C 97.096 276.275,97.124 276.220,96.835 286.575 C 96.560 296.431,96.236 296.986,90.770 296.986 C 87.683 296.986,86.369 296.330,85.834 294.518 C 85.103 292.044,85.512 269.602,86.310 268.385 C 86.889 267.502,86.900 267.310,86.420 266.575 C 84.985 264.383,85.441 260.095,87.356 257.772 C 88.656 256.194,89.339 256.124,94.466 257.040 M161.882 256.813 C 165.174 257.727,166.044 259.725,166.409 267.209 C 166.669 272.518,167.071 273.954,167.887 272.481 C 168.156 271.996,168.382 271.339,168.389 271.023 C 168.409 270.112,169.932 268.913,171.894 268.264 C 172.887 267.936,174.198 267.197,174.809 266.622 C 177.241 264.332,183.717 264.261,186.158 266.497 C 187.115 267.373,188.105 267.855,189.553 268.150 C 191.782 268.604,193.228 269.651,193.267 270.840 C 193.281 271.257,193.524 270.848,193.807 269.931 C 194.196 268.667,194.712 267.983,195.941 267.100 C 197.904 265.691,197.709 265.696,200.885 266.972 C 204.955 268.607,205.429 269.310,205.790 274.240 C 206.135 278.942,207.467 277.934,207.497 272.950 C 207.509 270.816,208.650 268.701,210.091 268.140 C 210.769 267.876,212.181 267.241,213.228 266.729 C 214.902 265.910,215.240 265.855,216.026 266.276 C 217.702 267.173,219.178 268.790,219.178 269.730 C 219.178 270.231,219.342 270.743,219.543 270.868 C 219.746 270.993,219.910 270.719,219.911 270.250 C 219.912 269.786,220.144 268.965,220.425 268.425 C 220.818 267.673,220.853 267.076,220.575 265.868 C 219.437 260.928,221.773 256.438,225.481 256.438 C 229.685 256.438,231.598 258.920,231.598 264.375 C 231.598 268.055,231.912 268.311,234.690 266.904 C 236.956 265.757,237.286 265.733,238.721 266.604 C 240.656 267.778,241.337 267.781,242.795 266.623 C 245.249 264.672,249.412 264.657,251.458 266.592 C 254.491 269.461,257.554 269.075,256.316 265.981 C 254.441 261.294,257.862 256.451,263.056 256.440 C 266.659 256.433,270.488 265.227,268.166 268.179 C 267.786 268.663,267.169 270.189,266.796 271.570 C 265.972 274.625,265.152 275.342,261.965 275.792 C 258.202 276.324,257.920 276.967,257.871 285.114 C 257.806 295.929,257.419 296.722,252.107 296.929 C 246.675 297.141,246.337 296.475,246.204 285.297 C 246.115 277.790,246.045 277.555,244.392 279.260 L 243.122 280.571 242.862 286.946 L 242.602 293.321 241.431 294.777 C 239.947 296.625,238.387 297.158,235.472 296.817 C 232.723 296.495,232.740 296.495,227.506 296.824 C 220.392 297.272,220.285 297.088,220.247 284.304 C 220.208 271.290,219.704 269.087,218.646 277.305 C 218.005 282.284,217.687 283.259,216.198 284.802 C 215.234 285.803,215.019 286.419,214.547 289.551 C 213.519 296.364,210.327 298.353,203.174 296.637 C 199.849 295.840,199.417 295.026,198.325 287.497 C 197.877 284.407,197.875 284.403,197.429 285.691 C 196.598 288.092,195.493 289.857,193.816 291.461 C 192.898 292.341,192.146 293.191,192.146 293.351 C 192.146 297.864,172.143 298.747,169.821 294.337 C 169.583 293.885,169.269 293.434,169.124 293.333 C 168.978 293.233,168.515 292.582,168.095 291.888 L 167.332 290.625 166.818 291.888 C 166.536 292.582,166.150 293.634,165.960 294.224 C 164.869 297.626,156.742 298.165,155.389 294.926 C 154.778 293.465,154.650 262.597,155.246 260.457 C 156.186 257.077,158.419 255.851,161.882 256.813 M282.477 256.942 C 284.557 257.832,287.017 260.558,287.643 262.668 C 288.577 265.812,288.965 265.965,289.840 263.533 C 291.753 258.215,298.140 258.429,301.047 263.909 L 302.369 266.398 303.153 265.614 C 303.584 265.183,304.195 264.185,304.511 263.396 C 304.826 262.607,305.523 261.675,306.058 261.324 C 306.594 260.974,307.894 259.873,308.949 258.876 L 310.865 257.065 313.698 258.352 C 317.561 260.107,318.174 261.026,318.174 265.071 C 318.174 270.420,313.707 272.827,308.635 270.211 C 306.118 268.913,306.227 268.860,305.724 271.630 C 305.250 274.243,304.693 275.179,303.262 275.772 C 300.744 276.815,300.167 286.393,302.622 286.393 C 303.906 286.393,305.116 288.523,305.301 291.110 C 305.640 295.853,304.399 296.997,298.940 296.970 C 290.755 296.930,289.709 295.570,289.659 284.902 C 289.648 282.407,289.522 279.708,289.379 278.904 L 289.119 277.443 288.487 279.099 C 288.039 280.271,287.848 281.873,287.834 284.578 C 287.787 293.710,287.196 295.407,283.699 296.445 C 280.254 297.468,277.289 296.961,275.125 294.979 L 273.790 293.756 273.675 282.614 C 273.548 270.349,273.590 270.069,275.795 268.438 L 276.875 267.640 275.436 266.079 C 273.046 263.486,273.211 261.879,276.173 258.905 C 278.581 256.489,280.225 255.977,282.477 256.942 M179.728 276.706 C 179.526 277.238,179.361 277.814,179.361 277.987 C 179.361 278.159,178.942 278.798,178.430 279.407 C 176.045 282.241,178.666 286.610,182.102 285.527 C 185.116 284.577,186.056 280.783,183.653 279.269 C 183.015 278.868,182.107 277.963,181.636 277.260 C 180.536 275.620,180.180 275.517,179.728 276.706 " stroke="none" fill="#bb0413" fill-rule="evenodd"></path><path id="path2" d="M88.408 261.996 C 87.722 263.123,87.722 263.155,88.422 264.137 C 89.197 265.226,89.309 265.216,93.642 263.665 L 95.046 263.162 94.007 262.680 C 93.436 262.415,92.099 261.895,91.036 261.524 L 89.104 260.851 88.408 261.996 M100.574 261.875 L 99.052 262.977 99.754 264.826 C 100.202 266.004,100.457 267.593,100.457 269.207 C 100.457 274.383,103.132 273.980,103.541 268.743 C 103.669 267.099,103.862 265.153,103.968 264.419 C 104.128 263.314,103.984 262.884,103.129 261.928 L 102.096 260.772 100.574 261.875 M157.799 262.115 C 157.014 263.385,157.009 263.515,157.176 277.908 C 157.378 295.282,157.309 294.937,160.402 294.010 C 162.889 293.265,163.336 289.858,163.023 274.033 C 162.777 261.612,163.040 262.690,159.935 261.395 L 158.591 260.834 157.799 262.115 M279.247 261.942 L 278.204 263.030 279.329 264.155 L 280.453 265.280 281.684 264.180 L 282.914 263.081 282.192 262.283 C 280.866 260.819,280.377 260.762,279.247 261.942 M223.420 261.970 C 222.086 263.875,223.305 265.009,226.113 264.476 C 229.393 263.854,229.876 262.283,226.951 261.753 C 226.192 261.615,225.219 261.418,224.790 261.316 C 224.251 261.187,223.827 261.389,223.420 261.970 M261.279 261.960 C 259.893 262.847,259.921 262.645,260.822 265.205 C 261.243 266.402,261.533 268.207,261.541 269.668 C 261.551 271.785,261.658 272.177,262.326 272.534 C 263.531 273.179,263.972 272.364,264.431 268.651 C 265.257 261.964,264.333 260.004,261.279 261.960 M292.065 266.488 C 291.095 268.532,290.372 269.512,289.218 270.348 C 287.317 271.725,287.295 272.095,289.060 273.084 C 291.554 274.483,291.660 274.834,291.919 282.493 C 292.195 290.683,292.440 291.467,295.271 293.242 C 296.313 293.895,297.445 294.429,297.788 294.429 C 298.910 294.429,302.141 293.636,302.019 293.390 C 301.953 293.259,301.596 292.493,301.225 291.689 C 300.855 290.886,300.016 289.160,299.361 287.854 C 296.606 282.364,297.556 274.960,301.216 273.399 C 303.621 272.373,303.648 271.575,301.329 270.111 C 300.537 269.611,299.403 268.413,298.809 267.448 C 297.787 265.786,297.327 265.441,294.536 264.249 L 293.365 263.748 292.065 266.488 M119.817 270.006 C 118.110 270.195,115.368 270.261,113.725 270.152 C 109.159 269.850,109.219 269.717,109.243 280.141 C 109.273 293.513,109.594 294.895,112.470 294.033 C 114.431 293.446,114.918 291.853,115.253 284.932 C 115.661 276.501,117.063 273.185,119.975 273.766 C 122.852 274.341,124.190 277.752,124.569 285.479 C 124.895 292.131,125.293 293.520,127.037 294.096 C 129.310 294.846,129.452 294.407,129.736 285.746 C 130.089 274.967,130.630 273.713,134.725 274.176 C 138.687 274.625,139.541 276.589,139.547 285.273 C 139.552 293.607,140.040 295.069,142.476 294.060 C 143.948 293.450,144.292 291.423,144.292 283.361 C 144.292 270.720,142.794 268.551,135.071 270.016 C 133.191 270.372,127.159 270.264,124.018 269.818 C 123.416 269.732,121.525 269.817,119.817 270.006 M176.621 269.837 C 176.219 269.927,174.887 270.325,173.660 270.720 L 171.430 271.440 170.468 273.893 C 168.186 279.709,168.027 281.903,169.498 287.212 C 170.191 289.715,171.343 291.507,172.259 291.507 C 172.503 291.507,173.273 292.094,173.970 292.812 C 176.697 295.620,184.524 295.656,187.521 292.875 C 188.007 292.424,188.799 291.787,189.281 291.460 C 189.763 291.133,190.427 290.311,190.758 289.633 C 193.723 283.562,194.272 281.253,193.238 279.213 C 192.846 278.440,191.886 276.329,191.103 274.521 L 189.681 271.233 186.804 270.441 C 184.085 269.692,178.696 269.373,176.621 269.837 M243.836 270.012 C 242.831 270.197,240.836 270.264,239.403 270.160 C 237.115 269.994,236.645 270.072,235.567 270.799 L 234.338 271.627 234.225 280.014 C 234.085 290.477,234.469 293.437,236.053 294.094 C 238.172 294.971,238.883 292.523,238.897 284.310 C 238.910 276.499,239.611 274.885,243.325 274.120 C 247.839 273.190,248.408 274.376,248.723 285.375 C 248.991 294.753,249.007 294.795,252.003 294.076 C 254.443 293.491,254.525 293.173,254.704 283.653 L 254.848 275.982 253.841 273.840 C 252.188 270.325,248.919 269.074,243.836 270.012 M88.189 271.109 C 87.300 272.828,87.541 292.994,88.462 293.915 C 89.293 294.746,92.590 294.002,93.235 292.838 C 93.802 291.814,94.313 272.169,93.789 271.508 C 93.438 271.064,90.201 269.954,89.258 269.954 C 88.998 269.954,88.517 270.474,88.189 271.109 M196.962 270.796 C 195.390 272.469,196.143 277.626,197.958 277.626 C 198.656 277.626,199.895 281.036,200.574 284.824 C 202.104 293.362,205.777 296.485,209.803 292.671 C 211.290 291.262,211.412 290.944,212.430 285.832 C 213.310 281.405,213.945 279.559,215.005 278.345 C 215.605 277.658,216.621 273.863,216.621 272.309 C 216.621 270.152,215.534 269.686,213.184 270.835 C 210.960 271.924,210.936 271.968,209.690 277.366 C 207.624 286.322,205.070 285.976,203.484 276.525 C 202.547 270.939,202.932 271.418,198.332 270.110 C 198.017 270.021,197.400 270.330,196.962 270.796 M223.271 270.824 C 222.419 271.777,222.596 292.718,223.465 293.766 C 223.899 294.287,228.058 294.073,228.631 293.500 C 230.348 291.783,230.952 272.249,229.315 271.360 C 227.334 270.282,224.019 269.989,223.271 270.824 M279.117 270.835 C 277.905 272.125,278.043 292.928,279.269 293.854 C 280.238 294.586,280.666 294.564,281.695 293.731 L 282.557 293.033 282.677 282.273 L 282.797 271.513 281.806 270.734 C 280.540 269.738,280.133 269.754,279.117 270.835 M184.103 274.450 C 188.801 276.748,188.835 286.039,184.155 288.615 C 183.427 289.015,182.293 289.683,181.635 290.099 C 180.300 290.941,180.723 291.107,177.035 288.300 C 174.399 286.295,173.934 285.547,173.653 282.858 C 172.944 276.068,178.415 271.667,184.103 274.450 " stroke="none" fill="#f6e3e4" fill-rule="evenodd"></path><path id="path3" d="M148.128 77.785 C 146.587 78.160,144.965 79.055,144.109 80.003 C 143.707 80.447,142.455 81.277,141.326 81.848 C 139.979 82.528,139.013 83.325,138.518 84.163 C 138.104 84.865,137.110 85.853,136.311 86.358 C 135.446 86.904,134.469 87.988,133.902 89.030 C 133.376 89.995,132.475 91.102,131.899 91.489 C 131.271 91.911,130.359 93.229,129.627 94.773 C 128.954 96.191,127.828 97.929,127.124 98.634 C 126.319 99.441,125.601 100.694,125.187 102.012 C 124.808 103.221,123.945 104.783,123.148 105.704 C 122.317 106.664,121.584 108.013,121.309 109.084 C 120.541 112.082,119.785 113.955,118.923 114.992 C 117.636 116.539,117.314 117.334,116.390 121.245 C 115.804 123.724,115.228 125.253,114.600 126.000 C 113.464 127.349,112.758 129.523,111.975 134.080 C 111.645 135.998,111.141 137.971,110.855 138.464 C 109.207 141.309,108.509 143.283,108.146 146.119 C 107.308 152.672,106.935 154.402,105.942 156.351 C 104.485 159.209,104.194 160.546,103.556 167.321 C 102.954 173.715,102.364 177.064,101.371 179.726 C 100.276 182.657,99.748 186.502,99.353 194.422 C 98.808 205.324,97.965 217.123,97.362 222.283 C 97.081 224.694,96.740 228.025,96.606 229.685 L 96.362 232.703 97.778 234.120 C 99.818 236.159,100.905 236.343,110.971 236.345 C 123.014 236.348,123.439 236.138,123.900 229.972 C 124.036 228.154,124.314 224.447,124.518 221.735 C 124.722 219.023,125.056 215.324,125.259 213.516 C 125.710 209.516,126.641 194.476,126.934 186.484 C 127.216 178.775,127.736 174.614,128.804 171.534 C 130.000 168.083,130.679 164.091,131.140 157.808 C 131.674 150.517,132.102 148.182,133.306 145.992 C 134.583 143.668,135.001 141.942,135.530 136.804 C 136.054 131.712,136.427 130.266,137.747 128.188 C 138.796 126.538,139.281 124.818,140.404 118.758 C 140.814 116.548,141.221 115.423,141.858 114.739 C 143.116 113.388,143.469 112.580,144.273 109.213 C 144.980 106.253,145.811 104.475,146.487 104.475 C 146.875 104.475,148.696 101.009,149.367 98.995 C 149.719 97.939,150.189 97.525,152.078 96.609 L 154.364 95.500 156.223 96.472 C 157.245 97.006,158.264 97.505,158.486 97.580 C 158.708 97.655,159.400 99.443,160.024 101.553 C 160.720 103.909,161.556 105.893,162.190 106.696 C 163.285 108.083,164.384 111.219,164.384 112.958 C 164.384 115.121,165.571 119.705,166.614 121.569 C 167.917 123.898,168.268 125.611,168.783 132.162 C 169.235 137.914,169.973 141.937,171.009 144.292 C 171.996 146.538,172.668 151.796,173.133 160.913 C 173.809 174.151,174.816 184.137,175.713 186.498 C 176.372 188.232,176.809 195.145,177.176 209.626 C 177.391 218.137,177.705 224.660,177.919 225.060 C 178.925 226.940,179.464 227.024,191.262 227.147 C 205.921 227.300,205.798 227.353,206.399 220.585 C 206.584 218.505,206.985 214.502,207.292 211.689 C 207.598 208.877,208.013 203.781,208.215 200.365 C 209.091 185.515,209.334 180.837,209.684 172.055 C 210.032 163.302,210.564 158.548,211.449 156.289 C 212.265 154.204,213.006 149.435,213.703 141.781 C 214.568 132.281,214.854 130.625,216.032 128.299 C 217.011 126.368,217.891 122.531,218.270 118.539 C 218.615 114.917,219.313 112.403,220.368 110.991 C 221.435 109.561,222.340 106.903,222.685 104.181 C 222.930 102.246,223.120 101.902,226.019 98.133 C 227.993 95.568,227.927 95.600,230.384 96.054 C 232.716 96.485,234.000 97.455,234.350 99.051 C 234.478 99.633,235.149 100.558,235.843 101.105 C 236.894 101.935,237.287 102.691,238.214 105.661 C 238.967 108.072,239.721 109.695,240.551 110.688 C 241.776 112.154,241.888 112.507,243.109 118.721 C 243.464 120.530,244.015 121.984,244.728 122.999 C 246.053 124.885,246.421 126.209,247.320 132.337 C 247.879 136.140,248.286 137.676,249.276 139.712 C 250.622 142.478,251.079 144.748,251.704 151.781 C 252.096 156.186,253.072 160.639,254.068 162.564 C 254.737 163.860,255.535 170.569,256.062 179.344 C 256.531 187.160,256.871 189.957,258.086 195.982 C 259.100 201.012,259.583 208.060,259.942 223.088 C 260.282 237.310,259.335 236.354,273.059 236.323 C 285.997 236.294,287.013 235.969,287.512 231.702 C 288.074 226.894,286.518 205.164,285.307 200.913 C 284.423 197.810,283.937 193.808,283.467 185.753 C 282.953 176.949,282.499 173.754,281.395 171.142 C 280.149 168.194,279.559 165.415,279.071 160.183 C 278.576 154.883,277.940 152.214,276.515 149.471 C 275.678 147.859,275.275 146.274,274.706 142.357 C 273.982 137.379,273.443 135.692,272.108 134.228 C 271.678 133.756,271.094 131.862,270.533 129.114 C 269.440 123.760,269.367 123.553,268.090 122.190 C 267.423 121.477,266.862 120.262,266.488 118.720 C 265.266 113.676,265.060 113.135,263.938 112.016 C 263.172 111.252,262.558 110.072,262.106 108.493 C 261.187 105.290,260.318 103.612,259.199 102.878 C 258.685 102.542,258.265 102.112,258.265 101.923 C 258.265 100.738,256.463 97.135,255.167 95.726 C 254.325 94.812,253.264 93.279,252.808 92.319 C 252.310 91.269,251.560 90.356,250.925 90.028 C 250.345 89.728,249.537 88.829,249.129 88.029 C 248.721 87.230,247.722 86.136,246.910 85.598 C 246.097 85.060,245.198 84.169,244.913 83.618 C 244.589 82.991,243.612 82.245,242.305 81.627 C 241.156 81.083,239.906 80.245,239.527 79.764 C 238.115 77.968,236.955 77.677,230.547 77.511 C 223.759 77.334,222.388 77.591,220.343 79.424 C 219.602 80.088,218.420 80.924,217.717 81.283 C 215.613 82.356,214.204 83.584,212.560 85.776 C 211.703 86.919,210.384 88.511,209.628 89.315 C 208.872 90.119,207.985 91.434,207.657 92.237 C 207.329 93.041,206.447 94.274,205.697 94.977 C 204.677 95.933,204.068 97.022,203.282 99.295 C 202.685 101.021,201.947 102.486,201.575 102.685 C 200.632 103.190,199.930 104.732,198.913 108.531 C 198.347 110.646,197.764 112.054,197.326 112.361 C 196.408 113.003,195.194 115.901,194.890 118.174 C 194.756 119.178,194.400 120.888,194.100 121.974 L 193.554 123.948 191.357 121.609 C 189.021 119.123,188.433 117.930,187.731 114.261 C 187.221 111.595,186.607 110.239,185.160 108.578 C 184.588 107.921,184.030 106.935,183.919 106.386 C 183.295 103.291,182.475 101.347,181.206 99.957 C 180.448 99.127,179.618 97.790,179.363 96.986 C 178.646 94.732,177.924 93.468,176.415 91.817 C 175.653 90.983,174.706 89.668,174.311 88.895 C 173.916 88.121,172.919 86.947,172.094 86.285 C 171.270 85.623,170.345 84.596,170.038 84.004 C 169.717 83.382,168.751 82.552,167.754 82.041 C 166.804 81.554,165.330 80.499,164.477 79.696 C 162.290 77.635,153.137 76.565,148.128 77.785 M159.817 80.138 C 160.420 80.479,161.571 81.240,162.374 81.829 C 163.178 82.417,164.690 83.260,165.734 83.700 C 167.090 84.273,167.756 84.802,168.068 85.555 C 168.308 86.134,169.279 87.299,170.226 88.144 C 171.173 88.989,172.424 90.574,173.006 91.666 C 173.588 92.758,174.613 94.235,175.285 94.949 C 176.726 96.481,176.956 96.880,177.750 99.226 C 178.082 100.204,178.990 101.807,179.769 102.787 C 181.112 104.476,181.404 105.165,182.278 108.712 C 182.481 109.535,183.051 110.768,183.545 111.452 C 185.178 113.709,185.530 114.568,186.265 118.088 C 187.280 122.947,187.759 123.898,190.739 126.972 C 194.171 130.511,195.065 129.795,196.328 122.496 C 196.989 118.671,197.601 116.995,198.700 116.001 C 199.123 115.618,199.722 114.389,200.031 113.269 C 201.593 107.609,202.069 106.295,202.677 105.970 C 203.455 105.553,204.252 104.029,205.363 100.833 C 205.871 99.369,206.685 97.953,207.502 97.111 C 208.227 96.364,209.016 95.100,209.255 94.303 C 209.509 93.455,210.246 92.365,211.030 91.676 C 211.768 91.028,212.773 89.903,213.265 89.176 C 214.661 87.110,218.460 83.606,220.083 82.888 C 220.893 82.530,222.029 81.743,222.608 81.138 C 225.021 78.620,234.324 78.625,236.561 81.146 C 236.946 81.580,238.444 82.477,239.890 83.141 C 241.806 84.020,242.676 84.649,243.093 85.456 C 243.408 86.065,244.115 86.796,244.665 87.080 C 245.853 87.694,246.779 88.670,247.610 90.183 C 247.945 90.793,248.782 91.669,249.470 92.130 C 250.291 92.680,250.894 93.492,251.226 94.493 C 251.505 95.332,252.381 96.755,253.173 97.656 C 254.536 99.204,256.427 102.674,256.435 103.641 C 256.437 103.885,257.027 104.674,257.746 105.393 C 258.760 106.407,259.300 107.487,260.147 110.197 C 260.825 112.367,261.586 114.039,262.152 114.605 C 263.243 115.697,263.520 116.383,264.690 120.907 C 265.261 123.112,265.993 124.948,266.693 125.928 C 267.554 127.133,268.028 128.553,268.853 132.394 C 269.902 137.282,270.297 138.441,271.303 139.598 C 272.015 140.416,272.733 143.278,273.242 147.321 C 273.800 151.761,274.565 154.738,275.613 156.543 C 276.612 158.264,277.096 160.705,277.639 166.758 C 278.091 171.801,279.240 177.892,280.027 179.413 C 280.850 181.005,281.556 186.745,281.997 195.434 C 282.501 205.365,282.951 211.170,283.824 218.995 C 284.204 222.411,284.631 226.960,284.772 229.105 L 285.028 233.005 283.427 233.489 C 280.711 234.310,263.602 234.171,262.753 233.321 C 262.163 232.731,262.077 231.444,261.842 219.622 C 261.351 195.013,260.828 187.414,259.169 180.822 C 258.138 176.727,257.692 173.451,257.158 166.054 C 256.712 159.890,255.967 155.474,254.964 153.059 C 253.951 150.619,253.602 148.989,252.968 143.744 C 252.274 137.994,251.654 135.412,250.384 132.983 C 249.768 131.805,249.170 129.661,248.723 127.032 C 247.866 121.984,247.511 120.824,246.166 118.686 C 245.506 117.637,244.841 115.748,244.393 113.652 C 243.611 109.994,242.883 108.170,241.817 107.206 C 241.438 106.863,240.685 105.245,240.143 103.611 C 239.413 101.407,238.819 100.318,237.844 99.395 C 237.121 98.711,236.193 97.478,235.782 96.656 C 235.167 95.424,234.522 94.888,232.129 93.620 C 228.310 91.595,228.305 91.596,225.262 94.850 C 221.789 98.564,221.891 98.388,220.822 102.500 C 220.309 104.476,219.584 106.427,219.211 106.836 C 217.893 108.282,217.333 109.992,216.611 114.769 C 216.037 118.569,215.614 120.147,214.626 122.174 C 213.251 124.994,212.756 127.326,212.412 132.603 C 212.099 137.415,211.313 141.941,210.230 145.167 C 209.107 148.512,208.392 154.580,207.859 165.297 C 207.343 175.672,206.892 180.511,206.021 185.023 C 204.959 190.523,204.650 194.665,204.170 209.863 C 203.751 223.143,203.698 223.781,202.962 224.602 L 202.192 225.460 191.781 225.301 C 186.055 225.213,181.070 225.010,180.703 224.850 C 179.524 224.334,179.411 223.146,179.191 208.896 C 178.825 185.276,178.003 172.523,176.459 166.504 C 175.530 162.886,175.046 158.856,174.602 151.050 C 174.116 142.498,173.267 137.378,172.059 135.708 C 171.572 135.035,171.006 132.088,170.584 128.037 C 169.950 121.934,169.255 118.748,168.060 116.465 C 167.389 115.183,166.628 112.719,166.068 110.009 C 165.179 105.712,164.549 103.962,163.520 102.933 C 163.237 102.650,162.566 101.196,162.029 99.702 C 160.805 96.300,160.292 95.510,158.809 94.752 C 158.158 94.419,157.009 93.594,156.255 92.918 C 154.534 91.376,154.073 91.382,152.490 92.966 C 151.788 93.667,150.561 94.574,149.764 94.981 C 148.640 95.554,148.057 96.232,147.166 97.997 C 146.534 99.249,145.496 100.883,144.859 101.628 C 144.090 102.528,143.373 104.079,142.722 106.253 C 142.184 108.052,141.328 110.017,140.821 110.619 C 139.531 112.153,138.893 113.846,138.433 116.955 C 137.904 120.527,137.473 121.866,136.197 123.894 C 135.127 125.594,134.781 126.983,133.547 134.533 C 133.206 136.616,132.588 138.825,132.065 139.830 C 130.911 142.045,130.199 145.251,129.696 150.502 C 129.098 156.738,128.606 159.454,127.483 162.720 C 126.281 166.215,125.807 169.612,125.289 178.447 C 124.823 186.395,124.072 193.322,123.329 196.530 C 122.271 201.095,121.279 215.856,121.279 227.038 C 121.279 234.753,122.157 234.155,110.819 234.155 C 102.144 234.155,101.938 234.138,100.998 233.329 L 100.038 232.503 100.446 217.713 C 100.892 201.540,101.551 193.152,102.642 189.772 C 103.694 186.508,104.389 182.131,105.018 174.795 C 105.624 167.733,106.071 165.454,107.533 161.988 C 108.134 160.560,108.676 158.161,109.058 155.230 C 109.858 149.087,110.617 145.534,111.237 145.019 C 112.079 144.321,113.104 141.080,113.778 136.986 C 114.422 133.076,114.764 132.076,116.345 129.498 C 116.837 128.694,117.418 127.132,117.635 126.027 C 118.399 122.132,119.422 119.243,120.341 118.379 C 121.296 117.482,122.073 115.505,122.771 112.195 C 123.051 110.866,123.578 109.798,124.409 108.878 C 125.663 107.491,126.839 105.139,127.277 103.146 C 127.412 102.531,128.106 101.469,128.820 100.786 C 129.534 100.103,130.489 98.712,130.944 97.695 C 131.399 96.678,132.554 94.964,133.512 93.886 C 134.470 92.807,135.537 91.291,135.884 90.517 C 136.290 89.609,137.110 88.732,138.191 88.046 C 139.114 87.461,140.123 86.491,140.433 85.890 C 140.839 85.106,141.851 84.371,144.015 83.290 C 145.674 82.460,147.446 81.386,147.953 80.902 C 149.724 79.212,157.317 78.723,159.817 80.138 M295.525 222.139 C 290.205 222.983,287.861 233.108,292.498 235.220 C 297.200 237.362,304.292 233.190,304.292 228.281 C 304.292 227.823,298.221 221.719,297.824 221.778 C 297.665 221.801,296.630 221.964,295.525 222.139 M299.277 226.716 L 300.877 228.410 300.098 230.559 C 299.143 233.197,298.526 233.650,295.612 233.857 C 292.763 234.060,292.266 233.613,291.902 230.521 C 291.514 227.237,292.458 225.655,294.986 225.354 C 295.986 225.235,297.000 225.112,297.240 225.080 C 297.480 225.049,298.397 225.785,299.277 226.716 M87.356 257.772 C 85.441 260.095,84.985 264.383,86.420 266.575 C 86.900 267.310,86.889 267.502,86.310 268.385 C 85.512 269.602,85.103 292.044,85.834 294.518 C 86.369 296.330,87.683 296.986,90.770 296.986 C 96.236 296.986,96.560 296.431,96.835 286.575 C 97.124 276.220,97.096 276.275,102.420 275.601 C 104.811 275.298,105.821 274.255,106.175 271.723 C 106.690 268.045,106.944 271.493,106.989 282.777 C 107.044 296.697,107.160 297.011,112.219 296.966 C 117.882 296.915,118.290 296.283,118.574 287.123 C 118.695 283.205,118.963 279.342,119.170 278.539 L 119.545 277.078 119.993 278.356 C 120.256 279.107,120.520 282.590,120.633 286.791 C 120.879 295.983,121.139 296.437,126.403 296.879 C 131.684 297.321,132.171 296.540,132.486 287.126 C 132.668 281.677,132.824 280.183,133.208 280.183 C 133.589 280.183,133.699 281.087,133.699 284.222 C 133.699 290.627,134.251 293.201,135.858 294.276 C 136.579 294.758,137.634 295.524,138.203 295.978 C 139.541 297.047,144.483 297.142,146.387 296.137 C 148.548 294.995,148.676 294.344,148.676 284.463 C 148.676 272.665,148.517 271.896,145.605 269.567 C 144.381 268.588,142.885 267.389,142.281 266.903 C 139.757 264.872,136.563 264.702,134.429 266.484 C 132.436 268.149,128.983 268.351,127.243 266.904 C 125.041 265.072,123.408 264.764,121.073 265.739 C 116.379 267.701,109.960 266.771,108.504 263.918 C 104.925 256.906,103.096 255.534,99.334 257.040 C 97.939 257.598,97.590 257.598,94.466 257.040 C 89.339 256.124,88.656 256.194,87.356 257.772 M156.731 257.808 C 156.110 258.562,155.441 259.753,155.246 260.457 C 154.650 262.597,154.778 293.465,155.389 294.926 C 156.742 298.165,164.869 297.626,165.960 294.224 C 166.150 293.634,166.536 292.582,166.818 291.888 L 167.332 290.625 168.095 291.888 C 168.515 292.582,168.978 293.233,169.124 293.333 C 169.269 293.434,169.583 293.885,169.821 294.337 C 171.722 297.947,188.224 298.304,191.174 294.798 C 191.709 294.162,192.146 293.511,192.146 293.351 C 192.146 293.191,192.898 292.341,193.816 291.461 C 195.493 289.857,196.598 288.092,197.429 285.691 C 197.875 284.403,197.877 284.407,198.325 287.497 C 199.417 295.026,199.849 295.840,203.174 296.637 C 210.327 298.353,213.519 296.364,214.547 289.551 C 215.019 286.419,215.234 285.803,216.198 284.802 C 217.687 283.259,218.005 282.284,218.646 277.305 C 219.704 269.087,220.208 271.290,220.247 284.304 C 220.285 297.088,220.392 297.272,227.506 296.824 C 232.740 296.495,232.723 296.495,235.472 296.817 C 238.387 297.158,239.947 296.625,241.431 294.777 L 242.602 293.321 242.862 286.946 L 243.122 280.571 244.392 279.260 C 246.045 277.555,246.115 277.790,246.204 285.297 C 246.337 296.475,246.675 297.141,252.107 296.929 C 257.419 296.722,257.806 295.929,257.871 285.114 C 257.920 276.967,258.202 276.324,261.965 275.792 C 265.152 275.342,265.972 274.625,266.796 271.570 C 267.169 270.189,267.786 268.663,268.166 268.179 C 270.488 265.227,266.659 256.433,263.056 256.440 C 257.862 256.451,254.441 261.294,256.316 265.981 C 257.554 269.075,254.491 269.461,251.458 266.592 C 249.412 264.657,245.249 264.672,242.795 266.623 C 241.337 267.781,240.656 267.778,238.721 266.604 C 237.286 265.733,236.956 265.757,234.690 266.904 C 231.912 268.311,231.598 268.055,231.598 264.375 C 231.598 258.920,229.685 256.438,225.481 256.438 C 221.773 256.438,219.437 260.928,220.575 265.868 C 220.853 267.076,220.818 267.673,220.425 268.425 C 220.144 268.965,219.912 269.786,219.911 270.250 C 219.910 270.719,219.746 270.993,219.543 270.868 C 219.342 270.743,219.178 270.231,219.178 269.730 C 219.178 268.790,217.702 267.173,216.026 266.276 C 215.240 265.855,214.902 265.910,213.228 266.729 C 212.181 267.241,210.769 267.876,210.091 268.140 C 208.650 268.701,207.509 270.816,207.497 272.950 C 207.467 277.934,206.135 278.942,205.790 274.240 C 205.429 269.310,204.955 268.607,200.885 266.972 C 197.709 265.696,197.904 265.691,195.941 267.100 C 194.712 267.983,194.196 268.667,193.807 269.931 C 193.524 270.848,193.281 271.257,193.267 270.840 C 193.228 269.651,191.782 268.604,189.553 268.150 C 188.105 267.855,187.115 267.373,186.158 266.497 C 183.717 264.261,177.241 264.332,174.809 266.622 C 174.198 267.197,172.887 267.936,171.894 268.264 C 169.932 268.913,168.409 270.112,168.389 271.023 C 168.382 271.339,168.156 271.996,167.887 272.481 C 167.071 273.954,166.669 272.518,166.409 267.209 C 166.092 260.717,165.990 260.254,164.510 258.616 C 162.161 256.016,158.521 255.638,156.731 257.808 M278.586 256.990 C 274.036 259.363,272.727 263.140,275.436 266.079 L 276.875 267.640 275.795 268.438 C 273.590 270.069,273.548 270.349,273.675 282.614 L 273.790 293.756 275.125 294.979 C 277.289 296.961,280.254 297.468,283.699 296.445 C 287.196 295.407,287.787 293.710,287.834 284.578 C 287.848 281.873,288.039 280.271,288.487 279.099 L 289.119 277.443 289.379 278.904 C 289.522 279.708,289.648 282.407,289.659 284.902 C 289.709 295.570,290.755 296.930,298.940 296.970 C 304.399 296.997,305.640 295.853,305.301 291.110 C 305.116 288.523,303.906 286.393,302.622 286.393 C 300.167 286.393,300.744 276.815,303.262 275.772 C 304.693 275.179,305.250 274.243,305.724 271.630 C 306.227 268.860,306.118 268.913,308.635 270.211 C 313.707 272.827,318.174 270.420,318.174 265.071 C 318.174 261.026,317.561 260.107,313.698 258.352 L 310.865 257.065 308.949 258.876 C 307.894 259.873,306.594 260.974,306.058 261.324 C 305.523 261.675,304.826 262.607,304.511 263.396 C 304.195 264.185,303.584 265.183,303.153 265.614 L 302.369 266.398 301.047 263.909 C 298.140 258.429,291.753 258.215,289.840 263.533 C 288.965 265.965,288.577 265.812,287.643 262.668 C 286.401 258.485,281.550 255.444,278.586 256.990 M94.765 259.760 C 97.625 260.455,97.674 260.454,99.148 259.750 C 104.425 257.231,107.013 261.201,105.446 269.412 C 104.509 274.325,101.566 276.081,98.666 273.457 C 96.941 271.896,96.033 275.721,95.750 285.745 C 95.483 295.167,95.438 295.272,91.441 295.819 C 86.602 296.481,86.441 296.072,86.266 282.670 C 86.113 270.847,86.313 269.507,88.429 268.193 C 89.897 267.282,97.495 269.111,97.557 270.390 C 97.602 271.310,98.293 269.074,98.338 267.863 C 98.406 266.053,98.049 265.888,94.960 266.305 C 93.462 266.507,91.497 266.771,90.592 266.892 C 86.719 267.411,85.110 262.658,88.086 259.490 C 89.039 258.476,89.568 258.497,94.765 259.760 M161.899 259.390 C 164.407 260.047,164.903 261.283,165.114 267.397 C 165.277 272.128,165.388 272.840,166.149 274.064 C 167.281 275.886,167.409 275.834,168.826 272.974 C 170.288 270.025,171.230 269.410,176.730 267.818 L 180.491 266.729 183.781 267.609 C 189.877 269.240,191.093 269.879,192.264 272.061 C 193.455 274.283,193.699 274.254,194.518 271.787 C 195.101 270.033,196.797 268.128,197.775 268.128 C 202.060 268.128,204.337 269.999,204.727 273.841 C 205.153 278.029,206.197 281.446,206.773 280.536 C 207.279 279.736,208.121 276.668,208.604 273.860 C 209.545 268.394,215.579 266.118,217.872 270.365 C 218.843 272.164,217.721 278.263,215.711 282.099 C 214.846 283.750,214.147 285.864,213.649 288.327 C 212.476 294.142,211.868 294.948,208.004 295.816 C 203.237 296.887,200.740 294.574,199.436 287.878 C 198.127 281.162,197.966 281.046,195.771 285.233 C 190.966 294.402,188.371 296.270,180.482 296.240 C 174.179 296.216,170.594 294.246,168.393 289.598 C 167.178 287.033,166.744 287.307,165.398 291.484 C 163.890 296.161,158.636 297.782,156.312 294.288 C 155.898 293.664,155.775 290.614,155.676 278.400 C 155.541 261.804,155.628 260.997,157.730 259.344 C 158.708 258.575,158.792 258.576,161.899 259.390 M228.837 259.709 C 230.626 261.193,230.977 263.854,229.600 265.491 C 228.578 266.706,224.626 267.432,223.196 266.666 C 220.906 265.441,221.025 260.408,223.375 259.093 C 224.158 258.655,228.103 259.099,228.837 259.709 M264.460 259.587 C 266.162 261.019,266.668 262.291,266.654 265.096 C 266.612 273.164,263.379 276.845,259.519 273.219 C 259.060 272.788,258.523 272.535,258.326 272.657 C 257.636 273.082,256.837 279.689,256.654 286.473 C 256.420 295.154,256.261 295.442,251.387 296.010 C 250.026 296.168,249.644 296.050,248.647 295.160 L 247.489 294.126 247.270 286.515 C 246.954 275.481,246.335 274.234,242.832 277.576 L 240.913 279.406 240.699 286.549 C 240.464 294.390,240.369 294.713,238.010 295.718 C 236.869 296.205,234.358 295.721,233.251 294.802 C 232.866 294.482,232.327 294.530,230.985 295.004 C 230.016 295.345,227.898 295.703,226.278 295.800 L 223.332 295.975 222.351 294.809 L 221.370 293.643 221.358 285.177 C 221.351 280.522,221.198 275.563,221.017 274.159 C 220.286 268.479,223.909 266.494,230.328 269.059 L 232.529 269.938 234.341 269.021 C 235.989 268.187,236.419 268.125,239.081 268.339 C 240.992 268.493,242.580 268.417,243.653 268.122 C 246.499 267.337,249.753 267.645,252.055 268.916 C 253.901 269.936,258.132 271.160,258.679 270.833 C 259.599 270.283,259.353 267.331,258.216 265.279 L 257.030 263.137 257.744 261.888 C 259.199 259.348,262.736 258.136,264.460 259.587 M281.982 259.347 C 282.755 259.741,283.911 260.726,284.552 261.535 L 285.717 263.006 284.945 264.091 C 282.401 267.663,278.635 267.778,276.609 264.345 C 274.959 261.548,278.974 257.813,281.982 259.347 M316.059 262.003 C 318.247 264.846,316.515 269.054,313.307 268.692 C 310.018 268.319,309.308 267.822,308.526 265.341 L 307.859 263.224 309.272 262.001 C 311.047 260.463,314.875 260.465,316.059 262.003 M297.508 262.075 C 298.279 262.380,298.993 263.253,300.073 265.215 C 300.933 266.776,301.954 268.123,302.474 268.381 C 305.314 269.790,305.392 271.978,302.692 274.507 C 298.996 277.968,298.724 284.099,302.109 287.671 C 306.030 291.809,304.556 295.817,299.074 295.928 C 292.172 296.069,290.874 294.170,290.420 283.269 C 290.151 276.815,289.786 274.948,288.853 275.234 C 288.605 275.310,287.969 275.467,287.441 275.582 C 286.109 275.872,286.016 276.375,285.679 285.142 C 285.353 293.603,285.276 293.896,283.032 295.157 C 280.750 296.439,278.516 296.057,276.724 294.077 C 275.817 293.074,275.332 273.424,276.165 271.413 C 277.686 267.742,283.202 266.925,284.453 270.185 C 284.625 270.634,284.789 270.603,285.435 269.999 C 285.861 269.600,286.962 268.951,287.882 268.558 C 289.418 267.901,289.621 267.657,290.394 265.536 C 291.914 261.369,293.622 260.537,297.508 262.075 M126.334 268.133 C 129.256 269.048,131.910 269.054,134.814 268.150 C 136.707 267.561,137.436 267.502,139.139 267.800 C 143.105 268.495,144.303 269.413,146.008 273.059 L 147.032 275.251 147.032 284.263 C 147.032 294.697,147.071 294.579,143.308 295.650 C 141.059 296.290,140.488 296.146,138.721 294.499 L 137.717 293.562 137.717 287.109 C 137.717 279.032,137.623 278.731,134.770 277.704 L 132.577 276.915 132.159 277.910 C 131.923 278.470,131.638 282.140,131.505 286.322 L 131.269 293.739 130.148 294.861 C 128.908 296.101,128.002 296.231,125.499 295.531 C 122.419 294.668,122.253 294.244,122.096 286.842 C 121.951 280.058,121.180 276.019,119.937 275.542 C 118.311 274.918,117.583 277.929,117.301 286.454 C 117.034 294.486,116.914 294.857,114.371 295.489 C 110.958 296.338,110.741 296.317,109.302 294.999 L 107.945 293.755 107.945 281.866 C 107.945 267.011,107.242 268.336,115.170 268.250 C 118.228 268.217,121.306 268.028,122.009 267.831 C 123.799 267.329,123.760 267.326,126.334 268.133 M178.693 276.128 C 175.740 279.332,175.279 280.211,175.527 282.170 C 175.875 284.925,175.926 285.004,178.282 286.474 L 180.461 287.834 182.916 286.657 C 185.599 285.370,185.835 284.994,185.900 281.900 C 185.995 277.306,181.170 273.441,178.693 276.128 M181.636 277.260 C 182.107 277.963,183.015 278.868,183.653 279.269 C 186.056 280.783,185.116 284.577,182.102 285.527 C 178.666 286.610,176.045 282.241,178.430 279.407 C 178.942 278.798,179.361 278.159,179.361 277.987 C 179.361 275.829,180.444 275.483,181.636 277.260 " stroke="none" fill="#d95b3c" fill-rule="evenodd"></path><path id="path4" d="M294.986 225.354 C 292.458 225.655,291.514 227.237,291.902 230.521 C 292.266 233.613,292.763 234.060,295.612 233.857 C 298.526 233.650,299.143 233.197,300.098 230.559 L 300.877 228.410 299.277 226.716 C 298.397 225.785,297.480 225.049,297.240 225.080 C 297.000 225.112,295.986 225.235,294.986 225.354 M88.086 259.490 C 85.110 262.658,86.719 267.411,90.592 266.892 C 91.497 266.771,93.462 266.507,94.960 266.305 C 98.049 265.888,98.406 266.053,98.338 267.863 C 98.293 269.074,97.602 271.310,97.557 270.390 C 97.495 269.111,89.897 267.282,88.429 268.193 C 86.313 269.507,86.113 270.847,86.266 282.670 C 86.441 296.072,86.602 296.481,91.441 295.819 C 95.438 295.272,95.483 295.167,95.750 285.745 C 96.033 275.721,96.941 271.896,98.666 273.457 C 101.566 276.081,104.509 274.325,105.446 269.412 C 107.013 261.201,104.425 257.231,99.148 259.750 C 97.674 260.454,97.625 260.455,94.765 259.760 C 89.568 258.497,89.039 258.476,88.086 259.490 M157.730 259.344 C 155.628 260.997,155.541 261.804,155.676 278.400 C 155.775 290.614,155.898 293.664,156.312 294.288 C 158.636 297.782,163.890 296.161,165.398 291.484 C 166.744 287.307,167.178 287.033,168.393 289.598 C 170.594 294.246,174.179 296.216,180.482 296.240 C 188.371 296.270,190.966 294.402,195.771 285.233 C 197.966 281.046,198.127 281.162,199.436 287.878 C 200.740 294.574,203.237 296.887,208.004 295.816 C 211.868 294.948,212.476 294.142,213.649 288.327 C 214.147 285.864,214.846 283.750,215.711 282.099 C 217.721 278.263,218.843 272.164,217.872 270.365 C 215.579 266.118,209.545 268.394,208.604 273.860 C 208.121 276.668,207.279 279.736,206.773 280.536 C 206.197 281.446,205.153 278.029,204.727 273.841 C 204.337 269.999,202.060 268.128,197.775 268.128 C 196.797 268.128,195.101 270.033,194.518 271.787 C 193.699 274.254,193.455 274.283,192.264 272.061 C 191.093 269.879,189.877 269.240,183.781 267.609 L 180.491 266.729 176.730 267.818 C 171.230 269.410,170.288 270.025,168.826 272.974 C 167.409 275.834,167.281 275.886,166.149 274.064 C 165.388 272.840,165.277 272.128,165.114 267.397 C 164.871 260.340,164.671 260.028,159.619 258.812 C 158.978 258.658,158.392 258.823,157.730 259.344 M223.375 259.093 C 221.770 259.991,220.968 263.368,221.922 265.213 C 223.614 268.485,230.502 266.976,230.502 263.333 C 230.502 260.220,226.071 257.584,223.375 259.093 M260.437 259.635 C 259.160 260.283,258.206 261.082,257.744 261.888 L 257.030 263.137 258.216 265.279 C 259.353 267.331,259.599 270.283,258.679 270.833 C 258.132 271.160,253.901 269.936,252.055 268.916 C 249.753 267.645,246.499 267.337,243.653 268.122 C 242.580 268.417,240.992 268.493,239.081 268.339 C 236.419 268.125,235.989 268.187,234.341 269.021 L 232.529 269.938 230.328 269.059 C 223.909 266.494,220.286 268.479,221.017 274.159 C 221.198 275.563,221.351 280.522,221.358 285.177 L 221.370 293.643 222.351 294.809 L 223.332 295.975 226.278 295.800 C 227.898 295.703,230.016 295.345,230.985 295.004 C 232.327 294.530,232.866 294.482,233.251 294.802 C 234.358 295.721,236.869 296.205,238.010 295.718 C 240.369 294.713,240.464 294.390,240.699 286.549 L 240.913 279.406 242.832 277.576 C 246.335 274.234,246.954 275.481,247.270 286.515 L 247.489 294.126 248.647 295.160 C 249.644 296.050,250.026 296.168,251.387 296.010 C 256.261 295.442,256.420 295.154,256.654 286.473 C 256.837 279.689,257.636 273.082,258.326 272.657 C 258.523 272.535,259.060 272.788,259.519 273.219 C 262.474 275.995,265.125 274.621,266.169 269.772 C 267.876 261.844,265.245 257.192,260.437 259.635 M278.627 259.554 C 276.467 261.022,275.710 262.820,276.609 264.345 C 278.635 267.778,282.401 267.663,284.945 264.091 L 285.717 263.006 284.552 261.535 C 282.429 258.854,280.571 258.233,278.627 259.554 M94.007 262.680 L 95.046 263.162 93.642 263.665 C 89.309 265.216,89.197 265.226,88.422 264.137 C 87.722 263.155,87.722 263.123,88.408 261.996 L 89.104 260.851 91.036 261.524 C 92.099 261.895,93.436 262.415,94.007 262.680 M103.968 264.419 C 103.862 265.153,103.669 267.099,103.541 268.743 C 103.132 273.980,100.457 274.383,100.457 269.207 C 100.457 267.593,100.202 266.004,99.754 264.826 L 99.052 262.977 100.574 261.875 L 102.096 260.772 103.129 261.928 C 103.984 262.884,104.128 263.314,103.968 264.419 M162.041 262.454 C 163.417 263.354,163.564 287.827,162.221 292.271 C 161.575 294.406,158.242 295.090,157.612 293.217 C 156.825 290.874,156.990 263.425,157.799 262.115 L 158.591 260.834 159.935 261.395 C 160.674 261.703,161.622 262.180,162.041 262.454 M282.192 262.283 L 282.914 263.081 281.684 264.180 L 280.453 265.280 279.329 264.155 L 278.204 263.030 279.247 261.942 C 280.377 260.762,280.866 260.819,282.192 262.283 M309.272 262.001 L 307.859 263.224 308.526 265.341 C 309.308 267.822,310.018 268.319,313.307 268.692 C 316.121 269.010,316.717 268.368,316.704 265.033 C 316.689 260.914,312.501 259.205,309.272 262.001 M226.951 261.753 C 228.496 262.033,229.326 263.053,228.541 263.705 C 226.868 265.093,222.831 264.751,222.831 263.221 C 222.831 262.281,224.014 261.130,224.790 261.316 C 225.219 261.418,226.192 261.615,226.951 261.753 M263.995 261.981 C 264.974 262.902,265.032 263.785,264.431 268.651 C 263.972 272.364,263.531 273.179,262.326 272.534 C 261.658 272.177,261.551 271.785,261.541 269.668 C 261.533 268.207,261.243 266.402,260.822 265.205 C 259.921 262.645,259.893 262.847,261.279 261.960 C 262.768 261.006,262.958 261.007,263.995 261.981 M292.264 262.200 C 291.698 262.766,290.857 264.267,290.394 265.536 C 289.621 267.657,289.418 267.901,287.882 268.558 C 286.962 268.951,285.861 269.600,285.435 269.999 C 284.789 270.603,284.625 270.634,284.453 270.185 C 283.202 266.925,277.686 267.742,276.165 271.413 C 275.332 273.424,275.817 293.074,276.724 294.077 C 278.516 296.057,280.750 296.439,283.032 295.157 C 285.276 293.896,285.353 293.603,285.679 285.142 C 286.016 276.375,286.109 275.872,287.441 275.582 C 287.969 275.467,288.605 275.310,288.853 275.234 C 289.786 274.948,290.151 276.815,290.420 283.269 C 290.874 294.170,292.172 296.069,299.074 295.928 C 304.556 295.817,306.030 291.809,302.109 287.671 C 298.724 284.099,298.996 277.968,302.692 274.507 C 305.392 271.978,305.314 269.790,302.474 268.381 C 301.954 268.123,300.933 266.776,300.073 265.215 C 298.476 262.315,297.866 261.869,294.865 261.412 C 293.465 261.198,293.180 261.285,292.264 262.200 M296.719 265.222 C 297.275 265.481,298.216 266.483,298.809 267.448 C 299.403 268.413,300.537 269.611,301.329 270.111 C 303.648 271.575,303.621 272.373,301.216 273.399 C 297.556 274.960,296.606 282.364,299.361 287.854 C 300.016 289.160,300.855 290.886,301.225 291.689 C 301.596 292.493,301.953 293.259,302.019 293.390 C 302.141 293.636,298.910 294.429,297.788 294.429 C 297.445 294.429,296.313 293.895,295.271 293.242 C 292.440 291.467,292.195 290.683,291.919 282.493 C 291.660 274.834,291.554 274.483,289.060 273.084 C 287.295 272.095,287.317 271.725,289.218 270.348 C 290.372 269.512,291.095 268.532,292.065 266.488 L 293.365 263.748 294.536 264.249 C 295.181 264.524,296.163 264.962,296.719 265.222 M122.009 267.831 C 121.306 268.028,118.228 268.217,115.170 268.250 C 107.242 268.336,107.945 267.011,107.945 281.866 L 107.945 293.755 109.302 294.999 C 110.741 296.317,110.958 296.338,114.371 295.489 C 116.914 294.857,117.034 294.486,117.301 286.454 C 117.583 277.929,118.311 274.918,119.937 275.542 C 121.180 276.019,121.951 280.058,122.096 286.842 C 122.253 294.244,122.419 294.668,125.499 295.531 C 128.002 296.231,128.908 296.101,130.148 294.861 L 131.269 293.739 131.505 286.322 C 131.638 282.140,131.923 278.470,132.159 277.910 L 132.577 276.915 134.770 277.704 C 137.623 278.731,137.717 279.032,137.717 287.109 L 137.717 293.562 138.721 294.499 C 140.488 296.146,141.059 296.290,143.308 295.650 C 147.071 294.579,147.032 294.697,147.032 284.263 L 147.032 275.251 146.008 273.059 C 144.303 269.413,143.105 268.495,139.139 267.800 C 137.436 267.502,136.707 267.561,134.814 268.150 C 131.910 269.054,129.256 269.048,126.334 268.133 C 123.760 267.326,123.799 267.329,122.009 267.831 M129.044 270.194 C 131.351 270.323,133.839 270.249,135.071 270.016 C 142.794 268.551,144.292 270.720,144.292 283.361 C 144.292 291.423,143.948 293.450,142.476 294.060 C 140.040 295.069,139.552 293.607,139.547 285.273 C 139.541 276.589,138.687 274.625,134.725 274.176 C 130.630 273.713,130.089 274.967,129.736 285.746 C 129.452 294.407,129.310 294.846,127.037 294.096 C 125.293 293.520,124.895 292.131,124.569 285.479 C 124.190 277.752,122.852 274.341,119.975 273.766 C 117.063 273.185,115.661 276.501,115.253 284.932 C 114.918 291.853,114.431 293.446,112.470 294.033 C 109.594 294.895,109.273 293.513,109.243 280.141 C 109.219 269.717,109.159 269.850,113.725 270.152 C 115.368 270.261,118.110 270.195,119.817 270.006 C 121.525 269.817,123.416 269.732,124.018 269.818 C 124.621 269.903,126.882 270.072,129.044 270.194 M186.804 270.441 L 189.681 271.233 191.103 274.521 C 191.886 276.329,192.846 278.440,193.238 279.213 C 194.272 281.253,193.723 283.562,190.758 289.633 C 190.427 290.311,189.763 291.133,189.281 291.460 C 188.799 291.787,188.007 292.424,187.521 292.875 C 184.524 295.656,176.697 295.620,173.970 292.812 C 173.273 292.094,172.503 291.507,172.259 291.507 C 171.343 291.507,170.191 289.715,169.498 287.212 C 168.027 281.903,168.186 279.709,170.468 273.893 L 171.430 271.440 173.660 270.720 C 176.821 269.701,176.989 269.675,180.639 269.661 C 182.916 269.653,184.811 269.892,186.804 270.441 M251.623 270.882 C 252.376 271.390,253.215 272.508,253.841 273.840 L 254.848 275.982 254.704 283.653 C 254.525 293.173,254.443 293.491,252.003 294.076 C 249.007 294.795,248.991 294.753,248.723 285.375 C 248.408 274.376,247.839 273.190,243.325 274.120 C 239.611 274.885,238.910 276.499,238.897 284.310 C 238.883 292.523,238.172 294.971,236.053 294.094 C 234.469 293.437,234.085 290.477,234.225 280.014 L 234.338 271.627 235.567 270.799 C 236.645 270.072,237.115 269.994,239.403 270.160 C 240.836 270.264,242.831 270.197,243.836 270.012 C 246.575 269.506,250.179 269.909,251.623 270.882 M91.579 270.503 C 94.274 271.304,94.178 270.826,93.910 282.009 C 93.635 293.478,93.650 293.418,90.933 294.070 C 87.805 294.821,87.881 295.088,87.725 282.787 C 87.556 269.444,87.595 269.320,91.579 270.503 M200.461 270.721 C 202.582 271.331,202.627 271.417,203.484 276.525 C 205.070 285.976,207.624 286.322,209.690 277.366 C 210.936 271.968,210.960 271.924,213.184 270.835 C 215.534 269.686,216.621 270.152,216.621 272.309 C 216.621 273.863,215.605 277.658,215.005 278.345 C 213.945 279.559,213.310 281.405,212.430 285.832 C 211.412 290.944,211.290 291.262,209.803 292.671 C 205.777 296.485,202.104 293.362,200.574 284.824 C 199.895 281.036,198.656 277.626,197.958 277.626 C 196.143 277.626,195.390 272.469,196.962 270.796 C 197.400 270.330,198.017 270.021,198.332 270.110 C 198.647 270.200,199.605 270.475,200.461 270.721 M229.315 271.360 C 230.952 272.249,230.348 291.783,228.631 293.500 C 228.058 294.073,223.899 294.287,223.465 293.766 C 222.596 292.718,222.419 271.777,223.271 270.824 C 224.019 269.989,227.334 270.282,229.315 271.360 M281.806 270.734 L 282.797 271.513 282.677 282.273 L 282.557 293.033 281.695 293.731 C 280.666 294.564,280.238 294.586,279.269 293.854 C 278.043 292.928,277.905 272.125,279.117 270.835 C 280.133 269.754,280.540 269.738,281.806 270.734 M178.630 273.811 C 172.558 276.492,171.704 284.244,177.035 288.300 C 180.723 291.107,180.300 290.941,181.635 290.099 C 182.293 289.683,183.427 289.015,184.155 288.615 C 188.835 286.039,188.801 276.748,184.103 274.450 C 181.815 273.330,180.157 273.136,178.630 273.811 M182.033 275.495 C 184.302 276.706,185.951 279.437,185.900 281.900 C 185.835 284.994,185.599 285.370,182.916 286.657 L 180.461 287.834 178.282 286.474 C 175.926 285.004,175.875 284.925,175.527 282.170 C 175.311 280.464,175.387 280.201,176.505 278.754 C 179.392 275.021,180.226 274.529,182.033 275.495 " stroke="none" fill="#dc7c84" fill-rule="evenodd"></path></g></svg>