<svg id="svg" version="1.1" xmlns="http://www.w3.org/2000/svg" xmlns:xlink="http://www.w3.org/1999/xlink" width="400" height="400" viewBox="0, 0, 400,400"><g id="svgg"><path id="path0" d="M243.819 64.000 C 243.819 71.792,243.863 74.979,243.916 71.083 C 243.970 67.188,243.970 60.813,243.916 56.917 C 243.863 53.021,243.819 56.208,243.819 64.000 M243.667 228.531 C 243.667 354.305,243.666 354.398,242.980 357.781 C 240.538 369.820,232.651 379.829,221.226 385.390 C 219.727 386.120,218.731 386.647,219.014 386.562 C 219.296 386.477,225.971 384.577,233.847 382.339 C 307.548 361.400,325.180 356.281,327.761 355.071 C 338.092 350.230,345.840 340.977,348.924 329.796 L 349.833 326.500 349.920 214.583 L 350.007 102.667 296.837 102.667 L 243.667 102.667 243.667 228.531 M50.000 149.453 L 50.000 169.291 86.583 194.921 C 106.704 209.018,123.579 220.820,124.083 221.148 L 125.000 221.743 125.000 201.922 L 125.000 182.100 89.750 157.428 C 70.362 143.858,53.487 132.049,52.250 131.185 L 50.000 129.615 50.000 149.453 M214.909 306.241 C 215.501 306.314,216.551 306.315,217.243 306.243 C 217.934 306.171,217.450 306.111,216.167 306.109 C 214.883 306.108,214.317 306.167,214.909 306.241 M121.667 306.562 C 119.830 306.867,116.399 308.113,114.667 309.106 C 113.658 309.684,112.683 310.109,112.500 310.050 C 112.317 309.992,112.265 310.042,112.384 310.162 C 112.504 310.282,111.917 311.007,111.080 311.773 C 110.243 312.540,109.001 314.023,108.321 315.070 C 107.641 316.117,106.982 316.871,106.858 316.747 C 106.733 316.622,106.740 316.803,106.872 317.148 C 107.028 317.554,106.989 317.699,106.761 317.558 C 106.567 317.439,106.424 317.526,106.443 317.754 C 106.462 317.981,106.115 319.292,105.673 320.667 C 102.863 329.402,106.879 339.105,115.333 344.012 C 118.304 345.736,131.657 353.335,158.500 368.579 C 169.317 374.722,178.767 380.097,179.500 380.524 L 180.833 381.301 180.726 378.300 C 180.667 376.650,180.854 372.694,181.143 369.509 C 181.431 366.324,181.668 360.669,181.671 356.942 C 181.673 353.216,181.897 347.767,182.169 344.833 C 182.441 341.900,182.666 336.425,182.669 332.667 C 182.673 328.146,182.955 322.680,183.504 316.514 C 183.960 311.388,184.333 307.001,184.333 306.764 C 184.333 306.352,124.102 306.159,121.667 306.562 " stroke="none" fill="#d93a08" fill-rule="evenodd"></path><path id="path1" d="M50.004 229.400 C 50.008 295.853,49.842 290.859,52.205 295.642 C 56.410 304.154,67.659 308.575,76.689 305.263 C 78.834 304.476,109.057 288.347,112.667 286.062 C 116.661 283.534,120.892 278.587,122.853 274.154 C 124.974 269.358,124.995 269.064,124.997 244.333 L 124.998 221.833 90.266 197.500 C 71.163 184.117,54.288 172.297,52.767 171.233 L 50.000 169.300 50.004 229.400 M145.557 306.250 C 158.056 306.298,178.606 306.298,191.224 306.250 C 203.842 306.202,193.617 306.162,168.500 306.162 C 143.383 306.162,133.059 306.202,145.557 306.250 M118.833 307.000 C 118.413 307.181,118.352 307.286,118.667 307.286 C 118.942 307.286,119.467 307.158,119.833 307.000 C 120.254 306.819,120.315 306.714,120.000 306.714 C 119.725 306.714,119.200 306.842,118.833 307.000 M115.297 308.417 C 110.767 310.721,105.834 317.006,105.159 321.333 C 105.032 322.143,105.166 321.936,105.596 320.657 C 107.388 315.325,111.126 310.844,115.667 308.584 C 117.042 307.899,118.000 307.338,117.797 307.336 C 117.593 307.335,116.469 307.821,115.297 308.417 M104.744 323.667 C 104.744 324.308,104.813 324.571,104.896 324.250 C 104.980 323.929,104.980 323.404,104.896 323.083 C 104.813 322.762,104.744 323.025,104.744 323.667 M104.744 329.000 C 104.744 329.642,104.813 329.904,104.896 329.583 C 104.980 329.262,104.980 328.737,104.896 328.417 C 104.813 328.096,104.744 328.358,104.744 329.000 M110.319 340.417 C 111.137 341.287,111.849 342.000,111.903 342.000 C 112.153 342.000,111.888 341.701,110.417 340.319 L 108.833 338.833 110.319 340.417 " stroke="none" fill="#be467a" fill-rule="evenodd"></path><path id="path2" d="M221.857 15.163 C 234.605 21.567,242.473 33.391,243.706 48.000 C 243.941 50.782,243.980 60.559,243.824 77.417 L 243.590 102.667 296.816 102.667 L 350.043 102.667 349.917 87.750 C 349.790 72.837,349.790 72.833,348.920 69.833 C 345.533 58.157,338.555 49.847,327.940 44.851 C 325.349 43.632,220.128 13.333,218.484 13.333 C 218.336 13.333,219.853 14.157,221.857 15.163 " stroke="none" fill="#ef8304" fill-rule="evenodd"></path><path id="path3" d="M113.500 56.507 C 60.166 87.001,62.755 85.371,58.140 91.368 C 51.811 99.593,50.287 104.858,50.088 119.198 L 49.944 129.562 87.389 155.773 L 124.833 181.983 125.020 159.408 C 125.221 135.164,125.236 134.939,127.036 130.409 C 130.837 120.842,135.366 117.414,152.167 111.392 C 157.300 109.552,173.800 103.598,188.833 98.162 C 203.867 92.725,219.128 87.217,222.746 85.922 L 229.326 83.568 225.712 81.034 C 223.724 79.640,207.317 68.150,189.253 55.500 C 164.515 38.176,156.492 32.397,156.745 32.083 C 157.232 31.481,160.304 29.746,113.500 56.507 M201.417 306.250 C 187.789 306.321,184.333 306.426,184.333 306.767 C 184.333 307.002,183.960 311.388,183.504 316.514 C 182.955 322.680,182.673 328.146,182.669 332.667 C 182.666 336.425,182.441 341.900,182.169 344.833 C 181.897 347.767,181.673 353.242,181.670 357.000 C 181.668 360.758,181.503 365.483,181.304 367.500 C 180.802 372.581,180.447 381.303,180.750 381.116 C 180.887 381.030,181.000 381.128,181.000 381.333 C 181.000 381.538,181.145 381.617,181.321 381.508 C 181.498 381.398,181.935 381.602,182.293 381.960 C 182.651 382.318,183.032 382.524,183.139 382.417 C 183.246 382.310,183.333 382.422,183.333 382.667 C 183.333 382.911,183.429 383.015,183.547 382.898 C 183.803 382.641,185.667 383.691,185.667 384.092 C 185.667 384.246,185.817 384.280,186.000 384.167 C 186.183 384.053,186.333 384.101,186.333 384.273 C 186.333 384.606,188.328 385.546,188.750 385.413 C 188.887 385.369,189.000 385.483,189.000 385.667 C 189.000 385.850,189.270 386.000,189.600 386.000 C 189.930 386.000,190.342 386.131,190.517 386.292 C 190.881 386.628,194.313 387.738,197.000 388.389 C 198.218 388.684,200.903 388.823,205.000 388.803 C 211.413 388.771,211.025 388.829,217.833 386.896 C 218.017 386.844,218.516 386.609,218.943 386.375 C 219.370 386.141,219.940 386.033,220.210 386.137 C 220.480 386.241,220.627 386.205,220.535 386.057 C 220.444 385.909,221.222 385.370,222.265 384.858 C 225.668 383.189,228.660 381.035,231.814 377.984 C 234.489 375.396,238.539 370.422,237.395 371.128 C 236.527 371.665,236.896 353.016,237.998 340.667 C 238.698 332.815,239.002 327.372,239.022 322.333 C 239.037 318.392,239.226 313.217,239.442 310.833 L 239.833 306.500 241.833 306.306 C 243.877 306.108,231.765 306.091,201.417 306.250 M243.411 354.000 C 243.411 354.642,243.479 354.904,243.563 354.583 C 243.647 354.262,243.647 353.738,243.563 353.417 C 243.479 353.096,243.411 353.358,243.411 354.000 " stroke="none" fill="#a10a0c" fill-rule="evenodd"></path><path id="path4" d="M196.333 11.642 C 190.156 13.021,187.999 14.019,174.876 21.567 C 169.903 24.428,163.883 27.884,161.500 29.248 C 159.117 30.612,156.992 31.901,156.779 32.114 C 156.484 32.407,165.096 38.595,192.520 57.796 C 212.391 71.710,228.577 83.208,228.490 83.349 C 228.246 83.745,238.014 80.493,243.105 78.484 C 243.681 78.257,243.704 77.426,243.589 61.373 L 243.467 44.500 242.600 41.305 C 238.520 26.270,228.098 15.875,213.000 11.782 C 209.923 10.948,199.825 10.863,196.333 11.642 M121.333 305.703 C 119.775 306.245,118.024 306.815,117.442 306.970 C 116.860 307.125,115.960 307.546,115.442 307.905 C 114.924 308.264,114.216 308.661,113.869 308.787 C 113.522 308.913,113.323 309.100,113.426 309.204 C 113.530 309.307,114.264 309.017,115.057 308.559 C 115.851 308.100,117.550 307.375,118.833 306.946 L 121.167 306.167 182.417 306.077 C 243.227 305.989,243.667 305.983,243.667 305.327 C 243.667 304.671,243.270 304.667,183.917 304.692 L 124.167 304.718 121.333 305.703 M350.000 314.807 C 350.000 324.743,349.761 327.127,348.280 331.933 C 345.321 341.541,337.857 350.128,328.485 354.705 C 325.585 356.122,235.141 382.397,213.167 388.207 C 207.112 389.807,196.896 388.935,190.205 386.247 C 187.862 385.305,119.419 346.815,113.752 343.252 C 106.757 338.853,103.013 329.339,105.128 321.334 C 105.914 318.359,105.079 319.379,102.539 324.500 C 99.976 329.668,98.934 341.360,100.728 344.833 C 101.012 345.383,101.343 346.381,101.464 347.050 C 101.585 347.718,101.943 348.618,102.259 349.050 C 102.575 349.481,103.133 350.432,103.500 351.163 C 104.336 352.831,108.848 357.482,111.522 359.433 C 113.384 360.792,119.480 364.332,119.960 364.334 C 120.073 364.334,121.217 365.027,122.500 365.873 C 123.783 366.719,126.183 368.113,127.833 368.969 C 130.781 370.499,131.327 370.816,134.333 372.747 C 135.158 373.276,137.333 374.460,139.167 375.378 C 143.409 377.501,144.756 378.249,147.010 379.737 C 148.013 380.399,150.108 381.597,151.667 382.400 C 154.488 383.853,155.721 384.564,157.363 385.685 C 157.838 386.009,159.863 387.131,161.863 388.178 C 163.863 389.225,165.725 390.274,166.000 390.508 C 166.498 390.933,173.898 395.132,175.167 395.710 C 175.533 395.877,176.508 396.450,177.333 396.984 C 178.158 397.518,179.619 398.415,180.578 398.977 L 182.323 400.000 208.516 400.000 C 233.596 400.000,234.776 399.973,236.272 399.359 C 237.131 399.006,238.658 398.536,239.667 398.314 C 240.675 398.092,241.905 397.706,242.400 397.455 C 242.895 397.205,243.720 396.997,244.233 396.993 C 244.747 396.989,245.821 396.689,246.620 396.326 C 247.419 395.963,248.361 395.667,248.714 395.667 C 249.066 395.667,250.287 395.349,251.427 394.960 C 252.567 394.571,254.325 394.064,255.333 393.833 C 256.342 393.602,257.617 393.251,258.167 393.054 C 259.256 392.664,262.673 391.670,265.833 390.824 C 271.190 389.390,272.551 389.001,273.167 388.727 C 273.796 388.446,274.700 388.196,280.610 386.669 C 281.953 386.322,283.228 385.900,283.443 385.732 C 283.658 385.563,284.568 385.330,285.467 385.212 C 286.365 385.095,287.530 384.784,288.056 384.522 C 288.583 384.259,289.873 383.867,290.923 383.651 C 291.974 383.434,293.238 383.049,293.733 382.795 C 294.229 382.541,294.990 382.333,295.425 382.333 C 295.861 382.333,297.256 381.971,298.525 381.529 C 299.795 381.086,301.433 380.615,302.167 380.482 C 302.900 380.348,303.796 380.035,304.158 379.786 C 304.519 379.537,305.269 379.327,305.824 379.319 C 306.379 379.311,307.433 379.077,308.167 378.799 C 308.900 378.521,310.400 378.076,311.500 377.811 C 312.600 377.546,314.025 377.116,314.667 376.856 C 315.308 376.596,316.388 376.307,317.066 376.215 C 317.744 376.123,318.794 375.834,319.400 375.574 C 320.005 375.314,322.225 374.536,324.333 373.845 C 330.273 371.898,331.536 371.431,332.554 370.807 C 335.910 368.748,338.773 366.902,339.000 366.650 C 339.092 366.548,339.696 366.144,340.342 365.751 C 341.669 364.946,346.333 360.255,346.333 359.726 C 346.333 359.536,346.526 359.183,346.761 358.940 C 349.806 355.807,354.414 345.615,355.174 340.333 C 355.292 339.508,355.604 338.085,355.867 337.170 C 357.049 333.055,357.070 318.653,355.897 316.433 C 355.587 315.846,355.333 315.163,355.333 314.915 C 355.333 314.667,354.808 313.955,354.167 313.333 C 353.221 312.416,352.997 311.947,352.984 310.851 C 352.963 308.975,351.675 305.975,350.744 305.630 L 350.000 305.355 350.000 314.807 M239.849 306.750 C 239.478 307.941,238.998 316.971,238.999 322.759 C 239.000 327.374,238.699 332.746,237.995 340.669 C 237.109 350.641,237.000 353.146,237.078 361.743 L 237.167 371.500 238.583 369.000 C 243.350 360.584,243.428 359.986,243.577 330.917 L 243.702 306.333 241.841 306.333 C 240.643 306.333,239.933 306.482,239.849 306.750 " stroke="none" fill="#790404" fill-rule="evenodd"></path></g></svg>