<?xml version="1.0" standalone="no"?>
<!DOCTYPE svg PUBLIC "-//W3C//DTD SVG 20010904//EN"
 "http://www.w3.org/TR/2001/REC-SVG-20010904/DTD/svg10.dtd">
<svg version="1.0" xmlns="http://www.w3.org/2000/svg"
 width="512.000000pt" height="154.000000pt" viewBox="0 0 512.000000 154.000000"
 preserveAspectRatio="xMidYMid meet">

<g transform="translate(0.000000,154.000000) scale(0.100000,-0.100000)"
fill="#000000" stroke="none">
<path d="M835 1434 c-242 -37 -373 -99 -499 -235 -145 -156 -198 -361 -146
-563 29 -114 73 -189 165 -281 159 -159 320 -218 595 -218 275 0 436 59 595
218 125 125 185 264 185 430 0 152 -56 294 -161 409 -146 159 -321 232 -584
240 -66 3 -133 2 -150 0z m185 -334 c0 -76 4 -120 10 -120 23 0 89 41 113 69
21 25 46 81 63 139 2 8 25 12 70 12 l67 0 -6 -49 c-16 -133 -131 -259 -274
-302 l-43 -12 0 -52 0 -52 43 -13 c144 -43 255 -163 274 -295 l6 -45 -70 0
-69 0 -12 43 c-16 60 -45 102 -93 137 -74 54 -79 48 -79 -90 l0 -120 -70 0
-70 0 0 121 0 121 -26 -6 c-63 -16 -133 -98 -149 -174 l-7 -32 -73 0 -73 0 12
53 c33 139 137 250 271 286 l40 10 0 53 0 53 -56 21 c-105 38 -175 97 -220
186 -24 47 -50 143 -41 152 3 3 36 6 73 6 l67 0 7 -37 c10 -60 52 -122 103
-154 72 -45 72 -45 72 91 l0 120 70 0 70 0 0 -120z"/>
<path d="M2078 1193 l-98 -4 0 -419 0 -420 75 0 75 0 1 298 1 297 58 -120 c32
-66 97 -200 144 -297 l85 -178 54 0 53 0 59 128 c32 70 88 190 125 267 36 77
71 151 77 165 9 20 12 -39 12 -267 l1 -293 115 0 115 0 0 425 0 425 -93 -4
c-114 -4 -159 -23 -196 -81 -14 -23 -71 -140 -126 -258 -55 -119 -102 -217
-105 -217 -3 0 -11 12 -17 28 -6 15 -63 140 -127 277 l-116 250 -37 1 c-21 0
-82 -1 -135 -3z"/>
<path d="M3130 1135 l0 -55 150 0 150 0 0 -365 0 -365 130 0 130 0 0 364 0
364 134 4 c125 3 136 5 160 27 14 13 29 36 35 52 l10 29 -450 0 -449 0 0 -55z"/>
<path d="M4100 771 l0 -421 130 0 130 0 0 365 0 365 86 0 c112 0 168 -15 199
-52 70 -83 -16 -192 -167 -214 l-47 -6 16 -32 c21 -40 142 -221 210 -314 77
-105 93 -112 236 -112 l117 0 -93 123 c-108 140 -192 265 -185 272 3 3 29 18
58 33 80 40 113 87 118 167 5 81 -8 114 -64 164 -79 69 -110 75 -446 79 l-298
3 0 -420z"/>
</g>
</svg>
