<?xml version="1.0" standalone="no"?>
<!DOCTYPE svg PUBLIC "-//W3C//DTD SVG 20010904//EN"
 "http://www.w3.org/TR/2001/REC-SVG-20010904/DTD/svg10.dtd">
<svg version="1.0" xmlns="http://www.w3.org/2000/svg"
 width="1812.000000pt" height="460.000000pt" viewBox="0 0 1812.000000 460.000000"
 preserveAspectRatio="xMidYMid meet">

<g transform="translate(0.000000,460.000000) scale(0.100000,-0.100000)"
fill="#000000" stroke="none">
<path d="M384 4373 c18 -32 113 -199 210 -370 l177 -313 773 0 c742 0 776 -1
852 -20 233 -60 338 -219 338 -515 0 -276 -86 -424 -291 -503 l-68 -27 -438
-3 c-335 -2 -438 -6 -434 -15 8 -20 1198 -2141 1206 -2150 4 -4 255 -6 558 -5
l552 3 -455 795 c-387 678 -451 796 -437 802 10 4 54 21 99 38 172 65 346 192
467 340 85 106 168 269 204 405 25 93 27 115 27 305 0 229 -14 335 -66 500
-149 469 -526 727 -1138 780 -67 6 -548 10 -1142 10 l-1027 0 33 -57z"/>
<path d="M4870 2536 l0 -726 175 0 175 0 0 260 0 260 119 0 119 0 142 -260
142 -260 199 0 c109 0 199 2 199 4 0 2 -70 127 -157 277 -86 151 -158 281
-160 289 -2 10 14 23 52 39 143 61 235 207 235 371 0 189 -78 333 -219 404
-105 54 -143 58 -598 63 l-423 5 0 -726z m800 429 c103 -60 107 -266 7 -339
-26 -19 -45 -21 -243 -24 l-214 -3 0 189 c0 104 3 192 7 196 4 4 98 6 208 4
179 -3 204 -5 235 -23z"/>
<path d="M7374 3247 c-2 -7 -3 -62 -2 -123 l3 -109 158 -3 157 -3 0 126 0 125
-155 0 c-119 0 -157 -3 -161 -13z"/>
<path d="M7895 3248 c-3 -7 -4 -332 -3 -723 l3 -710 158 -3 157 -3 0 726 0
725 -155 0 c-115 0 -157 -3 -160 -12z"/>
<path d="M6555 2910 c-183 -29 -294 -128 -312 -277 l-6 -53 151 0 152 0 6 28
c11 46 43 89 76 103 17 7 60 12 95 12 103 -1 143 -42 143 -145 0 -57 0 -57
-32 -62 -345 -57 -449 -90 -543 -177 -110 -102 -126 -308 -32 -430 69 -91 223
-141 365 -119 81 13 185 60 230 103 28 27 32 28 32 11 0 -10 5 -36 11 -56 l10
-38 144 0 c80 0 145 2 145 4 0 3 -5 17 -12 33 -8 19 -14 156 -17 443 -6 401
-7 416 -28 455 -42 79 -107 124 -215 150 -79 19 -284 27 -363 15z m303 -653
c-5 -107 -33 -168 -95 -207 -79 -50 -189 -48 -242 5 -21 20 -26 35 -26 75 0
42 5 54 35 85 28 28 54 42 130 65 102 31 193 58 199 59 2 1 2 -36 -1 -82z"/>
<path d="M7372 2353 l3 -538 158 -3 157 -3 0 541 0 540 -160 0 -160 0 2 -537z"/>
</g>
</svg>
