<svg id="svg" version="1.1" xmlns="http://www.w3.org/2000/svg" xmlns:xlink="http://www.w3.org/1999/xlink" width="400" height="416.1904761904762" viewBox="0, 0, 400,416.1904761904762"><g id="svgg"><path id="path0" d="M69.298 48.266 C 69.021 48.377,68.897 48.633,69.021 48.834 C 69.145 49.035,69.072 49.200,68.857 49.200 C 68.642 49.200,68.395 48.985,68.307 48.722 C 68.124 48.173,64.787 48.673,58.400 50.207 C 56.310 50.708,52.980 51.428,51.000 51.806 C 49.020 52.183,46.140 52.812,44.600 53.202 C 43.060 53.593,40.450 54.133,38.800 54.402 C 37.150 54.672,35.080 55.135,34.200 55.433 C 33.320 55.730,30.980 56.257,29.000 56.605 C 27.020 56.952,24.590 57.486,23.600 57.791 C 22.610 58.096,20.360 58.612,18.600 58.937 C 16.840 59.262,14.185 59.758,12.700 60.038 L 10.000 60.547 10.001 62.173 C 10.002 63.068,10.176 66.140,10.388 69.000 C 10.601 71.860,11.231 81.400,11.789 90.200 C 12.347 99.000,13.248 112.770,13.792 120.800 C 14.336 128.830,14.966 138.460,15.191 142.200 C 15.417 145.940,15.863 152.600,16.183 157.000 C 16.503 161.400,16.958 168.420,17.194 172.600 C 17.430 176.780,17.971 184.970,18.396 190.800 C 18.822 196.630,19.362 204.820,19.596 209.000 C 19.831 213.180,20.367 221.370,20.788 227.200 C 21.210 233.030,21.666 239.870,21.802 242.400 C 21.938 244.930,22.482 253.390,23.011 261.200 C 23.540 269.010,24.340 281.430,24.789 288.800 C 25.809 305.559,25.948 307.059,26.529 307.541 C 27.140 308.047,30.414 309.758,45.000 317.196 C 51.600 320.561,59.340 324.523,62.200 326.000 C 65.060 327.477,71.720 330.894,77.000 333.594 C 82.280 336.294,89.840 340.168,93.800 342.203 C 107.223 349.101,115.772 353.481,125.800 358.599 C 131.300 361.407,138.500 365.095,141.800 366.796 C 145.100 368.498,152.120 372.099,157.400 374.799 C 175.346 383.976,182.188 387.483,190.847 391.945 C 200.913 397.131,199.766 396.920,204.481 394.459 C 206.526 393.391,212.700 390.219,218.200 387.409 C 235.461 378.589,245.171 373.618,252.200 370.001 C 260.516 365.722,272.370 359.649,284.600 353.401 C 293.856 348.673,303.959 343.491,315.800 337.397 C 319.320 335.586,327.240 331.538,333.400 328.402 C 339.560 325.266,346.940 321.485,349.800 320.000 C 352.660 318.515,359.140 315.186,364.200 312.602 C 369.260 310.018,373.606 307.701,373.857 307.452 C 374.139 307.173,374.569 303.010,374.978 296.600 C 375.642 286.202,376.963 266.070,379.204 232.200 C 379.860 222.300,380.667 209.880,380.998 204.600 C 381.330 199.320,381.782 192.570,382.003 189.600 C 382.224 186.630,382.765 178.170,383.204 170.800 C 383.643 163.430,384.180 155.330,384.397 152.800 C 384.615 150.270,385.071 143.340,385.411 137.400 C 385.751 131.460,386.287 123.000,386.601 118.600 C 386.915 114.200,387.455 106.100,387.802 100.600 C 388.149 95.100,388.876 84.300,389.419 76.600 C 389.961 68.900,390.404 62.174,390.402 61.653 C 390.399 60.399,393.306 59.658,367.000 67.616 C 358.860 70.078,351.390 72.322,350.400 72.602 C 349.410 72.882,340.230 75.634,330.000 78.716 C 312.764 83.909,279.800 93.755,268.600 97.056 C 265.960 97.834,262.720 98.802,261.400 99.208 C 260.080 99.614,256.120 100.778,252.600 101.795 C 249.080 102.811,244.760 104.074,243.000 104.601 C 236.599 106.516,230.236 108.062,229.407 107.903 C 228.940 107.814,228.335 107.979,228.063 108.271 C 227.791 108.562,226.991 108.787,226.284 108.772 C 225.227 108.749,225.142 108.687,225.800 108.422 C 226.240 108.245,226.735 108.178,226.900 108.274 C 227.065 108.369,227.200 108.236,227.200 107.977 C 227.200 107.710,226.868 107.594,226.430 107.708 C 225.888 107.850,225.723 107.744,225.874 107.352 C 226.032 106.940,225.736 106.801,224.744 106.820 C 221.590 106.883,218.000 106.135,218.000 105.417 C 218.000 104.863,216.958 104.388,213.900 103.547 C 212.855 103.260,212.000 102.902,212.000 102.752 C 212.000 102.601,210.695 102.082,209.100 101.598 C 207.505 101.114,206.110 100.591,206.000 100.435 C 205.781 100.124,200.457 98.400,199.717 98.400 C 199.464 98.400,198.951 98.094,198.577 97.720 C 198.203 97.346,197.302 97.040,196.574 97.040 C 195.847 97.040,195.341 96.896,195.449 96.720 C 195.558 96.544,195.442 96.400,195.190 96.400 C 194.939 96.400,193.383 95.859,191.732 95.198 C 190.081 94.537,188.538 94.115,188.303 94.260 C 188.067 94.406,187.992 94.337,188.135 94.106 C 188.287 93.860,187.819 93.580,186.996 93.426 C 186.228 93.282,185.600 93.031,185.600 92.869 C 185.600 92.707,185.138 92.536,184.574 92.490 C 184.009 92.443,183.293 92.150,182.982 91.839 C 182.670 91.528,181.692 91.151,180.808 91.001 C 179.924 90.852,179.200 90.574,179.200 90.383 C 179.200 90.192,178.542 89.913,177.737 89.762 C 176.933 89.611,175.808 89.241,175.237 88.940 C 174.667 88.639,173.525 88.281,172.700 88.145 C 171.816 87.999,171.200 87.672,171.200 87.349 C 171.200 87.000,170.691 86.778,169.800 86.740 C 169.030 86.707,168.175 86.662,167.900 86.640 C 167.625 86.618,166.984 86.157,166.476 85.616 C 165.705 84.795,165.490 84.728,165.182 85.216 C 164.948 85.586,164.810 85.623,164.806 85.317 C 164.803 85.052,163.345 84.375,161.566 83.813 C 157.487 82.525,156.771 82.141,157.058 81.394 C 157.319 80.714,156.584 80.579,156.180 81.232 C 155.862 81.747,154.467 81.444,152.273 80.384 C 151.403 79.964,150.538 79.715,150.351 79.831 C 150.004 80.045,149.490 79.704,147.744 78.100 C 146.663 77.107,146.042 76.886,146.758 77.749 C 147.131 78.199,146.935 78.290,145.670 78.257 C 144.378 78.223,144.214 78.129,144.663 77.680 C 145.400 76.943,145.366 76.914,144.000 77.115 C 143.340 77.212,142.800 77.113,142.800 76.897 C 142.800 76.680,142.093 76.389,141.228 76.251 C 140.364 76.113,139.387 75.730,139.057 75.400 C 138.378 74.721,137.200 74.594,137.200 75.200 C 137.200 75.420,137.026 75.600,136.813 75.600 C 136.599 75.600,136.522 75.346,136.641 75.036 C 136.857 74.475,135.365 73.702,134.922 74.144 C 134.803 74.264,134.443 74.100,134.124 73.781 C 133.804 73.461,133.106 73.200,132.571 73.200 C 132.037 73.200,131.600 73.037,131.600 72.838 C 131.600 72.254,127.989 71.191,126.846 71.438 C 126.032 71.614,125.933 71.570,126.400 71.238 C 126.918 70.871,126.904 70.811,126.300 70.806 C 125.915 70.803,125.600 70.530,125.600 70.200 C 125.600 69.642,124.741 69.450,122.300 69.460 C 121.915 69.462,121.600 69.317,121.600 69.138 C 121.600 68.958,120.790 68.608,119.800 68.358 C 118.810 68.109,118.000 67.777,118.000 67.621 C 118.000 67.465,116.560 66.916,114.800 66.400 C 113.040 65.884,111.600 65.313,111.600 65.131 C 111.600 64.949,111.349 64.800,111.043 64.800 C 110.736 64.800,110.399 64.575,110.293 64.299 C 110.166 63.968,109.306 63.817,107.751 63.852 C 106.458 63.881,105.623 63.822,105.896 63.720 C 106.821 63.376,105.521 62.605,102.489 61.702 C 100.888 61.224,99.283 60.947,98.923 61.085 C 98.526 61.237,98.369 61.174,98.523 60.924 C 98.796 60.483,97.153 59.681,93.600 58.519 C 92.390 58.124,91.310 57.701,91.200 57.581 C 91.090 57.460,90.190 57.125,89.200 56.835 C 88.210 56.546,86.551 55.880,85.513 55.355 C 84.476 54.830,83.357 54.400,83.027 54.400 C 82.205 54.400,79.600 53.128,79.600 52.726 C 79.600 52.547,79.157 52.400,78.615 52.400 C 78.073 52.400,76.636 52.028,75.420 51.573 C 74.205 51.118,73.055 50.842,72.866 50.959 C 72.676 51.076,72.141 50.819,71.677 50.386 C 71.213 49.954,70.535 49.600,70.170 49.600 C 69.704 49.600,69.569 49.363,69.716 48.800 C 69.831 48.360,69.897 48.014,69.863 48.032 C 69.828 48.049,69.574 48.154,69.298 48.266 M373.737 116.644 C 373.703 117.060,373.307 119.740,372.858 122.600 C 371.327 132.340,369.991 140.989,368.994 147.600 C 367.605 156.818,365.840 168.387,364.387 177.800 C 362.996 186.809,361.675 195.622,356.804 228.400 C 355.905 234.450,354.627 243.000,353.965 247.400 C 353.303 251.800,352.504 257.249,352.190 259.508 C 351.056 267.669,350.432 270.938,349.921 271.411 C 348.843 272.405,318.295 287.653,318.020 287.334 C 317.861 287.150,317.243 284.750,316.645 282.000 C 316.048 279.250,315.125 275.020,314.594 272.600 C 314.064 270.180,313.001 265.320,312.232 261.800 C 311.464 258.280,310.010 251.620,309.000 247.000 C 306.759 236.741,305.632 231.555,303.999 224.000 C 303.310 220.810,302.238 215.860,301.617 213.000 C 300.997 210.140,300.263 206.671,299.988 205.290 C 299.712 203.910,299.400 202.866,299.295 202.972 C 299.028 203.239,298.744 204.785,294.376 229.800 C 293.723 233.540,292.650 239.660,291.991 243.400 C 291.332 247.140,290.160 253.890,289.385 258.400 C 288.610 262.910,287.434 269.750,286.773 273.600 C 284.104 289.124,283.123 294.858,282.202 300.308 C 281.671 303.448,281.133 306.185,281.005 306.392 C 280.646 306.973,249.768 322.800,248.993 322.800 C 248.697 322.800,248.328 321.597,248.042 319.700 C 247.785 317.995,247.220 314.530,246.786 312.000 C 246.353 309.470,245.272 302.900,244.385 297.400 C 243.499 291.900,242.422 285.330,241.992 282.800 C 241.562 280.270,240.585 274.330,239.820 269.600 C 239.056 264.870,237.609 255.960,236.605 249.800 C 235.601 243.640,234.322 235.720,233.763 232.200 C 233.204 228.680,232.474 224.180,232.141 222.200 C 231.808 220.220,231.114 215.900,230.600 212.600 C 230.086 209.300,229.282 204.260,228.815 201.400 C 225.091 178.634,224.220 172.846,224.481 172.585 C 224.602 172.464,227.828 171.178,231.651 169.726 C 235.473 168.275,241.390 166.021,244.800 164.718 C 254.607 160.971,255.568 160.634,255.798 160.865 C 255.918 160.985,256.461 164.538,257.005 168.761 C 257.549 172.984,258.087 176.836,258.199 177.320 C 258.312 177.804,258.849 181.620,259.394 185.800 C 259.939 189.980,260.755 196.010,261.209 199.200 C 261.662 202.390,262.559 208.780,263.201 213.400 C 265.910 232.877,267.246 242.179,267.351 242.284 C 267.412 242.346,267.764 240.462,268.133 238.098 C 268.501 235.734,269.512 229.660,270.379 224.600 C 271.246 219.540,272.602 211.620,273.394 207.000 C 274.186 202.380,275.265 196.080,275.792 193.000 C 277.189 184.844,281.870 157.969,282.586 154.000 C 282.923 152.130,283.199 150.480,283.199 150.334 C 283.200 150.079,285.935 148.982,298.000 144.396 C 307.997 140.596,308.597 140.366,309.600 139.935 C 313.198 138.392,314.759 138.039,314.953 138.728 C 315.183 139.545,316.326 144.777,318.203 153.600 C 318.975 157.230,320.052 162.270,320.595 164.800 C 321.139 167.330,322.221 172.370,323.000 176.000 C 323.779 179.630,324.857 184.580,325.395 187.000 C 326.888 193.707,329.877 207.515,330.395 210.100 C 331.246 214.339,331.306 214.062,333.628 195.200 C 334.075 191.570,334.520 188.240,334.618 187.800 C 334.715 187.360,335.064 184.570,335.394 181.600 C 335.723 178.630,336.350 173.590,336.787 170.400 C 337.225 167.210,337.955 161.630,338.409 158.000 C 342.014 129.190,342.171 128.069,342.663 127.577 C 342.878 127.362,347.091 125.646,352.027 123.764 C 361.136 120.289,366.270 118.307,370.600 116.592 C 373.277 115.531,373.829 115.541,373.737 116.644 M79.400 125.638 C 92.217 127.188,112.451 135.208,126.200 144.188 C 148.621 158.832,160.636 178.381,164.400 206.342 C 165.011 210.886,166.290 210.872,153.600 206.458 C 145.295 203.569,132.101 198.975,127.200 197.265 L 123.000 195.800 122.506 193.200 C 119.606 177.936,113.036 169.172,100.643 164.038 C 91.652 160.312,85.662 163.428,86.097 171.605 C 86.499 179.164,89.826 182.777,108.200 195.616 C 136.124 215.127,149.585 227.571,158.396 242.018 C 172.459 265.079,173.195 295.023,160.084 310.635 C 148.035 324.981,126.443 324.477,95.872 309.136 C 67.679 294.988,53.236 278.830,44.263 251.400 C 41.701 243.568,38.509 225.200,39.710 225.200 C 39.771 225.200,44.226 226.710,49.610 228.555 C 54.995 230.400,64.260 233.572,70.200 235.605 C 82.933 239.963,81.592 239.042,82.258 243.879 C 84.864 262.800,95.872 277.136,110.784 281.030 C 125.765 284.942,131.340 270.136,120.591 254.981 C 117.502 250.626,111.228 245.282,99.000 236.590 C 63.940 211.670,48.668 192.131,45.387 168.000 C 41.572 139.941,55.387 122.734,79.400 125.638 " stroke="none" fill="#8d0707" fill-rule="evenodd"></path><path id="path1" d="M193.000 21.247 C 187.697 22.195,177.746 24.146,173.800 25.010 C 171.380 25.540,167.240 26.420,164.600 26.965 C 157.433 28.444,148.960 30.246,145.800 30.963 C 144.260 31.312,141.200 31.979,139.000 32.445 C 136.800 32.911,132.120 33.910,128.600 34.665 C 125.080 35.420,120.130 36.473,117.600 37.006 C 115.070 37.539,110.480 38.528,107.400 39.205 C 104.320 39.882,98.110 41.229,93.600 42.198 C 60.777 49.248,62.362 48.895,62.580 49.113 C 62.679 49.213,63.972 49.054,65.451 48.760 C 67.551 48.343,68.177 48.332,68.304 48.713 C 68.394 48.981,68.642 49.200,68.857 49.200 C 69.072 49.200,69.148 49.039,69.026 48.842 C 68.904 48.645,69.053 48.388,69.357 48.272 C 69.744 48.123,69.849 48.291,69.708 48.830 C 69.569 49.361,69.712 49.600,70.170 49.600 C 70.535 49.600,71.213 49.954,71.677 50.386 C 72.141 50.819,72.676 51.076,72.866 50.959 C 73.055 50.842,74.205 51.118,75.420 51.573 C 76.636 52.028,78.073 52.400,78.615 52.400 C 79.157 52.400,79.600 52.547,79.600 52.726 C 79.600 53.128,82.205 54.400,83.027 54.400 C 83.357 54.400,84.476 54.830,85.513 55.355 C 86.551 55.880,88.210 56.546,89.200 56.835 C 90.190 57.125,91.090 57.460,91.200 57.581 C 91.310 57.701,92.390 58.124,93.600 58.519 C 97.153 59.681,98.796 60.483,98.523 60.924 C 98.369 61.174,98.526 61.237,98.923 61.085 C 99.283 60.947,100.888 61.224,102.489 61.702 C 105.521 62.605,106.821 63.376,105.896 63.720 C 105.623 63.822,106.458 63.881,107.751 63.852 C 109.306 63.817,110.166 63.968,110.293 64.299 C 110.399 64.575,110.736 64.800,111.043 64.800 C 111.349 64.800,111.600 64.949,111.600 65.131 C 111.600 65.313,113.040 65.884,114.800 66.400 C 116.560 66.916,118.000 67.465,118.000 67.621 C 118.000 67.777,118.810 68.109,119.800 68.358 C 120.790 68.608,121.600 68.958,121.600 69.138 C 121.600 69.317,121.915 69.462,122.300 69.460 C 124.741 69.450,125.600 69.642,125.600 70.200 C 125.600 70.530,125.915 70.803,126.300 70.806 C 126.904 70.811,126.918 70.871,126.400 71.238 C 125.933 71.570,126.032 71.614,126.846 71.438 C 127.989 71.191,131.600 72.254,131.600 72.838 C 131.600 73.037,132.037 73.200,132.571 73.200 C 133.106 73.200,133.804 73.461,134.124 73.781 C 134.443 74.100,134.803 74.264,134.922 74.144 C 135.365 73.702,136.857 74.475,136.641 75.036 C 136.522 75.346,136.599 75.600,136.813 75.600 C 137.026 75.600,137.200 75.420,137.200 75.200 C 137.200 74.594,138.378 74.721,139.057 75.400 C 139.387 75.730,140.364 76.113,141.228 76.251 C 142.093 76.389,142.800 76.680,142.800 76.897 C 142.800 77.113,143.340 77.212,144.000 77.115 C 145.366 76.914,145.400 76.943,144.663 77.680 C 144.214 78.129,144.378 78.223,145.670 78.257 C 146.935 78.290,147.131 78.199,146.758 77.749 C 146.042 76.886,146.663 77.107,147.744 78.100 C 149.490 79.704,150.004 80.045,150.351 79.831 C 150.538 79.715,151.403 79.964,152.273 80.384 C 154.467 81.444,155.862 81.747,156.180 81.232 C 156.584 80.579,157.319 80.714,157.058 81.394 C 156.771 82.141,157.487 82.525,161.566 83.813 C 163.345 84.375,164.803 85.052,164.806 85.317 C 164.810 85.623,164.948 85.586,165.182 85.216 C 165.490 84.728,165.705 84.795,166.476 85.616 C 166.984 86.157,167.625 86.618,167.900 86.640 C 168.175 86.662,169.030 86.707,169.800 86.740 C 170.691 86.778,171.200 87.000,171.200 87.349 C 171.200 87.672,171.816 87.999,172.700 88.145 C 173.525 88.281,174.667 88.639,175.237 88.940 C 175.808 89.241,176.933 89.611,177.737 89.762 C 178.542 89.913,179.200 90.192,179.200 90.383 C 179.200 90.574,179.924 90.852,180.808 91.001 C 181.692 91.151,182.670 91.528,182.982 91.839 C 183.293 92.150,184.009 92.443,184.574 92.490 C 185.138 92.536,185.600 92.707,185.600 92.869 C 185.600 93.031,186.228 93.282,186.996 93.426 C 187.819 93.580,188.287 93.860,188.135 94.106 C 187.992 94.337,188.067 94.406,188.303 94.260 C 188.538 94.115,190.081 94.537,191.732 95.198 C 193.383 95.859,194.939 96.400,195.190 96.400 C 195.442 96.400,195.558 96.544,195.449 96.720 C 195.341 96.896,195.847 97.040,196.574 97.040 C 197.302 97.040,198.203 97.346,198.577 97.720 C 198.951 98.094,199.464 98.400,199.717 98.400 C 200.457 98.400,205.781 100.124,206.000 100.435 C 206.110 100.591,207.505 101.114,209.100 101.598 C 210.695 102.082,212.000 102.601,212.000 102.752 C 212.000 102.902,212.855 103.260,213.900 103.547 C 216.958 104.388,218.000 104.863,218.000 105.417 C 218.000 106.135,221.590 106.883,224.744 106.820 C 225.736 106.801,226.032 106.940,225.874 107.352 C 225.723 107.744,225.888 107.850,226.430 107.708 C 226.868 107.594,227.200 107.710,227.200 107.977 C 227.200 108.236,227.065 108.369,226.900 108.274 C 226.735 108.178,226.240 108.245,225.800 108.422 C 225.142 108.687,225.227 108.749,226.284 108.772 C 226.991 108.787,227.791 108.562,228.063 108.271 C 228.335 107.979,228.940 107.814,229.407 107.903 C 230.236 108.062,236.599 106.516,243.000 104.601 C 244.760 104.074,249.080 102.811,252.600 101.795 C 256.120 100.778,260.080 99.614,261.400 99.208 C 262.720 98.802,265.960 97.834,268.600 97.056 C 279.800 93.755,312.764 83.909,330.000 78.716 C 340.230 75.634,349.410 72.882,350.400 72.602 C 355.504 71.158,381.786 63.147,381.947 62.987 C 382.337 62.596,381.306 62.871,373.071 65.355 C 368.412 66.761,361.990 68.663,358.800 69.584 C 355.610 70.504,351.110 71.829,348.800 72.528 C 344.051 73.966,340.374 74.196,338.772 73.155 C 337.718 72.470,333.788 71.057,331.700 70.613 C 330.985 70.461,330.400 70.204,330.400 70.041 C 330.400 69.879,329.365 69.424,328.100 69.030 C 326.835 68.636,324.879 67.896,323.753 67.386 C 322.627 66.877,320.917 66.247,319.953 65.988 C 318.989 65.729,318.110 65.390,318.000 65.234 C 317.890 65.078,316.720 64.619,315.400 64.214 C 314.080 63.809,312.373 63.145,311.606 62.739 C 310.839 62.332,310.014 62.000,309.773 62.000 C 308.973 62.000,303.804 60.283,303.579 59.942 C 303.457 59.758,302.017 59.207,300.379 58.719 C 298.740 58.230,297.162 57.599,296.871 57.315 C 296.581 57.032,295.984 56.800,295.545 56.800 C 295.106 56.800,294.388 56.607,293.948 56.372 C 293.508 56.137,292.768 55.871,292.303 55.781 C 291.839 55.692,291.356 55.474,291.229 55.296 C 291.103 55.119,289.605 54.543,287.900 54.017 C 286.195 53.490,284.800 52.939,284.800 52.791 C 284.800 52.644,283.426 52.124,281.746 51.636 C 280.066 51.148,278.420 50.477,278.087 50.145 C 277.595 49.652,277.422 49.638,277.148 50.070 C 276.963 50.362,276.809 50.410,276.806 50.179 C 276.803 49.947,275.495 49.339,273.900 48.827 C 272.305 48.316,270.910 47.775,270.800 47.625 C 270.578 47.321,265.240 45.600,264.522 45.600 C 264.272 45.600,264.007 45.427,263.933 45.216 C 263.860 45.005,262.180 44.338,260.200 43.732 C 258.220 43.127,256.510 42.517,256.400 42.376 C 256.047 41.924,254.212 41.027,253.853 41.131 C 253.436 41.252,250.682 40.384,250.400 40.042 C 250.086 39.662,247.524 38.729,246.200 38.512 C 245.540 38.404,244.820 38.103,244.600 37.844 C 244.215 37.391,242.171 36.680,239.928 36.219 C 239.338 36.098,238.586 35.729,238.257 35.399 C 237.927 35.070,237.299 34.800,236.862 34.800 C 236.424 34.800,235.279 34.463,234.317 34.050 C 233.355 33.638,231.955 33.166,231.207 33.001 C 230.458 32.837,229.597 32.454,229.294 32.151 C 228.991 31.848,228.447 31.600,228.085 31.600 C 227.362 31.600,223.919 30.379,223.600 30.010 C 223.490 29.882,222.365 29.459,221.100 29.069 C 219.835 28.678,218.800 28.176,218.800 27.953 C 218.800 27.720,218.436 27.662,217.950 27.816 C 217.483 27.964,216.988 27.927,216.850 27.733 C 216.547 27.306,209.131 24.396,205.800 23.397 C 204.480 23.001,203.310 22.544,203.200 22.382 C 202.380 21.173,196.855 20.558,193.000 21.247 M53.800 50.844 C 51.401 51.488,51.271 51.564,52.894 51.374 C 54.984 51.130,58.672 50.075,57.400 50.085 C 56.960 50.089,55.340 50.430,53.800 50.844 M43.200 53.044 C 41.770 53.355,40.420 53.698,40.200 53.808 C 39.370 54.222,43.477 53.601,45.200 53.052 C 47.495 52.322,46.549 52.318,43.200 53.044 M29.298 56.105 C 27.261 56.558,25.672 57.005,25.765 57.098 C 25.962 57.295,34.042 55.691,34.336 55.397 C 34.694 55.039,33.051 55.270,29.298 56.105 M20.600 58.017 C 15.297 59.219,14.171 59.518,14.800 59.556 C 15.780 59.616,23.211 58.035,23.934 57.613 C 24.806 57.104,24.419 57.151,20.600 58.017 M385.260 61.649 C 383.863 62.092,382.802 62.536,382.902 62.636 C 383.003 62.736,384.416 62.382,386.042 61.848 C 387.669 61.315,388.730 60.871,388.400 60.862 C 388.070 60.853,386.657 61.207,385.260 61.649 M10.493 73.200 C 10.493 73.970,10.575 74.285,10.676 73.900 C 10.776 73.515,10.776 72.885,10.676 72.500 C 10.575 72.115,10.493 72.430,10.493 73.200 M389.309 78.000 C 389.309 78.990,389.387 79.395,389.482 78.900 C 389.578 78.405,389.578 77.595,389.482 77.100 C 389.387 76.605,389.309 77.010,389.309 78.000 M10.893 78.800 C 10.893 79.570,10.975 79.885,11.076 79.500 C 11.176 79.115,11.176 78.485,11.076 78.100 C 10.975 77.715,10.893 78.030,10.893 78.800 M388.909 83.200 C 388.909 84.190,388.987 84.595,389.082 84.100 C 389.178 83.605,389.178 82.795,389.082 82.300 C 388.987 81.805,388.909 82.210,388.909 83.200 M388.514 89.000 C 388.517 90.100,388.595 90.503,388.687 89.895 C 388.779 89.286,388.777 88.386,388.682 87.895 C 388.587 87.403,388.511 87.900,388.514 89.000 M387.309 108.400 C 387.309 109.390,387.387 109.795,387.482 109.300 C 387.578 108.805,387.578 107.995,387.482 107.500 C 387.387 107.005,387.309 107.410,387.309 108.400 M386.901 114.600 C 386.905 115.480,386.987 115.793,387.083 115.295 C 387.179 114.798,387.175 114.078,387.075 113.695 C 386.975 113.313,386.896 113.720,386.901 114.600 M386.509 119.600 C 386.509 120.590,386.587 120.995,386.682 120.500 C 386.778 120.005,386.778 119.195,386.682 118.700 C 386.587 118.205,386.509 118.610,386.509 119.600 M386.114 125.400 C 386.117 126.500,386.195 126.903,386.287 126.295 C 386.379 125.686,386.377 124.786,386.282 124.295 C 386.187 123.803,386.111 124.300,386.114 125.400 M384.893 144.800 C 384.893 145.570,384.975 145.885,385.076 145.500 C 385.176 145.115,385.176 144.485,385.076 144.100 C 384.975 143.715,384.893 144.030,384.893 144.800 M384.101 156.200 C 384.105 157.080,384.187 157.393,384.283 156.895 C 384.379 156.398,384.375 155.678,384.275 155.295 C 384.175 154.913,384.096 155.320,384.101 156.200 M383.693 162.400 C 383.693 163.170,383.775 163.485,383.876 163.100 C 383.976 162.715,383.976 162.085,383.876 161.700 C 383.775 161.315,383.693 161.630,383.693 162.400 M382.509 181.200 C 382.509 182.190,382.587 182.595,382.682 182.100 C 382.778 181.605,382.778 180.795,382.682 180.300 C 382.587 179.805,382.509 180.210,382.509 181.200 M19.293 206.400 C 19.293 207.170,19.375 207.485,19.476 207.100 C 19.576 206.715,19.576 206.085,19.476 205.700 C 19.375 205.315,19.293 205.630,19.293 206.400 M380.501 211.400 C 380.505 212.280,380.587 212.593,380.683 212.095 C 380.779 211.598,380.775 210.878,380.675 210.495 C 380.575 210.113,380.496 210.520,380.501 211.400 M378.101 247.800 C 378.105 248.680,378.187 248.993,378.283 248.495 C 378.379 247.998,378.375 247.278,378.275 246.895 C 378.175 246.513,378.096 246.920,378.101 247.800 M376.509 273.200 C 376.509 274.190,376.587 274.595,376.682 274.100 C 376.778 273.605,376.778 272.795,376.682 272.300 C 376.587 271.805,376.509 272.210,376.509 273.200 M376.093 278.000 C 376.093 278.770,376.175 279.085,376.276 278.700 C 376.376 278.315,376.376 277.685,376.276 277.300 C 376.175 276.915,376.093 277.230,376.093 278.000 M115.105 281.883 C 115.602 281.979,116.322 281.975,116.705 281.875 C 117.087 281.775,116.680 281.696,115.800 281.701 C 114.920 281.705,114.607 281.787,115.105 281.883 M375.709 284.400 C 375.709 285.390,375.787 285.795,375.882 285.300 C 375.978 284.805,375.978 283.995,375.882 283.500 C 375.787 283.005,375.709 283.410,375.709 284.400 " stroke="none" fill="#f65857" fill-rule="evenodd"></path><path id="path2" d="M0.000 208.000 L 0.000 416.000 200.000 416.000 L 400.000 416.000 400.000 208.000 L 400.000 0.000 200.000 0.000 L 0.000 0.000 0.000 208.000 M207.057 20.169 C 210.546 20.922,214.660 21.819,216.200 22.162 C 225.250 24.176,230.548 25.330,236.600 26.606 C 240.340 27.395,244.030 28.203,244.800 28.402 C 245.570 28.602,246.830 28.871,247.600 29.000 C 248.985 29.233,253.203 30.159,259.400 31.592 C 261.160 31.998,263.680 32.543,265.000 32.803 C 266.320 33.062,269.650 33.782,272.400 34.403 C 275.150 35.024,279.650 36.010,282.400 36.594 C 287.147 37.603,290.774 38.402,303.200 41.174 C 306.170 41.836,310.490 42.753,312.800 43.212 C 315.110 43.670,319.610 44.654,322.800 45.399 C 328.369 46.700,330.817 47.235,341.400 49.465 C 344.040 50.021,348.450 50.993,351.200 51.624 C 355.749 52.669,362.579 54.147,377.000 57.210 C 379.860 57.817,383.280 58.588,384.600 58.923 C 385.920 59.258,387.778 59.655,388.728 59.806 C 391.057 60.175,391.038 60.035,390.245 70.625 C 389.862 75.730,389.383 83.123,389.180 87.054 C 388.977 90.984,388.540 97.800,388.208 102.200 C 387.877 106.600,387.423 113.170,387.199 116.800 C 386.159 133.645,385.542 142.936,385.205 146.800 C 385.003 149.110,384.731 153.340,384.599 156.200 C 384.468 159.060,384.094 165.090,383.769 169.600 C 383.444 174.110,383.116 178.970,383.041 180.400 C 382.965 181.830,382.787 184.350,382.644 186.000 C 382.502 187.650,382.027 195.210,381.591 202.800 C 381.154 210.390,380.621 218.400,380.406 220.600 C 380.192 222.800,379.729 229.730,379.379 236.000 C 379.029 242.270,378.589 249.560,378.401 252.200 C 378.214 254.840,377.670 263.030,377.194 270.400 C 376.718 277.770,375.937 289.195,375.461 295.789 L 374.593 307.778 371.397 309.412 C 369.638 310.311,363.700 313.358,358.200 316.183 C 352.700 319.008,345.050 322.932,341.200 324.903 C 337.350 326.874,330.330 330.474,325.600 332.905 C 312.974 339.391,303.776 344.089,289.200 351.496 C 282.050 355.129,276.020 358.236,275.800 358.399 C 275.580 358.562,270.090 361.397,263.600 364.699 C 251.810 370.698,242.917 375.245,228.600 382.595 C 224.420 384.740,216.305 388.898,210.567 391.834 L 200.135 397.171 198.767 396.446 C 198.015 396.047,192.540 393.241,186.600 390.211 C 176.301 384.958,170.839 382.156,154.600 373.797 C 144.226 368.457,132.819 362.629,118.200 355.200 C 111.160 351.623,105.220 348.565,105.000 348.405 C 104.780 348.245,98.480 345.000,91.000 341.195 C 74.865 332.987,66.282 328.599,56.800 323.714 C 52.950 321.730,45.120 317.719,39.400 314.800 C 25.581 307.749,25.601 307.761,25.595 306.462 C 25.593 305.878,25.232 300.630,24.795 294.800 C 24.357 288.970,23.822 280.870,23.604 276.800 C 23.214 269.488,22.928 265.236,21.803 250.000 C 21.486 245.710,21.135 240.310,21.022 238.000 C 20.624 229.842,19.971 219.344,19.578 214.800 C 19.179 210.189,18.904 205.961,17.796 187.462 C 17.468 181.997,17.121 177.396,17.024 177.238 C 16.926 177.081,16.814 175.613,16.773 173.976 C 16.732 172.339,16.463 167.760,16.173 163.800 C 15.884 159.840,15.539 154.170,15.405 151.200 C 15.272 148.230,14.990 143.910,14.778 141.600 C 14.370 137.151,13.887 130.002,13.197 118.200 C 12.966 114.240,12.516 107.400,12.198 103.000 C 11.880 98.600,11.343 90.500,11.006 85.000 C 10.668 79.500,10.214 72.561,9.996 69.579 C 9.778 66.598,9.600 63.237,9.600 62.112 L 9.600 60.066 13.300 59.241 C 15.335 58.787,18.260 58.156,19.800 57.839 C 21.340 57.521,23.860 56.981,25.400 56.638 C 34.103 54.702,39.608 53.494,44.600 52.427 C 47.680 51.768,51.910 50.850,54.000 50.387 C 56.090 49.923,60.140 49.037,63.000 48.418 C 65.860 47.798,69.550 46.989,71.200 46.619 C 72.850 46.249,75.100 45.787,76.200 45.591 C 77.300 45.395,81.800 44.409,86.200 43.398 C 90.600 42.388,95.638 41.300,97.396 40.982 C 99.154 40.664,102.034 40.045,103.796 39.607 C 107.017 38.806,109.805 38.199,119.400 36.211 C 122.260 35.619,126.040 34.799,127.800 34.389 C 129.560 33.979,134.060 32.994,137.800 32.199 C 141.540 31.405,146.940 30.232,149.800 29.594 C 157.529 27.868,161.996 26.896,168.000 25.632 C 176.306 23.883,192.253 20.399,195.600 19.603 C 199.738 18.618,199.911 18.627,207.057 20.169 M371.400 116.808 C 370.960 117.003,369.430 117.608,368.000 118.152 C 364.154 119.614,349.897 125.073,346.111 126.532 C 343.392 127.581,342.788 127.973,342.621 128.800 C 342.509 129.350,341.960 133.580,341.400 138.200 C 340.840 142.820,340.304 146.870,340.209 147.200 C 340.115 147.530,339.839 149.690,339.597 152.000 C 339.355 154.310,338.729 159.350,338.207 163.200 C 337.684 167.050,336.963 172.720,336.604 175.800 C 336.245 178.880,335.787 182.390,335.586 183.600 C 335.385 184.810,334.762 189.580,334.203 194.200 C 331.461 216.835,331.440 216.929,330.248 211.391 C 329.918 209.856,328.911 205.270,328.011 201.200 C 327.110 197.130,325.932 191.730,325.393 189.200 C 324.853 186.670,323.770 181.720,322.985 178.200 C 322.201 174.680,321.130 169.730,320.606 167.200 C 320.082 164.670,318.987 159.540,318.173 155.800 C 317.358 152.060,316.219 146.750,315.641 144.000 C 314.412 138.156,314.803 138.364,309.242 140.587 C 305.736 141.987,290.549 147.811,286.207 149.420 L 283.815 150.306 283.291 152.853 C 283.004 154.254,282.230 158.550,281.573 162.400 C 280.452 168.967,279.601 173.880,276.795 190.000 C 274.995 200.339,272.835 212.964,272.004 218.000 C 270.476 227.258,268.379 239.456,267.952 241.573 C 267.285 244.874,266.846 243.477,265.583 234.032 C 264.977 229.504,264.198 223.820,263.851 221.400 C 262.152 209.532,261.492 204.824,260.600 198.200 C 258.080 179.500,255.551 161.467,255.427 161.311 C 255.388 161.263,253.926 161.767,252.178 162.433 C 250.430 163.098,247.650 164.146,246.000 164.761 C 244.350 165.376,239.850 167.095,236.000 168.580 C 232.150 170.066,228.144 171.594,227.099 171.975 C 226.053 172.357,225.095 172.772,224.969 172.898 C 224.765 173.101,227.007 188.262,228.000 193.400 C 228.212 194.500,228.754 197.830,229.204 200.800 C 230.318 208.160,232.264 220.267,232.998 224.400 C 233.329 226.270,233.869 229.690,234.197 232.000 C 234.525 234.310,235.064 237.730,235.394 239.600 C 235.724 241.470,236.718 247.500,237.604 253.000 C 238.490 258.500,239.836 266.780,240.594 271.400 C 241.352 276.020,242.525 283.220,243.200 287.400 C 246.313 306.677,247.274 312.508,248.011 316.600 C 248.446 319.020,248.802 321.315,248.802 321.700 C 248.799 322.753,247.901 323.181,276.842 308.324 L 280.685 306.351 281.315 302.676 C 281.662 300.654,282.596 295.220,283.392 290.600 C 284.187 285.980,285.370 279.095,286.019 275.300 C 288.257 262.226,289.573 254.580,290.790 247.600 C 291.461 243.750,292.445 238.080,292.977 235.000 C 293.510 231.920,294.692 225.170,295.606 220.000 C 296.519 214.830,297.607 208.633,298.024 206.230 C 298.440 203.826,298.946 201.694,299.149 201.491 C 299.537 201.103,299.538 201.104,301.843 211.800 C 302.602 215.320,303.770 220.720,304.439 223.800 C 305.108 226.880,306.170 231.830,306.799 234.800 C 307.428 237.770,308.310 241.820,308.759 243.800 C 309.208 245.780,310.217 250.370,311.001 254.000 C 311.785 257.630,312.848 262.490,313.362 264.800 C 313.876 267.110,315.167 273.005,316.231 277.900 C 317.424 283.390,318.347 286.800,318.638 286.800 C 318.899 286.800,320.796 285.925,322.856 284.856 C 324.915 283.787,331.820 280.257,338.200 277.011 C 344.580 273.765,349.852 271.063,349.916 271.006 C 349.980 270.948,350.481 267.863,351.030 264.151 C 351.579 260.438,352.565 253.800,353.220 249.400 C 353.875 245.000,354.943 237.800,355.593 233.400 C 356.243 229.000,357.418 221.080,358.206 215.800 C 358.993 210.520,360.081 203.140,360.622 199.400 C 361.163 195.660,361.864 191.070,362.179 189.200 C 362.494 187.330,362.952 184.360,363.197 182.600 C 363.442 180.840,363.989 177.240,364.412 174.600 C 365.374 168.592,366.960 158.160,370.384 135.317 C 371.050 130.872,371.956 125.022,372.398 122.317 C 373.465 115.778,373.484 115.886,371.400 116.808 M67.742 126.390 C 53.115 129.511,45.449 140.793,45.448 159.200 C 45.445 187.470,60.604 208.805,101.000 237.385 C 112.216 245.320,119.018 251.412,122.110 256.289 C 132.541 272.748,124.347 287.000,108.093 280.670 C 92.749 274.693,84.869 263.258,81.326 241.829 L 81.000 239.857 75.400 237.938 C 72.320 236.883,66.920 235.034,63.400 233.831 C 59.880 232.627,53.310 230.374,48.800 228.823 C 38.798 225.385,39.660 225.397,40.081 228.700 C 45.144 268.425,62.529 292.848,97.563 309.455 C 131.468 325.527,152.517 324.224,163.061 305.400 C 170.609 291.926,170.865 271.842,163.720 253.800 C 155.969 234.230,141.139 219.021,106.200 194.810 C 98.987 189.812,97.919 189.030,94.583 186.311 C 80.479 174.814,83.445 157.801,98.678 162.816 C 112.438 167.347,119.986 176.865,123.088 193.600 L 123.422 195.400 126.611 196.503 C 128.365 197.110,131.420 198.171,133.400 198.862 C 135.380 199.553,138.440 200.616,140.200 201.224 C 141.960 201.832,146.820 203.533,151.000 205.005 C 162.426 209.026,163.552 209.381,163.873 209.061 C 164.035 208.898,163.840 206.478,163.439 203.683 C 159.133 173.665,143.037 152.270,113.800 137.702 C 107.633 134.629,98.129 130.792,92.800 129.224 C 91.150 128.738,89.350 128.184,88.800 127.993 C 84.533 126.512,71.738 125.538,67.742 126.390 " stroke="none" fill="#f2f2f2" fill-rule="evenodd"></path><path id="path3" d="M197.400 19.586 C 196.740 19.759,193.860 20.391,191.000 20.992 C 183.666 22.531,177.693 23.941,178.400 23.967 C 178.730 23.980,181.549 23.469,184.664 22.833 C 195.887 20.541,201.882 20.384,203.183 22.349 C 203.302 22.529,204.480 23.001,205.800 23.397 C 209.131 24.396,216.547 27.306,216.850 27.733 C 216.988 27.927,217.483 27.964,217.950 27.816 C 218.436 27.662,218.800 27.720,218.800 27.953 C 218.800 28.176,219.835 28.678,221.100 29.069 C 222.365 29.459,223.490 29.882,223.600 30.010 C 223.919 30.379,227.362 31.600,228.085 31.600 C 228.447 31.600,228.991 31.848,229.294 32.151 C 229.597 32.454,230.458 32.837,231.207 33.001 C 231.955 33.166,233.355 33.638,234.317 34.050 C 235.279 34.463,236.424 34.800,236.862 34.800 C 237.299 34.800,237.927 35.070,238.257 35.399 C 238.586 35.729,239.338 36.098,239.928 36.219 C 242.171 36.680,244.215 37.391,244.600 37.844 C 244.820 38.103,245.540 38.404,246.200 38.512 C 247.524 38.729,250.086 39.662,250.400 40.042 C 250.682 40.384,253.436 41.252,253.853 41.131 C 254.212 41.027,256.047 41.924,256.400 42.376 C 256.510 42.517,258.220 43.127,260.200 43.732 C 262.180 44.338,263.860 45.005,263.933 45.216 C 264.007 45.427,264.272 45.600,264.522 45.600 C 265.240 45.600,270.578 47.321,270.800 47.625 C 270.910 47.775,272.305 48.316,273.900 48.827 C 275.495 49.339,276.803 49.947,276.806 50.179 C 276.809 50.410,276.963 50.362,277.148 50.070 C 277.422 49.638,277.595 49.652,278.087 50.145 C 278.420 50.477,280.066 51.148,281.746 51.636 C 283.426 52.124,284.800 52.644,284.800 52.791 C 284.800 52.939,286.195 53.490,287.900 54.017 C 289.605 54.543,291.103 55.119,291.229 55.296 C 291.356 55.474,291.839 55.692,292.303 55.781 C 292.768 55.871,293.508 56.137,293.948 56.372 C 294.388 56.607,295.106 56.800,295.545 56.800 C 295.984 56.800,296.581 57.032,296.871 57.315 C 297.162 57.599,298.740 58.230,300.379 58.719 C 302.017 59.207,303.457 59.758,303.579 59.942 C 303.804 60.283,308.973 62.000,309.773 62.000 C 310.014 62.000,310.839 62.332,311.606 62.739 C 312.373 63.145,314.080 63.809,315.400 64.214 C 316.720 64.619,317.890 65.078,318.000 65.234 C 318.110 65.390,318.989 65.729,319.953 65.988 C 320.917 66.247,322.627 66.877,323.753 67.386 C 324.879 67.896,326.835 68.636,328.100 69.030 C 329.365 69.424,330.400 69.879,330.400 70.041 C 330.400 70.204,330.985 70.461,331.700 70.613 C 333.788 71.057,337.718 72.470,338.772 73.155 C 340.374 74.196,344.051 73.966,348.800 72.528 C 351.110 71.829,355.610 70.504,358.800 69.584 C 366.802 67.275,381.162 62.985,384.886 61.790 C 386.583 61.246,388.284 60.800,388.666 60.800 C 390.433 60.800,388.195 60.047,384.000 59.230 C 381.470 58.737,378.860 58.155,378.200 57.935 C 377.540 57.716,376.100 57.393,375.000 57.219 C 373.171 56.929,364.561 55.084,353.400 52.591 C 350.980 52.050,346.030 50.971,342.400 50.193 C 338.770 49.415,333.820 48.337,331.400 47.796 C 328.980 47.256,324.930 46.363,322.400 45.812 C 319.870 45.261,315.640 44.332,313.000 43.747 C 310.360 43.163,307.120 42.459,305.800 42.183 C 304.480 41.908,302.140 41.383,300.600 41.018 C 299.060 40.652,297.350 40.257,296.800 40.140 C 296.250 40.023,293.640 39.474,291.000 38.919 C 288.360 38.364,285.120 37.658,283.800 37.350 C 282.480 37.042,280.333 36.603,279.029 36.375 C 277.725 36.147,276.511 35.869,276.331 35.757 C 276.150 35.646,275.687 35.493,275.302 35.417 C 272.564 34.879,267.386 33.778,262.800 32.758 C 255.821 31.206,250.134 29.955,242.200 28.226 C 238.680 27.459,234.090 26.443,232.000 25.968 C 229.910 25.493,227.480 24.970,226.600 24.805 C 225.720 24.640,221.220 23.659,216.600 22.624 C 199.866 18.875,200.023 18.900,197.400 19.586 M170.200 25.409 C 169.100 25.692,168.560 25.937,169.000 25.954 C 169.440 25.971,170.700 25.734,171.800 25.428 C 174.311 24.729,172.909 24.713,170.200 25.409 M385.293 139.600 C 385.293 140.370,385.375 140.685,385.476 140.300 C 385.576 139.915,385.576 139.285,385.476 138.900 C 385.375 138.515,385.293 138.830,385.293 139.600 M378.493 243.200 C 378.493 243.970,378.575 244.285,378.676 243.900 C 378.776 243.515,378.776 242.885,378.676 242.500 C 378.575 242.115,378.493 242.430,378.493 243.200 " stroke="none" fill="#f37c7c" fill-rule="evenodd"></path><path id="path4" d="M196.800 19.431 L 195.000 19.984 196.600 19.727 C 197.480 19.585,199.010 19.343,200.000 19.188 L 201.800 18.907 200.200 18.893 C 199.320 18.885,197.790 19.127,196.800 19.431 M202.800 19.600 C 203.350 19.776,204.160 19.920,204.600 19.920 C 205.233 19.920,205.192 19.854,204.400 19.600 C 203.850 19.424,203.040 19.280,202.600 19.280 C 201.967 19.280,202.008 19.346,202.800 19.600 M188.400 21.126 C 186.750 21.476,185.674 21.821,186.009 21.893 C 186.344 21.965,188.054 21.677,189.809 21.253 C 193.653 20.325,192.617 20.231,188.400 21.126 M210.400 21.225 C 212.050 21.633,213.670 21.954,214.000 21.938 C 214.849 21.896,209.172 20.463,208.200 20.474 C 207.760 20.479,208.750 20.817,210.400 21.225 M179.200 23.200 C 178.408 23.454,178.367 23.520,179.000 23.520 C 179.440 23.520,180.250 23.376,180.800 23.200 C 181.592 22.946,181.633 22.880,181.000 22.880 C 180.560 22.880,179.750 23.024,179.200 23.200 M219.400 23.194 C 222.566 24.042,226.832 24.902,227.006 24.727 C 227.227 24.506,219.723 22.775,218.800 22.834 C 218.470 22.855,218.740 23.017,219.400 23.194 M175.600 24.000 C 174.808 24.254,174.767 24.320,175.400 24.320 C 175.840 24.320,176.650 24.176,177.200 24.000 C 177.992 23.746,178.033 23.680,177.400 23.680 C 176.960 23.680,176.150 23.824,175.600 24.000 M232.000 26.025 C 233.650 26.433,235.360 26.756,235.800 26.742 C 236.240 26.728,235.250 26.383,233.600 25.975 C 231.950 25.567,230.240 25.244,229.800 25.258 C 229.360 25.272,230.350 25.617,232.000 26.025 M164.000 26.400 C 162.656 26.831,164.108 26.831,165.800 26.400 C 166.878 26.126,166.898 26.094,166.000 26.087 C 165.450 26.083,164.550 26.224,164.000 26.400 M243.200 28.433 C 247.321 29.458,250.028 29.886,249.567 29.438 C 249.475 29.349,248.770 29.177,248.000 29.056 C 247.230 28.935,245.070 28.469,243.200 28.021 C 241.330 27.572,239.530 27.224,239.200 27.247 C 238.870 27.270,240.670 27.804,243.200 28.433 M250.000 29.751 C 250.000 30.035,257.616 31.661,258.108 31.482 C 258.379 31.383,257.880 31.172,257.000 31.012 C 256.120 30.852,254.384 30.469,253.142 30.161 C 250.846 29.591,250.000 29.480,250.000 29.751 M259.600 32.000 C 260.150 32.176,260.960 32.320,261.400 32.320 C 262.033 32.320,261.992 32.254,261.200 32.000 C 260.650 31.824,259.840 31.680,259.400 31.680 C 258.767 31.680,258.808 31.746,259.600 32.000 M266.200 33.427 C 273.684 35.185,275.267 35.507,274.933 35.206 C 274.461 34.779,263.677 32.350,262.669 32.444 C 262.411 32.468,264.000 32.910,266.200 33.427 M131.200 33.600 C 130.396 33.857,130.357 33.923,131.000 33.932 C 131.440 33.938,132.160 33.789,132.600 33.600 C 133.619 33.162,132.568 33.162,131.200 33.600 M276.028 35.554 C 276.374 35.777,277.724 36.146,279.028 36.375 C 280.333 36.603,282.480 37.042,283.800 37.349 C 289.322 38.636,295.841 39.994,296.400 39.974 C 297.149 39.947,289.510 38.094,282.600 36.627 C 275.278 35.072,275.281 35.073,276.028 35.554 M298.200 40.393 C 299.198 40.816,304.063 41.896,306.200 42.169 C 307.080 42.282,305.730 41.845,303.200 41.198 C 298.673 40.041,296.570 39.702,298.200 40.393 M94.000 41.600 C 93.208 41.854,93.167 41.920,93.800 41.920 C 94.240 41.920,95.050 41.776,95.600 41.600 C 96.392 41.346,96.433 41.280,95.800 41.280 C 95.360 41.280,94.550 41.424,94.000 41.600 M308.033 42.566 C 308.125 42.658,310.360 43.200,313.000 43.771 C 315.640 44.343,319.814 45.277,322.275 45.847 C 324.736 46.417,326.964 46.812,327.225 46.725 C 327.728 46.557,321.272 44.965,313.600 43.366 C 309.121 42.432,307.693 42.226,308.033 42.566 M331.800 47.790 C 333.780 48.294,338.550 49.376,342.400 50.194 C 346.250 51.013,351.290 52.109,353.600 52.630 C 364.829 55.165,373.134 56.926,374.400 57.040 C 376.484 57.229,372.693 56.281,363.800 54.389 C 359.620 53.500,353.950 52.254,351.200 51.622 C 348.450 50.989,343.860 49.980,341.000 49.380 C 338.140 48.780,334.308 47.953,332.485 47.544 C 327.889 46.513,327.432 46.677,331.800 47.790 M377.150 57.631 C 378.418 58.138,386.027 59.706,386.231 59.502 C 386.419 59.314,377.564 57.188,376.750 57.225 C 376.448 57.239,376.627 57.422,377.150 57.631 M388.500 60.057 L 390.400 60.487 390.478 63.343 L 390.557 66.200 390.698 63.440 C 390.862 60.231,390.784 60.108,388.400 59.835 L 386.600 59.628 388.500 60.057 M9.728 64.000 C 9.728 65.430,9.801 66.015,9.889 65.300 C 9.978 64.585,9.978 63.415,9.889 62.700 C 9.801 61.985,9.728 62.570,9.728 64.000 M10.120 69.200 C 10.120 70.410,10.195 70.905,10.287 70.300 C 10.378 69.695,10.378 68.705,10.287 68.100 C 10.195 67.495,10.120 67.990,10.120 69.200 M390.124 69.400 C 390.126 70.720,390.201 71.212,390.290 70.493 C 390.379 69.774,390.377 68.694,390.286 68.093 C 390.195 67.492,390.122 68.080,390.124 69.400 M389.693 75.200 C 389.693 75.970,389.775 76.285,389.876 75.900 C 389.976 75.515,389.976 74.885,389.876 74.500 C 389.775 74.115,389.693 74.430,389.693 75.200 M10.528 77.200 C 10.528 78.630,10.601 79.215,10.689 78.500 C 10.778 77.785,10.778 76.615,10.689 75.900 C 10.601 75.185,10.528 75.770,10.528 77.200 M10.931 83.000 C 10.933 84.540,11.005 85.121,11.092 84.291 C 11.179 83.461,11.177 82.201,11.089 81.491 C 11.000 80.781,10.929 81.460,10.931 83.000 M11.331 88.600 C 11.333 90.140,11.405 90.721,11.492 89.891 C 11.579 89.061,11.577 87.801,11.489 87.091 C 11.400 86.381,11.329 87.060,11.331 88.600 M388.622 91.022 C 388.464 93.797,388.421 96.154,388.526 96.259 C 388.631 96.364,388.847 94.181,389.007 91.407 C 389.167 88.634,389.211 86.277,389.104 86.171 C 388.997 86.064,388.780 88.247,388.622 91.022 M11.714 94.200 C 11.709 95.740,11.832 98.350,11.988 100.000 L 12.271 103.000 12.296 100.600 C 12.309 99.280,12.186 96.670,12.022 94.800 L 11.724 91.400 11.714 94.200 M388.128 99.600 C 388.128 101.030,388.201 101.615,388.289 100.900 C 388.378 100.185,388.378 99.015,388.289 98.300 C 388.201 97.585,388.128 98.170,388.128 99.600 M387.731 105.400 C 387.733 106.940,387.805 107.521,387.892 106.691 C 387.979 105.861,387.977 104.601,387.889 103.891 C 387.800 103.181,387.729 103.860,387.731 105.400 M12.493 106.400 C 12.493 107.170,12.575 107.485,12.676 107.100 C 12.776 106.715,12.776 106.085,12.676 105.700 C 12.575 105.315,12.493 105.630,12.493 106.400 M12.931 113.400 C 12.933 114.940,13.005 115.521,13.092 114.691 C 13.179 113.861,13.177 112.601,13.089 111.891 C 13.000 111.181,12.929 111.860,12.931 113.400 M386.893 117.600 C 386.893 118.370,386.975 118.685,387.076 118.300 C 387.176 117.915,387.176 117.285,387.076 116.900 C 386.975 116.515,386.893 116.830,386.893 117.600 M13.402 120.600 C 13.656 126.718,14.414 138.526,14.596 139.200 C 14.877 140.242,14.323 129.259,13.768 122.800 C 13.390 118.394,13.284 117.757,13.402 120.600 M386.531 125.000 C 386.533 126.540,386.605 127.121,386.692 126.291 C 386.779 125.461,386.777 124.201,386.689 123.491 C 386.600 122.781,386.529 123.460,386.531 125.000 M70.600 125.674 C 68.840 125.826,66.320 126.320,65.000 126.771 C 62.531 127.615,62.643 127.604,67.400 126.545 C 70.898 125.766,79.907 126.005,84.531 126.998 C 86.253 127.369,87.744 127.590,87.843 127.490 C 88.710 126.623,75.594 125.242,70.600 125.674 M59.400 128.893 C 49.150 134.324,43.228 149.592,45.161 165.600 C 45.717 170.199,46.441 174.092,46.695 173.839 C 46.797 173.736,46.549 171.796,46.145 169.526 C 42.955 151.643,48.381 135.496,59.689 129.225 C 63.123 127.321,62.884 127.047,59.400 128.893 M89.000 127.983 C 89.996 128.392,99.511 131.561,100.600 131.846 C 103.189 132.523,99.305 130.927,94.587 129.374 C 89.876 127.824,86.672 127.026,89.000 127.983 M385.807 133.007 C 385.647 135.781,385.603 138.137,385.709 138.242 C 385.815 138.348,386.033 136.166,386.193 133.393 C 386.353 130.619,386.397 128.263,386.291 128.158 C 386.185 128.052,385.967 130.234,385.807 133.007 M101.643 132.177 C 101.904 132.437,108.426 135.203,108.735 135.184 C 109.201 135.156,106.676 133.896,104.224 132.933 C 101.854 132.002,101.309 131.843,101.643 132.177 M115.000 138.332 C 137.482 149.998,151.774 165.131,158.614 184.511 C 159.217 186.222,159.798 187.535,159.904 187.429 C 160.169 187.164,157.390 180.017,155.694 176.600 C 147.716 160.532,134.546 147.906,115.741 138.296 C 112.409 136.593,109.529 135.204,109.341 135.209 C 109.154 135.214,111.700 136.619,115.000 138.332 M340.893 140.400 C 340.893 141.170,340.975 141.485,341.076 141.100 C 341.176 140.715,341.176 140.085,341.076 139.700 C 340.975 139.315,340.893 139.630,340.893 140.400 M385.320 142.800 C 385.320 144.010,385.395 144.505,385.487 143.900 C 385.578 143.295,385.578 142.305,385.487 141.700 C 385.395 141.095,385.320 141.590,385.320 142.800 M14.893 142.400 C 14.893 143.170,14.975 143.485,15.076 143.100 C 15.176 142.715,15.176 142.085,15.076 141.700 C 14.975 141.315,14.893 141.630,14.893 142.400 M340.493 143.600 C 340.493 144.370,340.575 144.685,340.676 144.300 C 340.776 143.915,340.776 143.285,340.676 142.900 C 340.575 142.515,340.493 142.830,340.493 143.600 M316.480 147.800 C 316.480 148.240,316.624 149.050,316.800 149.600 C 317.054 150.392,317.120 150.433,317.120 149.800 C 317.120 149.360,316.976 148.550,316.800 148.000 C 316.546 147.208,316.480 147.167,316.480 147.800 M15.320 149.600 C 15.320 150.810,15.395 151.305,15.487 150.700 C 15.578 150.095,15.578 149.105,15.487 148.500 C 15.395 147.895,15.320 148.390,15.320 149.600 M286.600 149.014 C 285.600 149.496,285.566 149.551,286.400 149.348 C 287.533 149.071,288.807 148.421,288.200 148.430 C 287.980 148.433,287.260 148.696,286.600 149.014 M339.293 152.800 C 339.293 153.570,339.375 153.885,339.476 153.500 C 339.576 153.115,339.576 152.485,339.476 152.100 C 339.375 151.715,339.293 152.030,339.293 152.800 M15.731 155.800 C 15.733 157.340,15.805 157.921,15.892 157.091 C 15.979 156.261,15.977 155.001,15.889 154.291 C 15.800 153.581,15.729 154.260,15.731 155.800 M384.514 155.000 C 384.517 156.100,384.595 156.503,384.687 155.895 C 384.779 155.286,384.777 154.386,384.682 153.895 C 384.587 153.403,384.511 153.900,384.514 155.000 M338.493 159.200 C 338.493 159.970,338.575 160.285,338.676 159.900 C 338.776 159.515,338.776 158.885,338.676 158.500 C 338.575 158.115,338.493 158.430,338.493 159.200 M384.131 161.000 C 384.133 162.540,384.205 163.121,384.292 162.291 C 384.379 161.461,384.377 160.201,384.289 159.491 C 384.200 158.781,384.129 159.460,384.131 161.000 M16.131 161.400 C 16.133 162.940,16.205 163.521,16.292 162.691 C 16.379 161.861,16.377 160.601,16.289 159.891 C 16.200 159.181,16.129 159.860,16.131 161.400 M338.093 162.000 C 338.093 162.770,338.175 163.085,338.276 162.700 C 338.376 162.315,338.376 161.685,338.276 161.300 C 338.175 160.915,338.093 161.230,338.093 162.000 M92.600 161.888 C 90.382 162.284,89.858 162.530,88.367 163.877 C 86.624 165.452,85.576 167.477,85.640 169.149 C 85.673 169.998,85.749 169.909,86.037 168.687 C 87.110 164.127,89.179 162.598,94.262 162.605 C 96.307 162.608,97.670 162.499,97.290 162.364 C 96.280 162.003,93.525 161.723,92.600 161.888 M103.205 165.063 C 111.889 169.484,116.881 175.051,120.239 184.061 C 121.005 186.118,121.533 187.185,121.412 186.432 C 119.999 177.626,109.409 166.026,100.400 163.415 C 99.850 163.256,101.112 163.997,103.205 165.063 M247.800 163.814 C 246.800 164.296,246.766 164.351,247.600 164.148 C 248.733 163.871,250.007 163.221,249.400 163.230 C 249.180 163.233,248.460 163.496,247.800 163.814 M16.531 167.000 C 16.533 168.540,16.605 169.121,16.692 168.291 C 16.779 167.461,16.777 166.201,16.689 165.491 C 16.600 164.781,16.529 165.460,16.531 167.000 M383.728 167.200 C 383.728 168.630,383.801 169.215,383.889 168.500 C 383.978 167.785,383.978 166.615,383.889 165.900 C 383.801 165.185,383.728 165.770,383.728 167.200 M256.493 168.400 C 256.493 169.170,256.575 169.485,256.676 169.100 C 256.776 168.715,256.776 168.085,256.676 167.700 C 256.575 167.315,256.493 167.630,256.493 168.400 M321.280 170.200 C 321.280 170.640,321.424 171.450,321.600 172.000 C 321.854 172.792,321.920 172.833,321.920 172.200 C 321.920 171.760,321.776 170.950,321.600 170.400 C 321.346 169.608,321.280 169.567,321.280 170.200 M16.747 170.900 C 16.666 171.395,16.703 173.060,16.829 174.600 L 17.059 177.400 17.129 173.700 C 17.198 170.121,17.050 169.039,16.747 170.900 M383.314 173.000 C 383.317 174.100,383.395 174.503,383.487 173.895 C 383.579 173.286,383.577 172.386,383.482 171.895 C 383.387 171.403,383.311 171.900,383.314 173.000 M85.786 173.733 C 86.192 177.308,89.710 182.339,94.583 186.311 C 97.919 189.030,98.987 189.812,106.200 194.810 C 137.673 216.619,151.681 230.084,160.833 247.324 C 163.096 251.586,163.482 251.733,161.363 247.527 C 152.991 230.902,138.653 216.996,107.400 195.187 C 91.667 184.209,87.682 180.207,86.000 173.698 L 85.612 172.200 85.786 173.733 M46.856 174.800 C 46.856 175.130,47.011 175.760,47.200 176.200 C 47.417 176.704,47.544 176.778,47.544 176.400 C 47.544 176.070,47.389 175.440,47.200 175.000 C 46.983 174.496,46.856 174.422,46.856 174.800 M336.093 178.000 C 336.093 178.770,336.175 179.085,336.276 178.700 C 336.376 178.315,336.376 177.685,336.276 177.300 C 336.175 176.915,336.093 177.230,336.093 178.000 M382.909 178.400 C 382.909 179.390,382.987 179.795,383.082 179.300 C 383.178 178.805,383.178 177.995,383.082 177.500 C 382.987 177.005,382.909 177.410,382.909 178.400 M47.600 177.551 C 47.600 178.517,50.530 185.882,52.235 189.200 C 59.848 204.022,74.592 219.228,95.891 234.225 C 113.467 246.601,119.602 252.192,123.460 259.347 C 124.787 261.810,125.224 262.207,124.310 260.119 C 121.529 253.767,114.589 246.999,101.000 237.385 C 70.456 215.775,55.455 199.395,48.997 180.600 C 47.860 177.292,47.600 176.723,47.600 177.551 M17.293 179.200 C 17.293 179.970,17.375 180.285,17.476 179.900 C 17.576 179.515,17.576 178.885,17.476 178.500 C 17.375 178.115,17.293 178.430,17.293 179.200 M335.693 181.200 C 335.693 181.970,335.775 182.285,335.876 181.900 C 335.976 181.515,335.976 180.885,335.876 180.500 C 335.775 180.115,335.693 180.430,335.693 181.200 M324.068 183.000 C 324.062 183.440,324.211 184.160,324.400 184.600 C 324.838 185.619,324.838 184.568,324.400 183.200 C 324.143 182.396,324.077 182.357,324.068 183.000 M17.724 185.800 C 17.726 187.120,17.801 187.612,17.890 186.893 C 17.979 186.174,17.977 185.094,17.886 184.493 C 17.795 183.892,17.722 184.480,17.724 185.800 M258.893 185.600 C 258.893 186.370,258.975 186.685,259.076 186.300 C 259.176 185.915,259.176 185.285,259.076 184.900 C 258.975 184.515,258.893 184.830,258.893 185.600 M121.768 188.800 C 121.870 189.350,122.179 191.060,122.454 192.600 C 122.925 195.244,123.299 195.980,124.176 195.994 C 124.384 195.997,124.269 195.775,123.922 195.500 C 123.572 195.223,123.066 193.750,122.788 192.200 C 122.511 190.660,122.127 189.040,121.933 188.600 C 121.633 187.918,121.609 187.947,121.768 188.800 M160.400 189.346 C 160.400 190.110,162.532 198.002,162.694 197.839 C 162.889 197.644,160.905 189.572,160.582 189.249 C 160.482 189.149,160.400 189.192,160.400 189.346 M382.120 191.200 C 382.120 192.410,382.195 192.905,382.287 192.300 C 382.378 191.695,382.378 190.705,382.287 190.100 C 382.195 189.495,382.120 189.990,382.120 191.200 M18.131 192.200 C 18.133 193.740,18.205 194.321,18.292 193.491 C 18.379 192.661,18.377 191.401,18.289 190.691 C 18.200 189.981,18.129 190.660,18.131 192.200 M326.080 192.200 C 326.080 192.640,326.224 193.450,326.400 194.000 C 326.654 194.792,326.720 194.833,326.720 194.200 C 326.720 193.760,326.576 192.950,326.400 192.400 C 326.146 191.608,326.080 191.567,326.080 192.200 M18.528 197.600 C 18.528 199.030,18.601 199.615,18.689 198.900 C 18.778 198.185,18.778 197.015,18.689 196.300 C 18.601 195.585,18.528 196.170,18.528 197.600 M381.724 197.400 C 381.726 198.720,381.801 199.212,381.890 198.493 C 381.979 197.774,381.977 196.694,381.886 196.093 C 381.795 195.492,381.722 196.080,381.724 197.400 M333.693 196.800 C 333.693 197.570,333.775 197.885,333.876 197.500 C 333.976 197.115,333.976 196.485,333.876 196.100 C 333.775 195.715,333.693 196.030,333.693 196.800 M124.835 196.152 C 125.161 196.501,130.901 198.432,131.081 198.253 C 131.161 198.173,130.185 197.734,128.913 197.278 C 126.001 196.234,124.532 195.828,124.835 196.152 M333.301 199.800 C 333.305 200.680,333.387 200.993,333.483 200.495 C 333.579 199.998,333.575 199.278,333.475 198.895 C 333.375 198.513,333.296 198.920,333.301 199.800 M132.800 198.968 C 132.800 199.060,133.745 199.446,134.900 199.826 C 136.055 200.206,137.270 200.609,137.600 200.722 C 139.252 201.288,137.408 200.261,135.556 199.584 C 133.393 198.793,132.800 198.661,132.800 198.968 M163.012 200.200 C 163.114 201.080,163.410 203.373,163.670 205.295 C 164.212 209.304,164.129 209.497,162.120 208.880 C 161.306 208.630,160.577 208.490,160.499 208.568 C 160.276 208.791,164.066 210.006,164.380 209.812 C 164.722 209.601,164.218 205.197,163.417 201.400 C 163.092 199.860,162.909 199.320,163.012 200.200 M18.944 204.000 C 18.944 206.090,19.012 206.945,19.094 205.900 C 19.176 204.855,19.176 203.145,19.094 202.100 C 19.012 201.055,18.944 201.910,18.944 204.000 M141.357 201.998 C 143.093 202.670,144.590 203.143,144.684 203.049 C 144.890 202.843,140.885 201.314,139.316 201.000 C 138.702 200.877,139.621 201.326,141.357 201.998 M298.825 202.168 C 298.574 202.811,298.444 203.621,298.537 203.968 C 298.647 204.374,298.724 204.287,298.754 203.724 C 298.802 202.812,299.600 201.981,299.600 202.843 C 299.600 203.113,299.694 203.239,299.809 203.125 C 299.923 203.010,299.852 202.485,299.650 201.958 L 299.282 201.000 298.825 202.168 M381.328 203.600 C 381.328 205.030,381.401 205.615,381.489 204.900 C 381.578 204.185,381.578 203.015,381.489 202.300 C 381.401 201.585,381.328 202.170,381.328 203.600 M261.293 203.200 C 261.293 203.970,261.375 204.285,261.476 203.900 C 261.576 203.515,261.576 202.885,261.476 202.500 C 261.375 202.115,261.293 202.430,261.293 203.200 M148.163 204.435 C 149.903 205.089,151.523 205.559,151.763 205.479 C 152.205 205.331,146.137 203.181,145.399 203.223 C 145.179 203.235,146.423 203.781,148.163 204.435 M328.880 205.000 C 328.880 205.440,329.024 206.250,329.200 206.800 C 329.454 207.592,329.520 207.633,329.520 207.000 C 329.520 206.560,329.376 205.750,329.200 205.200 C 328.946 204.408,328.880 204.367,328.880 205.000 M152.426 205.728 C 152.761 206.109,159.632 208.501,159.828 208.306 C 159.920 208.213,158.512 207.627,156.698 207.003 C 152.092 205.419,152.175 205.444,152.426 205.728 M380.931 210.200 C 380.933 211.740,381.005 212.321,381.092 211.491 C 381.179 210.661,381.177 209.401,381.089 208.691 C 381.000 207.981,380.929 208.660,380.931 210.200 M19.324 210.200 C 19.326 211.520,19.401 212.012,19.490 211.293 C 19.579 210.574,19.577 209.494,19.486 208.893 C 19.395 208.292,19.322 208.880,19.324 210.200 M331.600 212.133 C 331.600 212.720,331.420 213.200,331.200 213.200 C 330.980 213.200,330.800 212.900,330.800 212.533 C 330.800 212.167,330.701 211.965,330.581 212.086 C 330.265 212.402,330.822 214.400,331.225 214.400 C 331.640 214.400,332.193 211.660,331.848 211.315 C 331.712 211.178,331.600 211.547,331.600 212.133 M19.693 214.800 C 19.693 215.570,19.775 215.885,19.876 215.500 C 19.976 215.115,19.976 214.485,19.876 214.100 C 19.775 213.715,19.693 214.030,19.693 214.800 M380.528 216.400 C 380.528 217.830,380.601 218.415,380.689 217.700 C 380.778 216.985,380.778 215.815,380.689 215.100 C 380.601 214.385,380.528 214.970,380.528 216.400 M263.693 220.400 C 263.693 221.170,263.775 221.485,263.876 221.100 C 263.976 220.715,263.976 220.085,263.876 219.700 C 263.775 219.315,263.693 219.630,263.693 220.400 M380.093 220.400 C 380.093 221.170,380.175 221.485,380.276 221.100 C 380.376 220.715,380.376 220.085,380.276 219.700 C 380.175 219.315,380.093 219.630,380.093 220.400 M20.131 222.600 C 20.133 224.140,20.205 224.721,20.292 223.891 C 20.379 223.061,20.377 221.801,20.289 221.091 C 20.200 220.381,20.129 221.060,20.131 222.600 M20.528 228.000 C 20.528 229.430,20.601 230.015,20.689 229.300 C 20.778 228.585,20.778 227.415,20.689 226.700 C 20.601 225.985,20.528 226.570,20.528 228.000 M45.800 227.803 C 49.320 229.007,52.353 229.943,52.539 229.883 C 52.975 229.743,40.797 225.583,40.000 225.600 C 39.670 225.607,42.280 226.598,45.800 227.803 M379.728 228.000 C 379.728 229.430,379.801 230.015,379.889 229.300 C 379.978 228.585,379.978 227.415,379.889 226.700 C 379.801 225.985,379.728 226.570,379.728 228.000 M39.693 227.600 C 39.693 228.370,39.775 228.685,39.876 228.300 C 39.976 227.915,39.976 227.285,39.876 226.900 C 39.775 226.515,39.693 226.830,39.693 227.600 M356.093 230.000 C 356.093 230.770,356.175 231.085,356.276 230.700 C 356.376 230.315,356.376 229.685,356.276 229.300 C 356.175 228.915,356.093 229.230,356.093 230.000 M40.041 230.660 C 39.992 232.174,41.506 241.249,41.861 241.572 C 41.999 241.697,41.978 240.990,41.815 240.000 C 41.652 239.010,41.195 236.220,40.800 233.800 C 40.405 231.380,40.063 229.967,40.041 230.660 M53.200 230.104 C 53.200 230.409,59.218 232.515,59.445 232.289 C 59.558 232.175,58.425 231.677,56.926 231.183 C 55.426 230.688,53.975 230.200,53.700 230.099 C 53.425 229.997,53.200 230.000,53.200 230.104 M305.680 230.600 C 305.680 231.040,305.824 231.850,306.000 232.400 C 306.254 233.192,306.320 233.233,306.320 232.600 C 306.320 232.160,306.176 231.350,306.000 230.800 C 305.746 230.008,305.680 229.967,305.680 230.600 M20.928 234.000 C 20.928 235.430,21.001 236.015,21.089 235.300 C 21.178 234.585,21.178 233.415,21.089 232.700 C 21.001 231.985,20.928 232.570,20.928 234.000 M379.324 233.800 C 379.326 235.120,379.401 235.612,379.490 234.893 C 379.579 234.174,379.577 233.094,379.486 232.493 C 379.395 231.892,379.322 232.480,379.324 233.800 M60.800 232.867 C 63.578 234.023,75.732 238.001,75.918 237.815 C 76.037 237.697,76.036 237.600,75.918 237.600 C 75.799 237.600,72.263 236.430,68.061 235.000 C 61.131 232.642,58.171 231.773,60.800 232.867 M266.093 237.600 C 266.093 238.370,266.175 238.685,266.276 238.300 C 266.376 237.915,266.376 237.285,266.276 236.900 C 266.175 236.515,266.093 236.830,266.093 237.600 M21.290 243.116 C 21.706 250.236,21.980 250.916,21.726 244.200 C 21.610 241.120,21.398 238.472,21.254 238.316 C 21.110 238.160,21.126 240.320,21.290 243.116 M76.469 238.203 C 76.581 238.314,77.641 238.735,78.825 239.137 C 81.212 239.948,80.953 239.426,81.986 245.526 C 82.721 249.863,82.896 248.765,82.203 244.166 C 81.874 241.985,81.604 240.089,81.602 239.954 C 81.601 239.818,80.547 239.323,79.259 238.854 C 76.948 238.011,76.074 237.807,76.469 238.203 M378.909 240.000 C 378.909 240.990,378.987 241.395,379.082 240.900 C 379.178 240.405,379.178 239.595,379.082 239.100 C 378.987 238.605,378.909 239.010,378.909 240.000 M266.464 240.200 C 266.449 240.860,266.670 241.940,266.956 242.600 L 267.477 243.800 267.776 242.471 C 267.941 241.741,267.969 241.036,267.838 240.905 C 267.707 240.774,267.600 241.087,267.600 241.600 C 267.600 242.919,267.130 242.288,266.784 240.504 C 266.519 239.137,266.489 239.109,266.464 240.200 M42.033 242.468 C 41.879 245.618,51.256 270.477,52.230 269.503 C 52.351 269.383,51.737 267.870,50.866 266.142 C 47.717 259.893,45.606 254.352,43.419 246.600 C 42.674 243.960,42.050 242.101,42.033 242.468 M378.276 249.000 C 378.113 251.640,377.869 255.240,377.734 257.000 C 377.600 258.760,377.588 260.110,377.708 260.000 C 378.007 259.724,378.927 246.438,378.732 245.200 C 378.645 244.650,378.440 246.360,378.276 249.000 M83.044 250.400 C 83.395 252.909,85.746 259.265,87.477 262.387 C 98.989 283.144,124.647 289.542,126.615 272.145 C 126.929 269.376,126.257 264.388,125.364 262.856 C 125.004 262.237,124.857 262.131,125.009 262.600 C 129.993 277.956,120.523 286.130,105.752 279.220 C 94.762 274.079,87.966 265.723,83.940 252.400 C 83.209 249.980,82.883 249.254,83.044 250.400 M22.124 252.600 C 22.126 253.920,22.201 254.412,22.290 253.693 C 22.379 252.974,22.377 251.894,22.286 251.293 C 22.195 250.692,22.122 251.280,22.124 252.600 M163.059 252.000 C 163.198 252.550,163.734 253.900,164.251 255.000 C 164.769 256.100,165.079 256.550,164.941 256.000 C 164.802 255.450,164.266 254.100,163.749 253.000 C 163.231 251.900,162.921 251.450,163.059 252.000 M289.018 257.418 C 288.865 258.439,288.822 259.355,288.922 259.455 C 289.022 259.555,289.229 258.802,289.382 257.782 C 289.535 256.761,289.578 255.845,289.478 255.745 C 289.378 255.645,289.171 256.398,289.018 257.418 M22.534 258.800 C 22.534 260.450,22.605 261.125,22.691 260.300 C 22.778 259.475,22.778 258.125,22.691 257.300 C 22.605 256.475,22.534 257.150,22.534 258.800 M238.095 257.600 C 238.095 258.150,238.232 259.140,238.400 259.800 C 238.672 260.870,238.705 260.892,238.705 260.000 C 238.705 259.450,238.568 258.460,238.400 257.800 C 238.128 256.730,238.095 256.708,238.095 257.600 M165.225 257.306 C 165.176 257.905,167.315 265.219,167.489 265.044 C 167.587 264.947,167.304 263.547,166.860 261.933 C 166.030 258.917,165.270 256.766,165.225 257.306 M351.293 262.400 C 351.293 263.170,351.375 263.485,351.476 263.100 C 351.576 262.715,351.576 262.085,351.476 261.700 C 351.375 261.315,351.293 261.630,351.293 262.400 M377.324 263.800 C 377.326 265.120,377.401 265.612,377.490 264.893 C 377.579 264.174,377.577 263.094,377.486 262.493 C 377.395 261.892,377.322 262.480,377.324 263.800 M22.914 265.000 C 22.917 266.100,22.995 266.503,23.087 265.895 C 23.179 265.286,23.177 264.386,23.082 263.895 C 22.987 263.403,22.911 263.900,22.914 265.000 M167.840 267.600 C 167.964 268.590,168.227 270.480,168.425 271.800 C 168.989 275.568,168.849 286.976,168.194 290.600 C 167.559 294.117,167.504 294.629,167.797 294.336 C 169.520 292.613,169.780 274.964,168.182 268.200 C 167.723 266.254,167.658 266.141,167.840 267.600 M23.324 270.600 C 23.326 271.920,23.401 272.412,23.490 271.693 C 23.579 270.974,23.577 269.894,23.486 269.293 C 23.395 268.692,23.322 269.280,23.324 270.600 M376.893 270.800 C 376.893 271.570,376.975 271.885,377.076 271.500 C 377.176 271.115,377.176 270.485,377.076 270.100 C 376.975 269.715,376.893 270.030,376.893 270.800 M53.822 272.700 C 61.589 286.770,76.054 299.280,95.760 308.970 C 105.285 313.654,118.066 318.711,119.320 318.293 C 119.538 318.221,117.469 317.415,114.722 316.503 C 87.796 307.565,65.644 291.757,55.021 273.900 C 52.370 269.442,51.596 268.668,53.822 272.700 M347.500 272.226 C 346.455 272.770,345.600 273.305,345.600 273.414 C 345.600 273.524,346.500 273.157,347.600 272.600 C 348.700 272.043,349.600 271.500,349.600 271.393 C 349.600 271.129,349.636 271.114,347.500 272.226 M343.100 274.427 C 342.275 274.863,341.600 275.308,341.600 275.418 C 341.600 275.596,344.759 274.119,345.167 273.751 C 345.627 273.334,344.425 273.728,343.100 274.427 M23.698 277.400 C 23.683 279.160,23.915 283.120,24.213 286.200 L 24.755 291.800 24.520 287.000 C 24.390 284.360,24.159 280.400,24.005 278.200 L 23.725 274.200 23.698 277.400 M376.501 276.600 C 376.505 277.480,376.587 277.793,376.683 277.295 C 376.779 276.798,376.775 276.078,376.675 275.695 C 376.575 275.313,376.496 275.720,376.501 276.600 M326.300 283.024 C 323.935 284.225,322.000 285.297,322.000 285.407 C 322.000 285.517,323.980 284.614,326.400 283.400 C 328.820 282.186,330.800 281.105,330.800 280.997 C 330.800 280.725,331.062 280.607,326.300 283.024 M375.642 288.575 C 375.354 292.907,375.202 296.535,375.303 296.637 C 375.554 296.888,376.566 281.898,376.343 281.229 C 376.246 280.937,375.930 284.243,375.642 288.575 M24.928 295.200 C 24.928 296.630,25.001 297.215,25.089 296.500 C 25.178 295.785,25.178 294.615,25.089 293.900 C 25.001 293.185,24.928 293.770,24.928 295.200 M166.221 298.411 C 163.636 306.202,157.656 313.945,152.029 316.785 C 150.648 317.482,149.615 318.148,149.733 318.266 C 150.615 319.149,157.976 313.416,160.690 309.731 C 164.040 305.184,167.974 296.923,167.487 295.460 C 167.408 295.223,166.838 296.550,166.221 298.411 M374.924 300.200 C 374.926 301.520,375.001 302.012,375.090 301.293 C 375.179 300.574,375.177 299.494,375.086 298.893 C 374.995 298.292,374.922 298.880,374.924 300.200 M25.314 301.400 C 25.317 302.500,25.395 302.903,25.487 302.295 C 25.579 301.686,25.577 300.786,25.482 300.295 C 25.387 299.803,25.311 300.300,25.314 301.400 M374.352 306.713 C 374.221 307.507,374.279 307.881,374.501 307.659 C 374.703 307.457,374.801 306.867,374.719 306.346 C 374.593 305.545,374.537 305.602,374.352 306.713 M372.000 308.800 C 371.230 309.222,370.744 309.574,370.920 309.583 C 371.344 309.605,373.600 308.432,373.600 308.190 C 373.600 307.928,373.577 307.937,372.000 308.800 M27.600 308.555 C 27.600 308.842,40.093 315.240,40.283 315.050 C 40.378 314.955,37.563 313.415,34.028 311.626 C 30.493 309.838,27.600 308.456,27.600 308.555 M267.900 312.824 C 265.315 314.134,263.200 315.296,263.200 315.406 C 263.200 315.516,265.360 314.523,268.000 313.200 C 270.640 311.877,272.800 310.705,272.800 310.597 C 272.800 310.324,273.100 310.188,267.900 312.824 M364.700 312.424 C 362.555 313.515,360.800 314.498,360.800 314.608 C 360.800 314.717,362.600 313.904,364.800 312.800 C 367.000 311.696,368.800 310.704,368.800 310.596 C 368.800 310.325,369.025 310.225,364.700 312.424 M40.800 315.396 C 40.800 315.506,44.220 317.308,48.400 319.400 C 52.580 321.492,56.000 323.114,56.000 323.004 C 56.000 322.894,52.580 321.092,48.400 319.000 C 44.220 316.908,40.800 315.286,40.800 315.396 M121.600 319.010 C 123.711 319.711,129.759 320.814,131.200 320.761 C 131.750 320.740,130.850 320.474,129.200 320.168 C 127.550 319.863,125.210 319.415,124.000 319.172 C 120.275 318.426,119.728 318.389,121.600 319.010 M144.400 319.627 C 142.090 320.235,140.576 320.748,141.036 320.766 C 142.081 320.808,147.784 319.366,148.712 318.826 C 149.654 318.276,149.228 318.355,144.400 319.627 M351.100 319.426 C 350.055 319.970,349.200 320.505,349.200 320.614 C 349.200 320.724,350.100 320.357,351.200 319.800 C 352.300 319.243,353.200 318.700,353.200 318.593 C 353.200 318.329,353.236 318.314,351.100 319.426 M134.691 321.089 C 135.401 321.177,136.661 321.179,137.491 321.092 C 138.321 321.005,137.740 320.933,136.200 320.931 C 134.660 320.929,133.981 321.000,134.691 321.089 M250.400 321.800 C 249.410 322.330,248.742 322.772,248.916 322.782 C 249.341 322.806,252.400 321.234,252.400 320.992 C 252.400 320.727,252.417 320.720,250.400 321.800 M347.070 321.479 C 346.448 321.805,346.035 322.169,346.153 322.286 C 346.270 322.404,346.959 322.120,347.683 321.657 C 349.178 320.699,348.775 320.583,347.070 321.479 M56.400 323.371 C 56.400 323.573,60.314 325.601,60.693 325.595 C 61.046 325.590,58.150 323.895,57.100 323.493 C 56.715 323.346,56.400 323.291,56.400 323.371 M341.200 324.600 C 340.210 325.130,339.542 325.572,339.716 325.582 C 340.141 325.606,343.200 324.034,343.200 323.792 C 343.200 323.527,343.217 323.520,341.200 324.600 M61.200 325.762 C 61.200 326.061,69.696 330.438,69.893 330.240 C 69.998 330.135,68.085 329.046,65.642 327.821 C 63.199 326.596,61.200 325.669,61.200 325.762 M334.700 327.824 C 332.335 329.025,330.400 330.097,330.400 330.207 C 330.400 330.317,332.380 329.414,334.800 328.200 C 337.220 326.986,339.200 325.905,339.200 325.797 C 339.200 325.525,339.462 325.407,334.700 327.824 M70.400 330.602 C 70.400 330.828,74.250 332.801,74.687 332.799 C 75.077 332.797,72.977 331.544,71.500 330.898 C 70.895 330.634,70.400 330.500,70.400 330.602 M322.400 334.200 C 320.970 334.949,319.940 335.570,320.111 335.581 C 320.537 335.607,325.200 333.237,325.200 332.994 C 325.200 332.725,325.294 332.685,322.400 334.200 M76.000 333.392 C 76.000 333.584,81.006 336.223,84.100 337.663 C 87.541 339.264,85.239 337.825,80.800 335.600 C 78.160 334.277,76.000 333.283,76.000 333.392 M315.884 337.464 C 313.950 338.474,312.438 339.371,312.525 339.458 C 312.699 339.632,319.600 336.033,319.600 335.767 C 319.600 335.518,319.663 335.489,315.884 337.464 M86.033 338.551 C 86.442 338.921,89.600 340.395,89.600 340.216 C 89.600 339.989,86.581 338.400,86.149 338.400 C 85.994 338.400,85.942 338.468,86.033 338.551 M90.800 340.996 C 90.800 341.106,93.860 342.728,97.600 344.600 C 101.340 346.472,104.400 347.914,104.400 347.804 C 104.400 347.694,101.340 346.072,97.600 344.200 C 93.860 342.328,90.800 340.886,90.800 340.996 M307.600 341.800 C 306.610 342.330,305.942 342.772,306.116 342.782 C 306.541 342.806,309.600 341.234,309.600 340.992 C 309.600 340.727,309.617 340.720,307.600 341.800 M300.681 345.262 C 298.526 346.381,296.832 347.366,296.918 347.451 C 297.092 347.625,304.800 343.634,304.800 343.369 C 304.800 343.118,304.898 343.073,300.681 345.262 M104.800 348.167 C 104.800 348.459,118.910 355.623,119.104 355.430 C 119.204 355.329,116.027 353.616,112.043 351.622 C 108.059 349.627,104.800 348.073,104.800 348.167 M287.200 352.200 C 286.210 352.730,285.542 353.172,285.716 353.182 C 286.141 353.206,289.200 351.634,289.200 351.392 C 289.200 351.127,289.217 351.120,287.200 352.200 M283.500 354.027 C 282.675 354.463,282.000 354.908,282.000 355.018 C 282.000 355.127,282.720 354.849,283.600 354.400 C 284.480 353.951,285.200 353.497,285.200 353.392 C 285.200 353.130,285.197 353.131,283.500 354.027 M120.400 356.204 C 120.400 356.428,123.453 358.001,123.884 357.999 C 124.266 357.997,122.084 356.655,121.100 356.287 C 120.715 356.143,120.400 356.106,120.400 356.204 M271.100 360.424 C 268.515 361.734,266.400 362.896,266.400 363.006 C 266.400 363.116,268.560 362.123,271.200 360.800 C 273.840 359.477,276.000 358.305,276.000 358.197 C 276.000 357.924,276.300 357.788,271.100 360.424 M125.400 358.723 C 126.131 359.458,138.000 365.362,138.000 364.989 C 138.000 364.888,135.075 363.346,131.500 361.562 C 127.925 359.779,125.180 358.501,125.400 358.723 M263.200 364.600 C 262.210 365.130,261.542 365.572,261.716 365.582 C 262.141 365.606,265.200 364.034,265.200 363.792 C 265.200 363.527,265.217 363.520,263.200 364.600 M140.000 366.195 C 140.000 366.305,142.880 367.837,146.400 369.600 C 149.920 371.363,152.800 372.715,152.800 372.605 C 152.800 372.495,149.920 370.963,146.400 369.200 C 142.880 367.437,140.000 366.085,140.000 366.195 M258.400 367.000 C 257.410 367.530,256.742 367.972,256.916 367.982 C 257.341 368.006,260.400 366.434,260.400 366.192 C 260.400 365.927,260.417 365.920,258.400 367.000 M251.500 370.477 C 249.356 371.609,247.662 372.595,247.737 372.670 C 247.899 372.832,255.600 368.815,255.600 368.569 C 255.600 368.311,255.653 368.286,251.500 370.477 M154.000 373.396 C 154.000 373.506,157.240 375.218,161.200 377.200 C 165.160 379.182,168.400 380.714,168.400 380.604 C 168.400 380.494,165.160 378.782,161.200 376.800 C 157.240 374.818,154.000 373.286,154.000 373.396 M237.059 377.845 C 235.111 378.838,233.589 379.722,233.677 379.811 C 233.859 379.992,240.800 376.453,240.800 376.178 C 240.800 375.928,240.962 375.856,237.059 377.845 M168.800 380.998 C 168.800 381.267,172.849 383.284,173.029 383.105 C 173.111 383.023,172.193 382.473,170.989 381.882 C 169.785 381.292,168.800 380.894,168.800 380.998 M173.600 383.378 C 173.600 383.652,182.147 387.987,182.329 387.805 C 182.414 387.719,180.485 386.646,178.042 385.421 C 175.599 384.196,173.600 383.276,173.600 383.378 M224.400 384.400 C 223.190 385.039,222.341 385.571,222.513 385.581 C 222.938 385.607,226.800 383.636,226.800 383.393 C 226.800 383.126,226.855 383.103,224.400 384.400 M219.500 386.826 C 217.140 388.044,216.333 388.747,218.300 387.872 C 220.054 387.091,222.000 385.996,222.000 385.790 C 222.000 385.528,222.069 385.500,219.500 386.826 M183.200 388.385 C 184.274 389.183,186.873 390.460,187.054 390.279 C 187.151 390.182,186.369 389.678,185.315 389.158 C 182.980 388.007,182.411 387.799,183.200 388.385 M210.000 391.800 C 208.570 392.549,207.540 393.170,207.711 393.181 C 208.137 393.207,212.800 390.837,212.800 390.594 C 212.800 390.325,212.894 390.285,210.000 391.800 M189.200 391.393 C 189.200 391.503,191.180 392.586,193.600 393.800 C 196.020 395.014,198.000 395.917,198.000 395.807 C 198.000 395.697,196.020 394.614,193.600 393.400 C 191.180 392.186,189.200 391.283,189.200 391.393 M204.700 394.426 C 203.435 395.079,202.400 395.703,202.400 395.812 C 202.400 395.922,203.480 395.466,204.800 394.800 C 206.120 394.134,207.200 393.501,207.200 393.394 C 207.200 393.128,207.274 393.097,204.700 394.426 M198.528 396.284 C 198.975 397.007,200.239 397.117,201.239 396.519 C 201.916 396.115,201.963 396.026,201.400 396.220 C 200.373 396.573,199.973 396.567,199.034 396.180 C 198.534 395.973,198.359 396.009,198.528 396.284 " stroke="none" fill="#d69c9b" fill-rule="evenodd"></path></g></svg>